<svg width="20" height="20" viewBox="0 0 20 20" fill="none" xmlns="http://www.w3.org/2000/svg">
<path d="M9.58887 0.417969H9.58984C10.2582 0.418 10.9109 0.512106 11.5352 0.685547C11.3969 0.931515 11.2776 1.18929 11.1787 1.45703C10.6693 1.32572 10.1371 1.25101 9.58984 1.25098C6.51454 1.25098 3.89682 3.33825 3.23242 6.32715L1.27637 13.9111L1.27246 13.9268C1.20629 14.2332 1.27158 14.5655 1.44531 14.8389L1.52637 14.9521L1.52832 14.9531C1.76467 15.2457 2.11978 15.4179 2.5 15.418H16.5625C16.9581 15.418 17.3179 15.24 17.5576 14.9219L17.5586 14.9229C17.6854 14.7552 17.7641 14.5651 17.7959 14.3662H17.8428L17.8105 14.1152C17.8077 14.0538 17.8001 13.9924 17.7881 13.9307L17.7842 13.8984C17.7812 13.8748 17.7729 13.854 17.7676 13.835H17.7686L16.5293 8.74023C16.8136 8.72554 17.0912 8.68973 17.3613 8.63281L18.5615 13.5684V13.5771L18.5713 13.6133C18.5717 13.616 18.5718 13.6192 18.5723 13.6221L18.5752 13.6387L18.5801 13.6553C18.7173 14.1982 18.6361 14.7575 18.3555 15.2295L18.2236 15.4258C17.8246 15.9501 17.222 16.25 16.5635 16.25H13.332L13.2637 16.583C12.9149 18.2924 11.3997 19.5828 9.58984 19.583C7.77979 19.583 6.26385 18.2925 5.91504 16.583L5.84766 16.25H2.5C1.94556 16.2499 1.42385 16.0331 1.03516 15.6475L0.876953 15.4717C0.478302 14.9721 0.330152 14.3341 0.466797 13.7168L0.46582 13.7158L2.42285 6.13184L2.42578 6.11816C3.14553 2.87815 5.93203 0.564945 9.26465 0.424805L9.58887 0.417969ZM6.85059 16.8066C7.25168 17.9313 8.31916 18.7488 9.58887 18.749V18.75H9.58984V18.749C10.8594 18.7485 11.9271 17.9312 12.3281 16.8066L12.5264 16.25H6.65234L6.85059 16.8066ZM16.2559 0.416992C17.864 0.416992 19.1727 1.72494 19.1729 3.33301C19.1729 4.94122 17.8641 6.25 16.2559 6.25C14.6478 6.24983 13.3398 4.94112 13.3398 3.33301C13.34 1.72505 14.6479 0.417161 16.2559 0.416992ZM16.2559 1.25C15.1068 1.25017 14.173 2.18398 14.1729 3.33301C14.1729 4.48219 15.1067 5.41682 16.2559 5.41699C17.4051 5.41699 18.3398 4.48229 18.3398 3.33301C18.3397 2.18387 17.405 1.25 16.2559 1.25Z" fill="#444746" stroke="#660033" stroke-width="0.833333"/>
</svg>
