<svg width="20" height="20" viewBox="0 0 20 20" fill="none" xmlns="http://www.w3.org/2000/svg">
<path d="M16.2562 6.66667C18.0945 6.66667 19.5895 5.17167 19.5895 3.33333C19.5895 1.495 18.0945 0 16.2562 0C14.4178 0 12.9228 1.495 12.9228 3.33333C12.9228 5.17167 14.4178 6.66667 16.2562 6.66667ZM16.2562 1.66667C17.1753 1.66667 17.9228 2.41417 17.9228 3.33333C17.9228 4.2525 17.1753 5 16.2562 5C15.337 5 14.5895 4.2525 14.5895 3.33333C14.5895 2.41417 15.337 1.66667 16.2562 1.66667ZM18.9828 13.5392L18.9787 13.5233V13.5225L17.6678 8.12833C17.2195 8.26 16.747 8.33417 16.2562 8.33417C16.1695 8.33417 16.0853 8.32583 15.9995 8.32083L17.3637 13.9333C17.3653 13.9392 17.3695 13.9433 17.3703 13.95H17.367C17.4353 14.2067 17.3845 14.4625 17.2262 14.6717C17.0662 14.8842 16.8295 15.0008 16.5628 15.0008H2.50034C2.24617 15.0008 2.0095 14.8867 1.852 14.6917C1.692 14.4917 1.632 14.235 1.6795 14.015L3.6395 6.4175C4.26117 3.62083 6.70784 1.6675 9.5895 1.6675C10.2337 1.6675 10.8587 1.7775 11.4495 1.96833C11.6062 1.4175 11.8528 0.905833 12.1762 0.450833C11.3603 0.160833 10.4887 0.00166667 9.5895 0.00166667C5.92117 0 2.80534 2.49 2.0195 6.0275L0.0595027 13.6267C-0.104664 14.3683 0.0745027 15.1358 0.552003 15.7333C1.0295 16.3267 1.74034 16.6667 2.50034 16.6667H5.507C5.8945 18.5658 7.577 20 9.5895 20C11.602 20 13.2845 18.5658 13.672 16.6667H16.5637C17.3528 16.6667 18.0778 16.3058 18.5553 15.6783C19.0187 15.0675 19.1712 14.295 18.9837 13.5533C18.9828 13.5483 18.9837 13.5442 18.9837 13.5392H18.9828ZM9.5895 18.3333C8.5045 18.3333 7.58784 17.6342 7.24284 16.6667H11.9353C11.5903 17.6342 10.6737 18.3333 9.58867 18.3333H9.5895Z" fill="#444746"/>
</svg>
