<svg width="31" height="31" viewBox="0 0 31 31" fill="none" xmlns="http://www.w3.org/2000/svg">
<g clip-path="url(#clip0_224_3675)">
<path d="M5.75009 3.5H1.25009C0.835907 3.5 0.5 3.83591 0.5 4.25009V8.75009C0.5 9.16428 0.835907 9.50018 1.25009 9.50018C1.66428 9.50018 1.99991 9.16428 1.99991 8.75009V5.00018H5.75009C6.16428 5.00018 6.49991 4.66428 6.49991 4.25009C6.49991 3.83591 6.16428 3.5 5.75009 3.5Z" fill="#660033"/>
<path d="M5.75009 26H1.99991V22.2501C1.99991 21.8359 1.66428 21.5 1.25009 21.5C0.835907 21.5 0.5 21.8359 0.5 22.2501V26.7501C0.5 27.1643 0.835907 27.5002 1.25009 27.5002H5.75009C6.16428 27.5002 6.49991 27.1643 6.49991 26.7501C6.49991 26.3359 6.16428 26 5.75009 26Z" fill="#660033"/>
<path d="M29.7501 3.5H25.2501C24.8359 3.5 24.5 3.83591 24.5 4.25009C24.5 4.66428 24.8359 5.00018 25.2501 5.00018H29V8.75009C29 9.16428 29.3359 9.50018 29.7501 9.50018C30.1643 9.50018 30.5002 9.16428 30.5002 8.75009V4.25009C30.5002 3.83591 30.1643 3.5 29.7501 3.5Z" fill="#660033"/>
<path d="M29.7501 21.5C29.3359 21.5 29 21.8359 29 22.2501V26H25.2501C24.8359 26 24.5 26.3359 24.5 26.7501C24.5 27.1643 24.8359 27.5002 25.2501 27.5002H29.7501C30.1643 27.5002 30.5002 27.1643 30.5002 26.7501V22.2501C30.5002 21.8359 30.1643 21.5 29.7501 21.5Z" fill="#660033"/>
<path d="M5.75009 8C5.33591 8 5 8.33591 5 8.75009V22.2501C5 22.6643 5.33591 23.0002 5.75009 23.0002C6.16428 23.0002 6.49991 22.6643 6.49991 22.2501V8.75009C6.49991 8.33591 6.16428 8 5.75009 8Z" fill="#660033"/>
<path d="M8.74982 8H10.25C10.6642 8 10.9998 8.33591 10.9998 8.75009V22.2501C10.9998 22.6643 10.6642 23.0002 10.25 23.0002H8.74982C8.33563 23.0002 8 22.6643 8 22.2501V8.75009C8 8.33591 8.33563 8 8.74982 8Z" fill="#660033"/>
<path d="M13.2498 8C12.8356 8 12.5 8.33591 12.5 8.75009V22.2501C12.5 22.6643 12.8356 23.0002 13.2498 23.0002C13.664 23.0002 13.9999 22.6643 13.9999 22.2501V8.75009C13.9999 8.33591 13.664 8 13.2498 8Z" fill="#660033"/>
<path d="M16.2501 8H17.75C18.1642 8 18.5001 8.33591 18.5001 8.75009V22.2501C18.5001 22.6643 18.1642 23.0002 17.75 23.0002H16.2501C15.8359 23.0002 15.5 22.6643 15.5 22.2501V8.75009C15.5 8.33591 15.8359 8 16.2501 8Z" fill="#660033"/>
<path d="M20.7501 8C20.3359 8 20 8.33591 20 8.75009V22.2501C20 22.6643 20.3359 23.0002 20.7501 23.0002C21.1643 23.0002 21.5002 22.6643 21.5002 22.2501V8.75009C21.5002 8.33591 21.1643 8 20.7501 8Z" fill="#660033"/>
<path d="M23.7501 8H25.25C25.6642 8 26.0001 8.33591 26.0001 8.75009V22.2501C26.0001 22.6643 25.6642 23.0002 25.25 23.0002H23.7501C23.3359 23.0002 23 22.6643 23 22.2501V8.75009C23 8.33591 23.3359 8 23.7501 8Z" fill="#660033"/>
</g>
<defs>
<clipPath id="clip0_224_3675">
<rect width="30" height="30" fill="white" transform="translate(0.5 0.5)"/>
</clipPath>
</defs>
</svg>
