<svg width="20" height="17" viewBox="0 0 20 17" fill="none" xmlns="http://www.w3.org/2000/svg">
<path d="M0 3.5293H20V5.88224H0V3.5293Z" fill="#2ECC71"/>
<path d="M1.17651 16.4708H18.8236V7.05908H1.17651V16.4708ZM12.9412 10.0003H16.4706V11.1767H12.9412V10.0003ZM10.7606 8.99614L11.5925 9.82802L10.2437 11.1767L12.0084 12.9414L9.82777 15.1221L8.99589 14.2903L10.3446 12.9414L8.57993 11.1767L10.7606 8.99614ZM3.52946 10.0003H4.70593V8.82379H5.8824V10.0003H7.05887V11.1767H5.8824V12.3532H4.70593V11.1767H3.52946V10.0003Z" fill="#2ECC71"/>
<path d="M1.76465 0.588379H5.29406V2.35308H1.76465V0.588379Z" fill="#2ECC71"/>
<path d="M14.7058 0.588379H18.2352V2.35308H14.7058V0.588379Z" fill="#2ECC71"/>
<path d="M7.64697 0H12.3529V2.35294H7.64697V0Z" fill="#2ECC71"/>
</svg>
