<svg width="20" height="20" viewBox="0 0 20 20" fill="none" xmlns="http://www.w3.org/2000/svg">
<path d="M20 7.42833V5.76167H19.1667V2.5L16.6667 0L14.1667 2.5V5.76167H12.5V2.5L10 0L7.5 2.5V5.76167H5.83333V2.5L3.33333 0L0.833333 2.5V5.76167H0V7.42833H0.833333V13.2617H0V14.9283H0.833333V19.9283H5.83333V14.9283H7.5V19.9283H12.5V14.9283H14.1667V19.9283H19.1667V14.9283H20V13.2617H19.1667V7.42833H20ZM15.8333 3.19L16.6667 2.35667L17.5 3.19V5.76167H15.8333V3.19ZM9.16667 3.19L10 2.35667L10.8333 3.19V5.76167H9.16667V3.19ZM10.8333 7.42833V13.2617H9.16667V7.42833H10.8333ZM2.5 3.19L3.33333 2.35667L4.16667 3.19V5.76167H2.5V3.19ZM2.5 7.42833H4.16667V13.2617H2.5V7.42833ZM4.16667 18.2617H2.5V14.9283H4.16667V18.2617ZM5.83333 13.2617V7.42833H7.5V13.2617H5.83333ZM10.8333 18.2617H9.16667V14.9283H10.8333V18.2617ZM12.5 13.2617V7.42833H14.1667V13.2617H12.5ZM17.5 18.2617H15.8333V14.9283H17.5V18.2617ZM17.5 13.2617H15.8333V7.42833H17.5V13.2617Z" fill="white"/>
</svg>
