<svg width="25" height="25" viewBox="0 0 25 25" fill="none" xmlns="http://www.w3.org/2000/svg">
<mask id="mask0_117_1174" style="mask-type:luminance" maskUnits="userSpaceOnUse" x="0" y="0" width="25" height="25">
<path d="M24.9756 24.9756V0.0244141H0.0244141V24.9756H24.9756Z" fill="white" stroke="white" stroke-width="0.0488281"/>
</mask>
<g mask="url(#mask0_117_1174)">
<path d="M11.5397 19.2383H13.4603M17.3125 19.2383H19.2331M5.77798 19.2383H7.69853M11.5397 13.4766H13.4603M17.3125 13.4766H19.2331M5.77798 13.4766H7.69853M0.976562 8.65884H24.0345M18.2728 5.77798V0.976562M6.73828 5.77798V0.976562M4.82881 24.0234H20.1823C22.3098 24.0234 24.0345 22.2987 24.0345 20.1711V6.74941C24.0345 4.62187 22.3098 2.89712 20.1823 2.89712H4.82881C2.70127 2.89712 0.976562 4.62187 0.976562 6.74941V20.1711C0.976562 22.2987 2.70127 24.0234 4.82881 24.0234Z" stroke="#660033" stroke-width="1.95312" stroke-miterlimit="10" stroke-linecap="round" stroke-linejoin="round"/>
</g>
</svg>
