<svg width="20" height="20" viewBox="0 0 20 20" fill="none" xmlns="http://www.w3.org/2000/svg">
<g clip-path="url(#clip0_188_3920)">
<path d="M5.09769 9.53225L4.38941 14.4602C4.3158 15.0482 4.67871 15.5974 5.52663 15.5974L10.4546 14.8892C10.6695 14.8606 10.8692 14.7625 11.0232 14.6099C11.1019 14.5311 18.8342 6.80608 18.904 6.71908C22.3379 2.926 16.9337 -2.24778 13.2678 1.08283C13.1814 1.15196 5.45521 8.88542 5.37699 8.96364C5.22434 9.11762 5.12625 9.31728 5.09769 9.53225ZM15.9612 2.05045C17.0487 2.03619 17.9419 2.90622 17.9562 3.99373C17.9563 4.00437 17.9564 4.01497 17.9564 4.02562C17.957 4.45131 17.8166 4.86517 17.5574 5.20277L14.7841 2.42954C15.1243 2.17746 15.5379 2.04428 15.9612 2.05045ZM7.02302 10.1407L13.3476 3.82614L16.1607 6.63926L9.84615 12.9639L6.55415 13.4327L7.02302 10.1407Z" fill="#660033"/>
<path d="M16.9587 11.1335V14.9991C16.9568 16.6511 15.618 17.99 13.966 17.9918H4.98782C3.33577 17.9899 1.99692 16.6511 1.99514 14.9991V6.02098C1.99697 4.36893 3.33577 3.03008 4.98782 3.0283H8.94699C9.49792 3.0283 9.94453 2.58168 9.94453 2.03075C9.94453 1.47982 9.49792 1.0332 8.94699 1.0332H4.98782C2.23446 1.03636 0.00324398 3.26762 0 6.02098V14.9991C0.00324398 17.7524 2.23446 19.9837 4.98782 19.9869H13.9659C16.7193 19.9837 18.9505 17.7524 18.9537 14.9991V11.1335C18.9537 10.5826 18.5071 10.1359 17.9562 10.1359C17.4053 10.1359 16.9587 10.5826 16.9587 11.1335Z" fill="#660033"/>
</g>
<defs>
<clipPath id="clip0_188_3920">
<rect width="20" height="20" fill="white"/>
</clipPath>
</defs>
</svg>
