<svg width="25" height="19" viewBox="0 0 25 19" fill="none" xmlns="http://www.w3.org/2000/svg">
<path d="M24.814 8.52209C23.8994 6.52204 20.3129 0 12.5002 0C4.68749 0 1.10094 6.52204 0.186329 8.52209C0.0635532 8.79012 0 9.08147 0 9.37628C0 9.67109 0.0635532 9.96244 0.186329 10.2305C1.10094 12.2284 4.68749 18.7505 12.5002 18.7505C20.3129 18.7505 23.8994 12.2284 24.814 10.2284C24.9366 9.96066 25 9.66968 25 9.37524C25 9.0808 24.9366 8.78982 24.814 8.52209ZM12.5002 15.6254C11.264 15.6254 10.0556 15.2588 9.02778 14.5721C7.99995 13.8853 7.19885 12.9091 6.72579 11.7671C6.25273 10.625 6.12896 9.36831 6.37012 8.15589C6.61129 6.94348 7.20656 5.82981 8.08066 4.95571C8.95476 4.08161 10.0684 3.48634 11.2808 3.24517C12.4933 3.00401 13.75 3.12779 14.892 3.60085C16.0341 4.0739 17.0102 4.875 17.697 5.90284C18.3838 6.93067 18.7503 8.13908 18.7503 9.37524C18.7487 11.0324 18.0897 12.6212 16.9179 13.7929C15.7461 14.9647 14.1573 15.6237 12.5002 15.6254Z" fill="#660033"/>
<path d="M12.5002 13.542C14.8015 13.542 16.667 11.6765 16.667 9.37527C16.667 7.07402 14.8015 5.2085 12.5002 5.2085C10.199 5.2085 8.33344 7.07402 8.33344 9.37527C8.33344 11.6765 10.199 13.542 12.5002 13.542Z" fill="#660033"/>
</svg>
