<svg width="25" height="19" viewBox="0 0 25 19" fill="none" xmlns="http://www.w3.org/2000/svg">
<path d="M12.5 0C15.5643 0 17.9772 1.00541 19.835 2.3457L22.4932 0.257812L22.5742 0.199219C22.9923 -0.0656275 23.5519 0.0243733 23.8643 0.421875C24.1766 0.819377 24.1315 1.38394 23.7754 1.72754L23.7002 1.79297L21.3633 3.62793C23.2758 5.47947 24.3665 7.54286 24.8145 8.52246C24.9368 8.78999 25 9.08082 25 9.375C25 9.66942 24.937 9.9608 24.8145 10.2285C23.8998 12.2286 20.3127 18.75 12.5 18.75C9.41771 18.75 6.99494 17.7329 5.13281 16.3809L2.50781 18.4443C2.08371 18.7775 1.46994 18.7034 1.13672 18.2793C0.803551 17.8552 0.876753 17.2414 1.30078 16.9082L3.6084 15.0947C1.71379 13.2507 0.632254 11.2042 0.186523 10.2305C0.0637478 9.96244 0 9.67079 0 9.37598C4.2801e-05 9.08135 0.06386 8.79033 0.186523 8.52246C1.10112 6.52243 4.68743 9.78545e-05 12.5 0ZM16.2803 7.62207C16.5279 8.15501 16.667 8.74867 16.667 9.375C16.667 11.6762 14.8012 13.542 12.5 13.542C11.5178 13.542 10.6156 13.2014 9.90332 12.6328L8.23535 13.9434C8.48111 14.1728 8.74536 14.3838 9.02734 14.5723C10.0551 15.259 11.2639 15.625 12.5 15.625C14.1571 15.6233 15.7462 14.9647 16.918 13.793C18.0897 12.6212 18.7483 11.0321 18.75 9.375C18.75 8.29941 18.4718 7.24538 17.9473 6.3125L16.2803 7.62207ZM14.8916 3.60059C13.7498 3.12773 12.4934 3.00409 11.2812 3.24512C10.0689 3.48628 8.95515 4.08197 8.08105 4.95605C7.20695 5.83015 6.61128 6.94384 6.37012 8.15625C6.12908 9.36839 6.25273 10.6248 6.72559 11.7666C6.81616 11.9853 6.91831 12.1987 7.03223 12.4043L8.70312 11.0918C8.46608 10.5683 8.33301 9.98708 8.33301 9.375C8.33314 7.07393 10.1989 5.2081 12.5 5.20801C13.4678 5.20801 14.3581 5.53922 15.0654 6.09277L16.7354 4.78027C16.1975 4.28458 15.5744 3.88341 14.8916 3.60059Z" fill="#660033"/>
</svg>
