<svg width="15" height="15" viewBox="0 0 15 15" fill="none" xmlns="http://www.w3.org/2000/svg">
<path d="M7.20145 10.3262L5.62516 11.8756H3.7501V13.125H2.50007V14.3744C2.50007 14.7194 2.22006 14.9994 1.87505 14.9994H0.625017C0.280008 15.0001 0 14.72 0 14.375V13.2231C0 12.56 0.263757 11.9243 0.73252 11.4556L4.572 7.61673L7.20145 10.3262ZM13.8304 7.39109L11.1041 9.51803C10.1978 10.2249 8.90712 10.1455 8.0946 9.33302L5.67516 6.91358C4.85389 6.09231 4.78263 4.78352 5.51078 3.87787L7.71771 1.13092C8.75962 -0.164742 10.6403 -0.373498 11.9566 0.641531C12.3441 0.940289 12.741 1.2803 13.1197 1.65906C13.6104 2.1497 14.0529 2.69971 14.4348 3.23348C15.3811 4.55727 15.1129 6.39044 13.8304 7.39109ZM12.3066 3.92162L11.0566 2.67159C10.8122 2.42721 10.4172 2.42721 10.1728 2.67159C9.9284 2.91597 9.9284 3.31098 10.1728 3.55536L11.4228 4.8054C11.6672 5.04978 12.0622 5.04978 12.3066 4.8054C12.551 4.56102 12.551 4.166 12.3066 3.92162Z" fill="#660033"/>
</svg>
