<svg width="18" height="18" viewBox="0 0 18 18" fill="none" xmlns="http://www.w3.org/2000/svg">
<path d="M17.0787 14.7958C17.0787 16.3233 15.8365 17.5654 14.309 17.5654H5.89913L7.3151 16.1806H14.3097C15.0735 16.1806 15.6945 15.5596 15.6945 14.7958C15.6945 14.0321 15.0735 13.411 14.3097 13.411H10.8477C9.32029 13.411 8.07812 12.1689 8.07812 10.6414C8.07812 9.30716 9.02671 8.19101 10.2848 7.92998L11.6412 9.25662H10.8477C10.084 9.25662 9.46293 9.8777 9.46293 10.6414C9.46293 11.4051 10.084 12.0262 10.8477 12.0262H14.3097C15.8372 12.0262 17.0787 13.2684 17.0787 14.7958ZM16.0643 6.85814C17.4145 5.50795 17.4145 3.31165 16.0643 1.96216C15.4107 1.30854 14.541 0.948486 13.6166 0.948486C12.6923 0.948486 11.8226 1.30854 11.1683 1.96216C9.81882 3.31235 9.81882 5.50865 11.1739 6.86368L13.6166 9.25246L16.0643 6.85814ZM15.0852 2.94122C15.8953 3.75133 15.8953 5.06897 15.0908 5.87354L13.6166 7.31512L12.1474 5.87908C11.338 5.06897 11.338 3.75133 12.1474 2.94122C12.54 2.54863 13.0613 2.3326 13.6166 2.3326C14.172 2.3326 14.6933 2.54932 15.0852 2.94122ZM6.37066 15.167C7.72084 13.8168 7.72084 11.6205 6.37066 10.271C5.71703 9.61736 4.84737 9.25731 3.92302 9.25731C2.99866 9.25731 2.129 9.61736 1.47468 10.271C0.125193 11.6212 0.125193 13.8175 1.48022 15.1725L3.92302 17.5613L6.37066 15.167ZM5.3916 11.25C6.20171 12.0602 6.20171 13.3778 5.39714 14.1824L3.92302 15.6239L2.45374 14.1879C1.64432 13.3778 1.64432 12.0602 2.45374 11.25C2.84633 10.8575 3.36771 10.6414 3.92302 10.6414C4.47832 10.6414 4.9997 10.8581 5.3916 11.25Z" fill="white"/>
</svg>
