<svg width="18" height="17" viewBox="0 0 18 17" fill="none" xmlns="http://www.w3.org/2000/svg">
<g clip-path="url(#clip0_293_6368)">
<path d="M16.1254 9.37475C15.8386 9.37475 15.6061 9.60705 15.6061 9.89413V15.062C15.6061 15.2645 15.4866 15.4356 15.3172 15.5212L6.7293 3.11639H8.99443C9.28125 3.11639 9.51381 2.88384 9.51381 2.59701C9.51381 2.31019 9.28125 2.07764 8.99443 2.07764H2.10231C1.24311 2.07764 0.544189 2.77656 0.544189 3.63576V15.062C0.544189 15.9212 1.24311 16.6201 2.10231 16.6201H15.0867C15.087 16.6201 15.0879 16.62 15.0882 16.62C15.9467 16.6191 16.6448 15.9207 16.6448 15.062V9.89413C16.6448 9.60705 16.4123 9.37475 16.1254 9.37475ZM1.58294 3.63576C1.58294 3.34945 1.816 3.11639 2.10231 3.11639H2.86885L5.65438 7.1399L1.58294 11.2113V3.63576ZM2.10231 15.5814C1.816 15.5814 1.58294 15.3486 1.58294 15.062V12.6802L6.25525 8.00788L8.62886 11.4364L4.48414 15.5814H2.10231ZM5.95293 15.5814L9.22977 12.3044L11.4985 15.5814H5.95293ZM12.762 15.5814L4.13242 3.11639H5.46573L14.0953 15.5814H12.762Z" fill="white"/>
<path d="M13.827 1.74634C12.9678 1.74634 12.2689 2.44526 12.2689 3.30446C12.2689 4.16367 12.9678 4.86259 13.827 4.86259C14.6862 4.86259 15.3852 4.16367 15.3852 3.30446C15.3852 2.44526 14.6862 1.74634 13.827 1.74634ZM13.827 3.82384C13.5407 3.82384 13.3077 3.59078 13.3077 3.30446C13.3077 3.01815 13.5407 2.78509 13.827 2.78509C14.1134 2.78509 14.3464 3.01815 14.3464 3.30446C14.3464 3.59078 14.1134 3.82384 13.827 3.82384Z" fill="white"/>
<path d="M16.7307 1.78045C16.2623 0.846807 15.3878 0.140052 14.1978 0.0190897C11.5463 -0.250456 9.64166 2.76139 10.9058 5.07716C10.9058 5.07716 13.3537 10.0826 13.3604 10.0964C13.5432 10.4702 14.1105 10.4702 14.2937 10.0964C14.2937 10.0964 16.7406 5.09225 16.7432 5.08705C17.2674 4.01494 17.2273 2.7702 16.7307 1.78045ZM15.8254 4.60013C15.8216 4.60698 15.8183 4.61383 15.8148 4.62067L13.827 8.6859C13.827 8.6859 11.8312 4.60577 11.8284 4.60014C11.0229 2.95353 12.1334 0.853539 14.0927 1.05225C15.7492 1.22024 16.5861 3.20599 15.8254 4.60013Z" fill="white"/>
</g>
<defs>
<clipPath id="clip0_293_6368">
<rect width="16.62" height="16.62" fill="white" transform="translate(0.544189)"/>
</clipPath>
</defs>
</svg>
