<svg width="14" height="14" viewBox="0 0 14 14" fill="none" xmlns="http://www.w3.org/2000/svg">
<path d="M13.125 7C12.642 7 12.25 7.392 12.25 7.875V8.16667H9.06383L6.41667 5.74V1.75H6.70833C7.19192 1.75 7.58333 1.358 7.58333 0.875C7.58333 0.392 7.19192 0 6.70833 0H3.20833C1.43908 0 0 1.43967 0 3.20833V10.7917C0 12.5603 1.43908 14 3.20833 14H10.7917C12.5603 14 14 12.5603 14 10.7917V7.875C14 7.392 13.608 7 13.125 7ZM3.20833 1.75H4.66667V5.58425L1.75 7.04258V3.20833C1.75 2.40392 2.4045 1.75 3.20833 1.75ZM1.75 10.7917V8.99908L5.39467 7.17675L7.89775 9.47158L6.04567 12.25H3.20833C2.4045 12.25 1.75 11.5961 1.75 10.7917ZM10.7917 12.25H8.14858L9.70433 9.91667H12.25V10.7917C12.25 11.5961 11.5961 12.25 10.7917 12.25ZM10.5659 6.49017C10.8535 6.77133 11.3132 6.77133 11.6007 6.49017L13.1454 4.97933C14.2847 3.84008 14.2847 1.99383 13.1454 0.854583C12.5761 0.284667 11.83 0 11.0833 0C10.3367 0 9.59058 0.284667 9.02067 0.854C7.88142 1.99325 7.88142 3.8395 9.02067 4.97875L10.5653 6.48958L10.5659 6.49017ZM11.0833 2.07317C11.5663 2.07317 11.9583 2.46517 11.9583 2.94817C11.9583 3.43117 11.5663 3.82317 11.0833 3.82317C10.6003 3.82317 10.2083 3.43117 10.2083 2.94817C10.2083 2.46517 10.6003 2.07317 11.0833 2.07317Z" fill="#660033"/>
</svg>
