<svg width="20" height="20" viewBox="0 0 20 20" fill="none" xmlns="http://www.w3.org/2000/svg">
<g clip-path="url(#clip0_52_1129)">
<path d="M3.75 14.5833H1.66667C1.22464 14.5833 0.800716 14.7589 0.488155 15.0715C0.175595 15.3841 0 15.808 0 16.25L0 18.3333C0 18.7754 0.175595 19.1993 0.488155 19.5119C0.800716 19.8244 1.22464 20 1.66667 20H3.75C4.19203 20 4.61595 19.8244 4.92851 19.5119C5.24107 19.1993 5.41667 18.7754 5.41667 18.3333V16.25C5.41667 15.808 5.24107 15.3841 4.92851 15.0715C4.61595 14.7589 4.19203 14.5833 3.75 14.5833ZM3.75 18.3333H1.66667V16.25H3.75V18.3333Z" fill="#660033"/>
<path d="M18.3333 14.5833H16.25C15.808 14.5833 15.384 14.7589 15.0715 15.0715C14.7589 15.3841 14.5833 15.808 14.5833 16.25V18.3333C14.5833 18.7754 14.7589 19.1993 15.0715 19.5119C15.384 19.8244 15.808 20 16.25 20H18.3333C18.7753 20 19.1993 19.8244 19.5118 19.5119C19.8244 19.1993 20 18.7754 20 18.3333V16.25C20 15.808 19.8244 15.3841 19.5118 15.0715C19.1993 14.7589 18.7753 14.5833 18.3333 14.5833ZM18.3333 18.3333H16.25V16.25H18.3333V18.3333Z" fill="#660033"/>
<path d="M3.75 7.29166H1.66667C1.22464 7.29166 0.800716 7.46725 0.488155 7.77981C0.175595 8.09237 0 8.5163 0 8.95832L0 11.0417C0 11.4837 0.175595 11.9076 0.488155 12.2202C0.800716 12.5327 1.22464 12.7083 1.66667 12.7083H3.75C4.19203 12.7083 4.61595 12.5327 4.92851 12.2202C5.24107 11.9076 5.41667 11.4837 5.41667 11.0417V8.95832C5.41667 8.5163 5.24107 8.09237 4.92851 7.77981C4.61595 7.46725 4.19203 7.29166 3.75 7.29166ZM3.75 11.0417H1.66667V8.95832H3.75V11.0417Z" fill="#660033"/>
<path d="M18.3333 7.29166H16.25C15.808 7.29166 15.384 7.46725 15.0715 7.77981C14.7589 8.09237 14.5833 8.5163 14.5833 8.95832V11.0417C14.5833 11.4837 14.7589 11.9076 15.0715 12.2202C15.384 12.5327 15.808 12.7083 16.25 12.7083H18.3333C18.7753 12.7083 19.1993 12.5327 19.5118 12.2202C19.8244 11.9076 20 11.4837 20 11.0417V8.95832C20 8.5163 19.8244 8.09237 19.5118 7.77981C19.1993 7.46725 18.7753 7.29166 18.3333 7.29166ZM18.3333 11.0417H16.25V8.95832H18.3333V11.0417Z" fill="#660033"/>
<path d="M3.75 0H1.66667C1.22464 0 0.800716 0.175595 0.488155 0.488155C0.175595 0.800716 0 1.22464 0 1.66667L0 3.75C0 4.19203 0.175595 4.61595 0.488155 4.92851C0.800716 5.24107 1.22464 5.41667 1.66667 5.41667H3.75C4.19203 5.41667 4.61595 5.24107 4.92851 4.92851C5.24107 4.61595 5.41667 4.19203 5.41667 3.75V1.66667C5.41667 1.22464 5.24107 0.800716 4.92851 0.488155C4.61595 0.175595 4.19203 0 3.75 0ZM3.75 3.75H1.66667V1.66667H3.75V3.75Z" fill="#660033"/>
<path d="M11.0417 14.5833H8.95835C8.51633 14.5833 8.0924 14.7589 7.77984 15.0715C7.46728 15.3841 7.29169 15.808 7.29169 16.25V18.3333C7.29169 18.7754 7.46728 19.1993 7.77984 19.5119C8.0924 19.8244 8.51633 20 8.95835 20H11.0417C11.4837 20 11.9076 19.8244 12.2202 19.5119C12.5328 19.1993 12.7084 18.7754 12.7084 18.3333V16.25C12.7084 15.808 12.5328 15.3841 12.2202 15.0715C11.9076 14.7589 11.4837 14.5833 11.0417 14.5833ZM11.0417 18.3333H8.95835V16.25H11.0417V18.3333Z" fill="#660033"/>
<path d="M11.0417 7.29166H8.95835C8.51633 7.29166 8.0924 7.46725 7.77984 7.77981C7.46728 8.09237 7.29169 8.5163 7.29169 8.95832V11.0417C7.29169 11.4837 7.46728 11.9076 7.77984 12.2202C8.0924 12.5327 8.51633 12.7083 8.95835 12.7083H11.0417C11.4837 12.7083 11.9076 12.5327 12.2202 12.2202C12.5328 11.9076 12.7084 11.4837 12.7084 11.0417V8.95832C12.7084 8.5163 12.5328 8.09237 12.2202 7.77981C11.9076 7.46725 11.4837 7.29166 11.0417 7.29166ZM11.0417 11.0417H8.95835V8.95832H11.0417V11.0417Z" fill="#660033"/>
<path d="M11.0417 0H8.95835C8.51633 0 8.0924 0.175595 7.77984 0.488155C7.46728 0.800716 7.29169 1.22464 7.29169 1.66667V3.75C7.29169 4.19203 7.46728 4.61595 7.77984 4.92851C8.0924 5.24107 8.51633 5.41667 8.95835 5.41667H11.0417C11.4837 5.41667 11.9076 5.24107 12.2202 4.92851C12.5328 4.61595 12.7084 4.19203 12.7084 3.75V1.66667C12.7084 1.22464 12.5328 0.800716 12.2202 0.488155C11.9076 0.175595 11.4837 0 11.0417 0ZM11.0417 3.75H8.95835V1.66667H11.0417V3.75Z" fill="#660033"/>
<path d="M18.3333 0H16.25C15.808 0 15.384 0.175595 15.0715 0.488155C14.7589 0.800716 14.5833 1.22464 14.5833 1.66667V3.75C14.5833 4.19203 14.7589 4.61595 15.0715 4.92851C15.384 5.24107 15.808 5.41667 16.25 5.41667H18.3333C18.7753 5.41667 19.1993 5.24107 19.5118 4.92851C19.8244 4.61595 20 4.19203 20 3.75V1.66667C20 1.22464 19.8244 0.800716 19.5118 0.488155C19.1993 0.175595 18.7753 0 18.3333 0ZM18.3333 3.75H16.25V1.66667H18.3333V3.75Z" fill="#660033"/>
</g>
<defs>
<clipPath id="clip0_52_1129">
<rect width="20" height="20" fill="white"/>
</clipPath>
</defs>
</svg>
