<svg width="21" height="21" viewBox="0 0 21 21" fill="none" xmlns="http://www.w3.org/2000/svg">
<path fill-rule="evenodd" clip-rule="evenodd" d="M9.87988 2.97402C7.96196 3.05758 6.19184 3.88301 4.8934 5.30058C2.21849 8.2223 2.41811 12.7761 5.33886 15.4521C6.27254 16.3075 7.40772 16.8982 8.63586 17.1699L10.6936 20.4357L12.5288 16.9513C13.6598 16.5635 14.6804 15.8957 15.4929 15.0089L15.4951 15.0066C15.4948 15.0069 15.4953 15.0063 15.4951 15.0066C18.1696 12.0853 17.9693 7.53071 15.0489 4.85465C13.6335 3.55828 11.798 2.88995 9.87988 2.97402ZM14.6001 14.1873L14.5985 14.189C13.8745 14.9792 12.952 15.5602 11.9316 15.8692L11.6888 15.9426L10.5995 18.0104L9.38155 16.0777L9.11916 16.0301C8.01419 15.829 6.99063 15.3196 6.159 14.5576C3.73131 12.3333 3.56505 8.54855 5.78991 6.11839C6.86736 4.94195 8.33901 4.25543 9.93302 4.18615C11.527 4.11614 13.0529 4.67176 14.2292 5.74934C16.6568 7.97374 16.8232 11.759 14.6001 14.1873Z" fill="#E0A500"/>
<circle cx="10.2192" cy="10.2353" r="3.78071" stroke="#E0A500" stroke-width="1.5" stroke-dasharray="4.03 4.03"/>
</svg>
