<svg width="38" height="38" viewBox="0 0 38 38" fill="none" xmlns="http://www.w3.org/2000/svg">
<path d="M28.9988 37.0588H8.06001C3.6086 37.0588 0 33.4502 0 28.9988V8.06001C0 3.6086 3.6086 0 8.06001 0H28.9988C33.4502 0 37.0588 3.6086 37.0588 8.06001V28.9988C37.0588 33.4502 33.4502 37.0588 28.9988 37.0588Z" fill="#00B771"/>
<mask id="mask0_43_701" style="mask-type:luminance" maskUnits="userSpaceOnUse" x="0" y="0" width="38" height="38">
<path d="M28.9988 37.0588H8.06001C3.6086 37.0588 0 33.4502 0 28.9988V8.06001C0 3.6086 3.6086 0 8.06001 0H28.9988C33.4502 0 37.0588 3.6086 37.0588 8.06001V28.9988C37.0588 33.4502 33.4502 37.0588 28.9988 37.0588Z" fill="white"/>
</mask>
<g mask="url(#mask0_43_701)">
<path d="M28.9988 37.0588H8.06001C3.6086 37.0588 0 33.4502 0 28.9988V8.06001C0 3.6086 3.6086 0 8.06001 0H28.9988C33.4502 0 37.0588 3.6086 37.0588 8.06001V28.9988C37.0588 33.4502 33.4502 37.0588 28.9988 37.0588Z" fill="#00B771"/>
</g>
<mask id="mask1_43_701" style="mask-type:luminance" maskUnits="userSpaceOnUse" x="0" y="0" width="38" height="38">
<path d="M28.9988 37.0588H8.06001C3.6086 37.0588 0 33.4502 0 28.9988V8.06001C0 3.6086 3.6086 0 8.06001 0H28.9988C33.4502 0 37.0588 3.6086 37.0588 8.06001V28.9988C37.0588 33.4502 33.4502 37.0588 28.9988 37.0588Z" fill="white"/>
</mask>
<g mask="url(#mask1_43_701)">
<path d="M28.4129 23.6186V27.8202C28.4129 28.1056 28.1807 28.3364 27.8927 28.3364H25.8119C21.2273 28.3364 16.9166 26.5642 13.6739 23.3468C10.4313 20.1293 8.64551 15.8522 8.64551 11.3029V9.23863C8.64551 8.95287 8.8777 8.72241 9.16578 8.72241H13.3343C13.8754 8.72241 14.3436 9.06665 14.4962 9.57245L15.5781 14.0493C15.6198 14.2248 15.5677 14.4141 15.436 14.5415L14.0798 15.8559C13.8164 16.1107 13.7434 16.4996 13.896 16.8264C14.1873 17.4388 14.5272 18.0343 14.9087 18.5986C15.3804 19.2903 15.9215 19.9371 16.5144 20.5291C17.1108 21.1174 17.7629 21.6542 18.46 22.1224C19.0286 22.5011 19.6285 22.8415 20.2496 23.1273C20.5756 23.2787 20.9676 23.2063 21.2241 22.9449L22.7777 21.3722C22.9129 21.2347 23.1106 21.1829 23.2979 21.2379L27.6191 22.4869C28.0939 22.662 28.4129 23.1163 28.4129 23.6186Z" fill="white"/>
</g>
</svg>
