<svg width="86" height="86" viewBox="0 0 86 86" fill="none" xmlns="http://www.w3.org/2000/svg">
<g clip-path="url(#clip0_529_4988)">
<path d="M86 43C86 66.7486 66.7486 86 43 86C19.2514 86 0 66.7486 0 43C0 19.2514 19.2514 0 43 0C66.7486 0 86 19.2514 86 43Z" fill="#4A7AFF"/>
<path d="M86.0002 43C86.0002 42.7664 85.9949 42.5335 85.991 42.3006L72.9019 29.2108L63.5495 38.167L45.6227 20.2402L26.9408 40.9384L38.7846 52.7829L12.1733 64.8208L31.9038 84.5519C35.4442 85.4948 39.1632 86 43.0002 86C66.7487 86 86.0002 66.7486 86.0002 43Z" fill="#0053BF"/>
<path d="M50.0575 30.4372C50.0575 38.1382 43.8144 44.3812 36.1135 44.3812C28.4125 44.3812 22.1694 38.1382 22.1694 30.4372C22.1694 22.7362 28.4125 16.4932 36.1135 16.4932C43.8144 16.4932 50.0575 22.7362 50.0575 30.4372Z" fill="#FFD400"/>
<path d="M36.1132 16.4932C36.0391 16.4932 35.9662 16.4978 35.8921 16.4991V44.3753C35.9662 44.3766 36.0391 44.3812 36.1132 44.3812C43.8142 44.3812 50.0572 38.1382 50.0572 30.4372C50.0572 22.7362 43.8142 16.4932 36.1132 16.4932Z" fill="#FDBA12"/>
<path d="M12.1733 64.8208H60.0536C58.2302 53.2395 48.2079 44.3811 36.1135 44.3811C24.0191 44.3811 13.9967 53.2395 12.1733 64.8208Z" fill="#FFD400"/>
<path d="M36.1132 44.3811C36.0397 44.3811 35.9662 44.3824 35.8921 44.3831V64.8208H60.0533C58.23 53.2395 48.2076 44.3811 36.1132 44.3811Z" fill="#FDBA12"/>
<path d="M77.9762 41.5283C77.9762 51.1872 70.1466 59.0167 60.4878 59.0167C50.8296 59.0167 43 51.1872 43 41.5283C43 31.8701 50.8296 24.0405 60.4878 24.0405C70.1466 24.0405 77.9762 31.8701 77.9762 41.5283Z" fill="white"/>
<path d="M60.4878 24.0405C60.4727 24.0405 60.457 24.0412 60.4419 24.0412V59.0161C60.457 59.0161 60.4727 59.0167 60.4878 59.0167C70.1467 59.0167 77.9763 51.1872 77.9763 41.5283C77.9763 31.8701 70.1467 24.0405 60.4878 24.0405Z" fill="#DCE1EB"/>
<path d="M56.7142 53.4095L47.8047 44.5L52.6738 39.6302L56.7142 43.6706L68.3021 32.0828L73.1719 36.9519L56.7142 53.4095Z" fill="#414952"/>
<path d="M68.3023 32.0828L60.4419 39.9432V49.6821L73.1721 36.9519L68.3023 32.0828Z" fill="#333940"/>
</g>
<defs>
<clipPath id="clip0_529_4988">
<rect width="86" height="86" fill="white"/>
</clipPath>
</defs>
</svg>
