<svg width="17" height="18" viewBox="0 0 17 18" fill="none" xmlns="http://www.w3.org/2000/svg">
<path d="M1.50182 9.22579C2.02735 9.22579 2.45387 9.62046 2.53004 10.1398C2.97387 13.1441 5.56899 15.4574 8.69449 15.4574C12.4861 15.4574 15.4987 12.0529 14.834 8.13941C14.5204 6.29416 13.3467 4.66148 11.7023 3.76828C9.27473 2.45064 6.52312 2.9007 4.65363 4.49184L5.43605 5.27426C5.87226 5.71047 5.56345 6.45619 4.94652 6.45619H1.77117C1.38896 6.45619 1.07876 6.14599 1.07876 5.76378V2.58843C1.07876 1.9715 1.82448 1.66269 2.26069 2.0989L3.18297 3.02118C5.64862 0.837343 9.33289 0.177484 12.5983 1.89187C14.897 3.09873 16.52 5.37258 16.9071 7.94C17.6839 13.0894 13.6992 17.5346 8.69518 17.5346C4.52623 17.5346 1.06422 14.4486 0.474989 10.4403C0.381514 9.80326 0.857887 9.22579 1.50182 9.22579Z" fill="white"/>
</svg>
