<svg width="26" height="30" viewBox="0 0 26 30" fill="none" xmlns="http://www.w3.org/2000/svg">
<path d="M12.935 30L12.4925 29.8037C12 29.5875 0.5 24.3938 0.5 14.9888V6.83375C0.500438 6.04896 0.748479 5.28432 1.2088 4.64872C1.66912 4.01311 2.31825 3.53895 3.06375 3.29375L13 0L22.9362 3.29375C23.6817 3.53895 24.3309 4.01311 24.7912 4.64872C25.2515 5.28432 25.4996 6.04896 25.5 6.83375V14.9888C25.5 25.71 13.89 29.6825 13.395 29.8475L12.935 30ZM13 2.62125L3.855 5.65375C3.60618 5.73502 3.38946 5.89294 3.23588 6.10491C3.0823 6.31687 2.99973 6.572 3 6.83375V14.9888C3 21.8563 11.05 26.3112 13.0588 27.315C15.0638 26.5087 23 22.8175 23 14.9888V6.83375C23.0003 6.572 22.9177 6.31687 22.7641 6.10491C22.6105 5.89294 22.3938 5.73502 22.145 5.65375L13 2.62125Z" fill="url(#paint0_linear_763_1959)"/>
<path d="M11.8887 18.1664H11.8475C11.5311 18.1616 11.219 18.0926 10.93 17.9637C10.641 17.8348 10.3812 17.6486 10.1662 17.4164L7.28373 14.4164L9.08498 12.6889L11.89 15.6139L18.3662 9.1377L20.1337 10.9052L13.5575 17.4814C13.3384 17.7003 13.0782 17.8735 12.7917 17.9911C12.5053 18.1087 12.1984 18.1683 11.8887 18.1664Z" fill="url(#paint1_linear_763_1959)"/>
<defs>
<linearGradient id="paint0_linear_763_1959" x1="12.5986" y1="-5.19758e-08" x2="15.7051" y2="29.6869" gradientUnits="userSpaceOnUse">
<stop stop-color="#A60D4F"/>
<stop offset="1" stop-color="#660033"/>
</linearGradient>
<linearGradient id="paint1_linear_763_1959" x1="13.5024" y1="9.1377" x2="14.0538" y2="18.1363" gradientUnits="userSpaceOnUse">
<stop stop-color="#A60D4F"/>
<stop offset="1" stop-color="#660033"/>
</linearGradient>
</defs>
</svg>
