<svg width="13" height="15" viewBox="0 0 13 15" fill="none" xmlns="http://www.w3.org/2000/svg">
<path d="M10.363 1.33763L6.4474 0.032025C6.3192 -0.010675 6.18061 -0.010675 6.05241 0.032025L2.13622 1.33763C1.51379 1.54453 0.972374 1.94231 0.588891 2.47445C0.205409 3.00659 -0.000644408 3.64604 1.51396e-06 4.30196V7.50004C1.51396e-06 12.2268 5.74991 14.8374 5.99616 14.9462C6.07605 14.9817 6.16249 15 6.24991 15C6.33732 15 6.42377 14.9817 6.50365 14.9462C6.7499 14.8374 12.4998 12.2268 12.4998 7.50004V4.30196C12.5004 3.64596 12.2943 3.00646 11.9107 2.47431C11.5271 1.94216 10.9855 1.54443 10.363 1.33763Z" fill="url(#paint0_linear_532_4551)"/>
<path d="M4.80016 10.2577C4.69567 10.2578 4.59221 10.2372 4.49569 10.1972C4.39917 10.1572 4.31148 10.0986 4.23766 10.0246L2.49988 8.28776L3.16299 7.62496L4.80016 9.26212L9.06228 5L9.72539 5.6628L5.36265 10.0246C5.28883 10.0986 5.20115 10.1572 5.10462 10.1972C5.0081 10.2372 4.90464 10.2578 4.80016 10.2577Z" fill="white"/>
<defs>
<linearGradient id="paint0_linear_532_4551" x1="6.04922" y1="-2.59879e-08" x2="7.60247" y2="14.8435" gradientUnits="userSpaceOnUse">
<stop stop-color="#A60D4F"/>
<stop offset="1" stop-color="#660033"/>
</linearGradient>
</defs>
</svg>
