<svg width="31" height="31" viewBox="0 0 31 31" fill="none" xmlns="http://www.w3.org/2000/svg">
<path d="M19.5337 10.4319C19.2702 9.97561 19.2003 9.44404 19.3366 8.9351C19.4729 8.42615 19.7993 8.00082 20.2556 7.73744C20.5655 7.5585 20.9041 7.47354 21.2386 7.47354C21.9208 7.47354 22.5852 7.82732 22.9501 8.45937C23.4939 9.40127 23.17 10.6101 22.2281 11.1539C21.2862 11.6978 20.0775 11.3738 19.5337 10.4319ZM22.2281 19.8461C21.2862 19.3023 20.0775 19.6262 19.5337 20.5681C18.9898 21.51 19.3137 22.7188 20.2556 23.2626C20.712 23.526 21.2435 23.5959 21.7524 23.4596C22.2614 23.3233 22.6867 22.9968 22.9501 22.5405C23.2136 22.0842 23.2835 21.5527 23.1472 21.0437C23.0108 20.5349 22.6844 20.1095 22.2281 19.8461ZM9.75477 13.5279C9.42031 13.5279 9.08176 13.6128 8.77186 13.7918C7.82996 14.3356 7.50605 15.5444 8.04986 16.4862C8.59373 17.4282 9.80246 17.7521 10.7444 17.2082C11.2007 16.9448 11.5271 16.5194 11.6634 16.0105C11.7998 15.5016 11.7298 14.97 11.4663 14.5138C11.1015 13.8817 10.437 13.5279 9.75477 13.5279ZM30.5 5.68555V25.3145C30.5 28.1738 28.1738 30.5 25.3145 30.5H5.68555C2.82623 30.5 0.5 28.1738 0.5 25.3145V5.68555C0.5 2.82623 2.82623 0.5 5.68555 0.5H25.3145C28.1738 0.5 30.5 2.82623 30.5 5.68555ZM24.6187 20.6495C24.377 19.7475 23.7986 18.9937 22.9899 18.5267C21.5067 17.6705 19.6513 18.0287 18.5796 19.2896L13.1313 16.4172C13.1325 16.4131 13.1338 16.409 13.135 16.4048C13.2976 15.7978 13.2939 15.1727 13.1322 14.5822L18.579 11.7107C19.2539 12.5048 20.2396 12.941 21.2478 12.9409C21.8404 12.9409 22.4407 12.7903 22.9899 12.4733C24.6593 11.5094 25.2332 9.36705 24.2694 7.69771C23.3056 6.02832 21.1633 5.45428 19.4939 6.41809C18.6852 6.88502 18.1068 7.63889 17.8651 8.54088C17.7024 9.14797 17.7062 9.77299 17.8678 10.3635L12.4204 13.2354C11.3487 11.9745 9.4932 11.6162 8.01014 12.4725C6.34074 13.4363 5.76676 15.5787 6.73057 17.248C7.37738 18.3683 8.55482 18.9953 9.76402 18.9953C10.3566 18.9953 10.957 18.8446 11.5061 18.5277C11.8582 18.3243 12.1665 18.0666 12.4226 17.7659L17.8685 20.637C17.4626 22.1311 18.0915 23.7723 19.4939 24.582C20.0325 24.893 20.6304 25.0519 21.2361 25.0519C21.5398 25.0519 21.8454 25.0119 22.1466 24.9312C23.0486 24.6896 23.8025 24.1111 24.2694 23.3023C24.7364 22.4936 24.8604 21.5515 24.6187 20.6495Z" fill="url(#paint0_linear_535_4307)"/>
<defs>
<linearGradient id="paint0_linear_535_4307" x1="15.0183" y1="0.5" x2="17.6157" y2="30.2855" gradientUnits="userSpaceOnUse">
<stop stop-color="#A60D4F"/>
<stop offset="1" stop-color="#660033"/>
</linearGradient>
</defs>
</svg>
