<svg width="372" height="245" viewBox="0 0 372 245" fill="none" xmlns="http://www.w3.org/2000/svg">
<path d="M278.294 239.721C255.125 240.601 231.956 241.074 208.786 241.463C197.202 241.622 185.617 241.815 174.033 241.885L156.656 242.033L139.279 242.099C127.694 242.126 116.11 242.196 104.525 242.116C98.7325 242.084 92.9406 242.092 87.148 242.026L69.7709 241.821C58.1864 241.635 46.6019 241.42 35.0174 241.077C23.4328 240.746 11.8483 240.35 0.263832 239.721C0.110223 239.713 -0.00776354 239.581 0.000399267 239.428C0.00782 239.284 0.12358 239.172 0.263832 239.164C11.8483 238.535 23.4328 238.14 35.0174 237.808C46.6019 237.464 58.1864 237.25 69.7709 237.064L87.148 236.859C92.9406 236.793 98.7325 236.801 104.525 236.769C116.11 236.689 127.694 236.759 139.279 236.786L156.656 236.852L174.033 237C185.617 237.07 197.202 237.263 208.786 237.422C231.955 237.811 255.124 238.284 278.294 239.164C278.448 239.17 278.568 239.299 278.562 239.453C278.556 239.599 278.437 239.715 278.294 239.721Z" fill="#474747"/>
<path d="M175.888 238.948H255.537C263.836 238.948 270.564 232.22 270.564 223.921V15.027C270.564 6.72764 263.836 0 255.537 0H175.888C167.589 0 160.861 6.72764 160.861 15.027V223.921C160.861 232.22 167.589 238.948 175.888 238.948Z" fill="#050505"/>
<path d="M198.853 226.398H232.572C233.345 226.398 233.977 225.766 233.977 224.994C233.977 224.221 233.345 223.589 232.572 223.589H198.853C198.081 223.589 197.448 224.221 197.448 224.994C197.448 225.766 198.081 226.398 198.853 226.398Z" fill="#1C1C1C"/>
<path d="M166.412 211.411L265.012 211.411L265.012 27.5367L166.412 27.5367L166.412 211.411Z" fill="white"/>
<mask id="mask0_293_4109" style="mask-type:luminance" maskUnits="userSpaceOnUse" x="166" y="27" width="100" height="185">
<path d="M166.412 211.411L265.012 211.411L265.012 27.5367L166.412 27.5367L166.412 211.411Z" fill="white"/>
</mask>
<g mask="url(#mask0_293_4109)">
<path d="M266.9 139.238L231.665 111.997L262.162 71.7288L293.548 96.3047L266.9 139.238Z" fill="#D8D8D8"/>
<path d="M256.833 69.6561C255.944 69.9522 227.815 109.036 227.815 109.036L191.1 81.7957L219.229 46.8567L256.833 69.6561Z" fill="#D8D8D8"/>
<path d="M229 119.696L263.347 145.752L234.921 184.244L201.759 157.3L229 119.696Z" fill="#D8D8D8"/>
<path d="M223.374 115.55L196.429 151.378L161.49 123.841L189.323 89.79L223.374 115.55Z" fill="#D8D8D8"/>
<path d="M231.368 189.574C230.776 188.686 159.122 129.467 158.233 129.171C157.345 128.874 122.998 170.92 122.998 170.92L202.351 228.066L231.368 189.574Z" fill="#D8D8D8"/>
<path d="M267.492 149.601L254.76 169.439C254.76 169.439 285.85 193.423 286.738 193.423C287.626 193.423 290.587 166.478 290.587 166.478L267.492 149.601Z" fill="#D8D8D8"/>
<path d="M251.207 173.881L221.894 212.077C221.894 212.077 269.564 229.546 270.749 229.25C271.933 228.954 285.257 196.384 285.257 196.384L251.207 173.881Z" fill="#D8D8D8"/>
<path d="M212.715 42.4153C211.827 43.0074 186.955 78.8347 186.066 78.5387C185.178 78.2426 151.719 55.4431 151.719 55.4431L182.217 18.7275L212.715 42.4153Z" fill="#D8D8D8"/>
<path d="M158.53 68.4717L181.329 86.8291L155.865 116.735L136.322 97.489L158.53 68.4717Z" fill="#D8D8D8"/>
<path d="M268.084 49.8175L260.09 59.8844L223.374 40.0466L241.139 17.5432L269.564 19.3197L268.084 49.8175Z" fill="#D8D8D8"/>
<path d="M232.849 14.2864L215.083 35.9015L184.585 14.5825C184.585 14.5825 206.496 4.81158 207.385 5.10767C208.273 5.40376 234.033 15.7668 234.033 15.7668" fill="#D8D8D8"/>
</g>
<mask id="mask1_293_4109" style="mask-type:luminance" maskUnits="userSpaceOnUse" x="166" y="27" width="100" height="185">
<path d="M166.412 211.411L265.012 211.411L265.012 27.5367L166.412 27.5367L166.412 211.411Z" fill="white"/>
</mask>
<g mask="url(#mask1_293_4109)">
<path d="M206.719 227.178C207.385 227.178 234.921 189.425 234.921 189.425L197.169 157.669L229.814 115.92L209.828 99.9307" stroke="#FF7224" stroke-width="1.48415" stroke-miterlimit="10" stroke-linecap="round" stroke-linejoin="round"/>
</g>
<path d="M212.455 12.0824C212.455 13.8812 213.913 15.3394 215.712 15.3394C217.511 15.3394 218.969 13.8812 218.969 12.0824C218.969 10.2836 217.511 8.82544 215.712 8.82544C213.913 8.82544 212.455 10.2836 212.455 12.0824Z" fill="#182B5C"/>
<path d="M196.109 63.5904C196.109 78.9936 215.713 94.3969 215.713 94.3969C215.713 94.3969 235.317 79.3936 235.317 63.5904C235.317 52.7636 226.54 43.9863 215.713 43.9863C204.885 43.9863 196.109 52.7636 196.109 63.5904Z" fill="#FF7224"/>
<path d="M215.712 75.5934C222.231 75.5934 227.515 70.3092 227.515 63.7907C227.515 57.2723 222.231 51.988 215.712 51.988C209.194 51.988 203.909 57.2723 203.909 63.7907C203.909 70.3092 209.194 75.5934 215.712 75.5934Z" fill="white"/>
<path d="M183.709 133.666H247.716C251.627 133.666 254.797 130.496 254.797 126.585V120.39C254.797 116.479 251.627 113.309 247.716 113.309H183.709C179.798 113.309 176.628 116.479 176.628 120.39V126.586C176.628 130.496 179.798 133.666 183.709 133.666Z" fill="#14223F"/>
<path d="M193.659 126.31C193.652 126.402 193.613 126.48 193.542 126.544C193.478 126.608 193.403 126.64 193.318 126.64C193.218 126.64 193.137 126.608 193.073 126.544C193.016 126.48 192.987 126.402 192.987 126.31V119.509C192.987 119.417 193.019 119.338 193.083 119.275C193.147 119.211 193.229 119.179 193.328 119.179C193.414 119.179 193.488 119.211 193.552 119.275C193.623 119.338 193.659 119.417 193.659 119.509V126.31ZM195.141 121.215H197.624C197.709 121.215 197.781 121.246 197.837 121.31C197.894 121.367 197.923 121.438 197.923 121.524C197.923 121.602 197.894 121.669 197.837 121.726C197.781 121.783 197.709 121.811 197.624 121.811H195.141C195.055 121.811 194.981 121.783 194.917 121.726C194.86 121.662 194.831 121.591 194.831 121.513C194.831 121.428 194.86 121.357 194.917 121.3C194.981 121.243 195.055 121.215 195.141 121.215ZM196.238 119.712C196.331 119.712 196.405 119.744 196.462 119.807C196.526 119.871 196.558 119.946 196.558 120.031V125.382C196.558 125.581 196.583 125.731 196.633 125.83C196.69 125.93 196.761 125.997 196.846 126.033C196.931 126.061 197.017 126.075 197.102 126.075C197.159 126.075 197.208 126.068 197.251 126.054C197.301 126.033 197.354 126.022 197.411 126.022C197.475 126.022 197.528 126.047 197.571 126.097C197.621 126.146 197.646 126.21 197.646 126.288C197.646 126.388 197.589 126.473 197.475 126.544C197.361 126.608 197.226 126.64 197.07 126.64C197.006 126.64 196.91 126.637 196.782 126.629C196.654 126.615 196.523 126.576 196.388 126.512C196.253 126.441 196.139 126.32 196.047 126.15C195.961 125.979 195.919 125.734 195.919 125.414V120.031C195.919 119.946 195.947 119.871 196.004 119.807C196.068 119.744 196.146 119.712 196.238 119.712ZM199.851 119.871C199.851 120.063 199.794 120.252 199.68 120.436C199.566 120.614 199.428 120.763 199.264 120.884C199.108 120.998 198.948 121.055 198.785 121.055C198.728 121.055 198.675 121.037 198.625 121.001C198.575 120.966 198.55 120.902 198.55 120.809C198.55 120.71 198.582 120.653 198.646 120.639C198.71 120.625 198.795 120.593 198.902 120.543C199.016 120.479 199.104 120.404 199.168 120.319C199.232 120.234 199.264 120.134 199.264 120.021C199.264 119.928 199.236 119.857 199.179 119.807C199.129 119.758 199.069 119.733 198.998 119.733C198.948 119.733 198.898 119.744 198.849 119.765C198.799 119.779 198.756 119.8 198.721 119.829C198.678 119.793 198.643 119.754 198.614 119.712C198.593 119.662 198.582 119.605 198.582 119.541C198.596 119.42 198.664 119.317 198.785 119.232C198.905 119.147 199.04 119.104 199.19 119.104C199.382 119.104 199.538 119.182 199.659 119.338C199.787 119.488 199.851 119.665 199.851 119.871ZM200.867 125.777C200.81 125.691 200.782 125.61 200.782 125.532C200.789 125.446 200.835 125.379 200.92 125.329C200.977 125.279 201.041 125.258 201.112 125.265C201.19 125.272 201.261 125.308 201.325 125.372C201.517 125.62 201.748 125.823 202.018 125.979C202.295 126.128 202.622 126.203 202.999 126.203C203.198 126.203 203.393 126.171 203.585 126.107C203.784 126.036 203.947 125.933 204.075 125.798C204.203 125.656 204.267 125.478 204.267 125.265C204.267 125.045 204.203 124.867 204.075 124.732C203.947 124.597 203.78 124.49 203.574 124.412C203.375 124.334 203.162 124.267 202.935 124.21C202.693 124.146 202.459 124.075 202.231 123.997C202.004 123.911 201.801 123.808 201.624 123.687C201.453 123.56 201.315 123.407 201.208 123.229C201.101 123.051 201.048 122.835 201.048 122.579C201.048 122.28 201.13 122.018 201.293 121.79C201.457 121.563 201.677 121.385 201.954 121.257C202.238 121.129 202.558 121.065 202.913 121.065C203.091 121.065 203.283 121.09 203.489 121.14C203.695 121.183 203.898 121.257 204.097 121.364C204.296 121.47 204.473 121.616 204.63 121.801C204.694 121.865 204.726 121.939 204.726 122.025C204.726 122.103 204.69 122.174 204.619 122.238C204.562 122.28 204.495 122.302 204.416 122.302C204.345 122.302 204.285 122.273 204.235 122.217C204.065 122.025 203.862 121.879 203.628 121.779C203.393 121.68 203.141 121.63 202.871 121.63C202.665 121.63 202.469 121.666 202.285 121.737C202.107 121.801 201.958 121.9 201.837 122.035C201.716 122.17 201.656 122.348 201.656 122.568C201.67 122.774 201.741 122.941 201.869 123.069C202.004 123.197 202.178 123.304 202.391 123.389C202.611 123.474 202.857 123.552 203.127 123.624C203.354 123.68 203.571 123.748 203.777 123.826C203.99 123.904 204.175 124.004 204.331 124.125C204.495 124.238 204.622 124.384 204.715 124.562C204.814 124.739 204.864 124.963 204.864 125.233C204.864 125.546 204.775 125.816 204.598 126.043C204.427 126.271 204.196 126.445 203.905 126.566C203.613 126.686 203.29 126.747 202.935 126.747C202.551 126.747 202.178 126.672 201.815 126.523C201.46 126.374 201.144 126.125 200.867 125.777ZM211.571 121.151C212.019 121.151 212.381 121.246 212.658 121.438C212.935 121.63 213.138 121.89 213.266 122.217C213.401 122.543 213.468 122.906 213.468 123.304V126.32C213.468 126.406 213.436 126.48 213.372 126.544C213.308 126.608 213.234 126.64 213.148 126.64C213.049 126.64 212.971 126.608 212.914 126.544C212.857 126.48 212.829 126.406 212.829 126.32V123.304C212.829 123.012 212.782 122.749 212.69 122.515C212.605 122.28 212.463 122.096 212.264 121.961C212.065 121.819 211.798 121.747 211.464 121.747C211.166 121.747 210.882 121.819 210.611 121.961C210.349 122.096 210.135 122.28 209.972 122.515C209.808 122.749 209.727 123.012 209.727 123.304V126.32C209.727 126.406 209.695 126.48 209.631 126.544C209.567 126.608 209.492 126.64 209.407 126.64C209.307 126.64 209.229 126.608 209.172 126.544C209.116 126.48 209.087 126.406 209.087 126.32V119.072C209.087 118.987 209.116 118.912 209.172 118.848C209.236 118.784 209.315 118.752 209.407 118.752C209.499 118.752 209.574 118.784 209.631 118.848C209.695 118.912 209.727 118.987 209.727 119.072V122.526L209.482 122.899C209.496 122.678 209.563 122.465 209.684 122.259C209.812 122.046 209.975 121.858 210.174 121.694C210.373 121.524 210.594 121.392 210.835 121.3C211.077 121.2 211.322 121.151 211.571 121.151ZM217.608 126.747C217.061 126.747 216.577 126.629 216.158 126.395C215.739 126.16 215.412 125.834 215.178 125.414C214.943 124.995 214.826 124.505 214.826 123.943C214.826 123.339 214.943 122.824 215.178 122.398C215.419 121.971 215.728 121.644 216.105 121.417C216.489 121.183 216.894 121.065 217.32 121.065C217.633 121.065 217.935 121.122 218.226 121.236C218.525 121.342 218.787 121.506 219.015 121.726C219.249 121.939 219.434 122.202 219.569 122.515C219.711 122.828 219.789 123.19 219.804 123.602C219.797 123.687 219.761 123.762 219.697 123.826C219.633 123.883 219.559 123.911 219.473 123.911H215.199L215.071 123.336H219.271L219.132 123.464V123.25C219.104 122.916 218.997 122.632 218.812 122.398C218.628 122.163 218.404 121.986 218.141 121.865C217.878 121.744 217.604 121.684 217.32 121.684C217.107 121.684 216.887 121.726 216.659 121.811C216.439 121.897 216.236 122.032 216.052 122.217C215.874 122.394 215.728 122.625 215.615 122.909C215.501 123.187 215.444 123.517 215.444 123.901C215.444 124.32 215.529 124.7 215.7 125.041C215.87 125.382 216.116 125.652 216.435 125.851C216.762 126.05 217.149 126.15 217.597 126.15C217.846 126.15 218.07 126.114 218.269 126.043C218.468 125.972 218.642 125.88 218.791 125.766C218.94 125.645 219.065 125.521 219.164 125.393C219.242 125.329 219.32 125.297 219.399 125.297C219.47 125.297 219.53 125.325 219.58 125.382C219.637 125.439 219.665 125.503 219.665 125.574C219.665 125.659 219.63 125.734 219.559 125.798C219.345 126.054 219.068 126.278 218.727 126.47C218.386 126.654 218.013 126.747 217.608 126.747ZM221.492 126.64C221.393 126.64 221.315 126.608 221.258 126.544C221.201 126.48 221.173 126.406 221.173 126.32V121.545C221.173 121.46 221.201 121.385 221.258 121.321C221.322 121.257 221.4 121.225 221.492 121.225C221.585 121.225 221.659 121.257 221.716 121.321C221.78 121.385 221.812 121.46 221.812 121.545V123.144L221.652 123.176C221.674 122.927 221.734 122.682 221.834 122.44C221.94 122.192 222.082 121.964 222.26 121.758C222.438 121.552 222.647 121.385 222.889 121.257C223.138 121.129 223.415 121.065 223.72 121.065C223.848 121.065 223.973 121.094 224.093 121.151C224.214 121.2 224.275 121.286 224.275 121.406C224.275 121.513 224.246 121.595 224.189 121.652C224.132 121.708 224.065 121.737 223.987 121.737C223.923 121.737 223.852 121.719 223.774 121.684C223.702 121.648 223.607 121.63 223.486 121.63C223.287 121.63 223.088 121.691 222.889 121.811C222.69 121.925 222.509 122.081 222.345 122.28C222.182 122.479 222.05 122.703 221.951 122.952C221.858 123.194 221.812 123.439 221.812 123.687V126.32C221.812 126.406 221.78 126.48 221.716 126.544C221.652 126.608 221.578 126.64 221.492 126.64ZM227.497 126.747C226.95 126.747 226.466 126.629 226.047 126.395C225.628 126.16 225.301 125.834 225.067 125.414C224.832 124.995 224.715 124.505 224.715 123.943C224.715 123.339 224.832 122.824 225.067 122.398C225.308 121.971 225.617 121.644 225.994 121.417C226.378 121.183 226.783 121.065 227.209 121.065C227.522 121.065 227.824 121.122 228.115 121.236C228.414 121.342 228.677 121.506 228.904 121.726C229.138 121.939 229.323 122.202 229.458 122.515C229.6 122.828 229.679 123.19 229.693 123.602C229.686 123.687 229.65 123.762 229.586 123.826C229.522 123.883 229.448 123.911 229.362 123.911H225.088L224.96 123.336H229.16L229.021 123.464V123.25C228.993 122.916 228.886 122.632 228.701 122.398C228.517 122.163 228.293 121.986 228.03 121.865C227.767 121.744 227.493 121.684 227.209 121.684C226.996 121.684 226.776 121.726 226.548 121.811C226.328 121.897 226.125 122.032 225.941 122.217C225.763 122.394 225.617 122.625 225.504 122.909C225.39 123.187 225.333 123.517 225.333 123.901C225.333 124.32 225.418 124.7 225.589 125.041C225.759 125.382 226.005 125.652 226.324 125.851C226.651 126.05 227.039 126.15 227.486 126.15C227.735 126.15 227.959 126.114 228.158 126.043C228.357 125.972 228.531 125.88 228.68 125.766C228.829 125.645 228.954 125.521 229.053 125.393C229.131 125.329 229.21 125.297 229.288 125.297C229.359 125.297 229.419 125.325 229.469 125.382C229.526 125.439 229.554 125.503 229.554 125.574C229.554 125.659 229.519 125.734 229.448 125.798C229.234 126.054 228.957 126.278 228.616 126.47C228.275 126.654 227.902 126.747 227.497 126.747Z" fill="white"/>
<path d="M268.482 14.2515C268.321 13.4916 268.095 12.7466 267.826 12.0193C267.579 11.2854 267.277 10.5701 266.938 9.87475C266.261 8.48262 265.39 7.19141 264.354 6.05159C263.346 4.88282 262.075 3.95598 260.695 3.27549C260.343 3.11966 260 2.93562 259.638 2.80205L258.529 2.46366C258.165 2.32341 257.781 2.26776 257.398 2.20468L256.249 2.00729C257.803 1.98874 259.438 2.14457 260.913 2.82209C262.41 3.42168 263.755 4.41012 264.858 5.58928C265.945 6.78847 266.802 8.17614 267.432 9.63951C267.726 10.3823 267.978 11.137 268.173 11.9036C268.34 12.6783 268.489 13.4567 268.502 14.2485L268.482 14.2515Z" fill="white"/>
<path d="M219.918 221.092L29.9468 222.081L3.4793 214.907C3.4793 214.907 2.49011 200.561 11.1471 193.634C29.9461 186.461 46.0246 181.266 46.0246 181.266L186.029 186.956L210.023 193.634C210.023 193.634 219.423 222.081 219.918 221.092Z" fill="#14223F"/>
<path d="M207.651 226.226C211.209 216.255 206.01 205.287 196.039 201.728C186.068 198.17 175.1 203.369 171.542 213.34C167.984 223.311 173.182 234.279 183.153 237.837C193.124 241.395 204.092 236.197 207.651 226.226Z" fill="#1C1C1C"/>
<path d="M189.605 233.042C196.931 233.042 202.869 227.103 202.869 219.778C202.869 212.452 196.931 206.513 189.605 206.513C182.279 206.513 176.34 212.452 176.34 219.778C176.34 227.103 182.279 233.042 189.605 233.042Z" fill="#969696"/>
<path d="M199.685 223.383C201.68 217.803 198.773 211.664 193.194 209.669C187.615 207.675 181.475 210.581 179.48 216.16C177.486 221.739 180.392 227.879 185.971 229.874C191.551 231.868 197.691 228.962 199.685 223.383Z" stroke="#2D2D2D" stroke-width="0.742073" stroke-miterlimit="10"/>
<path d="M187.224 219.778C187.224 221.092 188.29 222.158 189.605 222.158C190.92 222.158 191.985 221.092 191.985 219.778C191.985 218.463 190.92 217.397 189.605 217.397C188.29 217.397 187.224 218.463 187.224 219.778Z" fill="#CECECE"/>
<path d="M189.605 228.636C191.21 228.636 192.511 227.833 192.511 226.843C192.511 225.852 191.21 225.049 189.605 225.049C187.999 225.049 186.698 225.852 186.698 226.843C186.698 227.833 187.999 228.636 189.605 228.636Z" fill="#2D2D2D"/>
<path d="M189.605 214.722C191.21 214.722 192.511 213.919 192.511 212.929C192.511 211.938 191.21 211.135 189.605 211.135C187.999 211.135 186.698 211.938 186.698 212.929C186.698 213.919 187.999 214.722 189.605 214.722Z" fill="#2D2D2D"/>
<path d="M182.555 222.683C183.546 222.683 184.349 221.382 184.349 219.777C184.349 218.171 183.546 216.87 182.555 216.87C181.564 216.87 180.761 218.171 180.761 219.777C180.761 221.382 181.564 222.683 182.555 222.683Z" fill="#2D2D2D"/>
<path d="M197.025 222.683C198.016 222.683 198.819 221.382 198.819 219.777C198.819 218.171 198.016 216.87 197.025 216.87C196.035 216.87 195.232 218.171 195.232 219.777C195.232 221.382 196.035 222.683 197.025 222.683Z" fill="#2D2D2D"/>
<path d="M44.5805 225.667C47.8297 215.592 42.2956 204.789 32.2197 201.54C22.1438 198.291 11.3416 203.825 8.09237 213.901C4.84313 223.977 10.3772 234.779 20.4532 238.028C30.5291 241.278 41.3313 235.743 44.5805 225.667Z" fill="#1C1C1C"/>
<path d="M26.3485 233.042C33.6743 233.042 39.613 227.103 39.613 219.778C39.613 212.452 33.6743 206.513 26.3485 206.513C19.0226 206.513 13.0839 212.452 13.0839 219.778C13.0839 227.103 19.0226 233.042 26.3485 233.042Z" fill="#969696"/>
<path d="M36.5648 223.087C38.3862 217.448 35.2918 211.4 29.6532 209.579C24.0146 207.758 17.967 210.852 16.1455 216.491C14.3241 222.129 17.4185 228.177 23.0571 229.998C28.6957 231.82 34.7433 228.725 36.5648 223.087Z" stroke="#2D2D2D" stroke-width="0.742073" stroke-miterlimit="10"/>
<path d="M23.968 219.778C23.968 221.092 25.0336 222.158 26.3486 222.158C27.6635 222.158 28.7291 221.092 28.7291 219.778C28.7291 218.463 27.6635 217.397 26.3486 217.397C25.0336 217.396 23.968 218.463 23.968 219.778Z" fill="#CECECE"/>
<path d="M26.3486 228.637C27.954 228.637 29.2553 227.833 29.2553 226.843C29.2553 225.852 27.954 225.049 26.3486 225.049C24.7433 225.049 23.4419 225.852 23.4419 226.843C23.4419 227.833 24.7433 228.637 26.3486 228.637Z" fill="#2D2D2D"/>
<path d="M26.3486 214.723C27.954 214.723 29.2553 213.92 29.2553 212.929C29.2553 211.939 27.954 211.135 26.3486 211.135C24.7433 211.135 23.4419 211.939 23.4419 212.929C23.4419 213.92 24.7433 214.723 26.3486 214.723Z" fill="#2D2D2D"/>
<path d="M19.2988 222.684C20.2895 222.684 21.0924 221.382 21.0924 219.777C21.0924 218.172 20.2895 216.87 19.2988 216.87C18.3082 216.87 17.5052 218.172 17.5052 219.777C17.5052 221.383 18.3082 222.684 19.2988 222.684Z" fill="#2D2D2D"/>
<path d="M33.7692 222.684C34.7599 222.684 35.5628 221.382 35.5628 219.777C35.5628 218.172 34.7599 216.87 33.7692 216.87C32.7785 216.87 31.9756 218.172 31.9756 219.777C31.9756 221.383 32.7785 222.684 33.7692 222.684Z" fill="#2D2D2D"/>
<path d="M1.25089 191.901V218.126L4.96125 220.352C4.96125 220.352 3.97429 199.322 19.5578 197.348C35.1414 195.366 42.0649 199.574 46.5174 209.221C50.9698 218.868 49.2408 226.533 49.2408 226.533H167.498C167.164 224.819 166.986 223.038 166.986 221.213C166.986 207.21 177.337 195.864 190.109 195.864C202.887 195.864 213.239 207.21 213.239 221.213C213.239 222.615 213.135 223.996 212.927 225.339L214.723 225.294C214.723 225.294 224.37 225.546 228.325 223.565C232.288 221.584 236.985 217.131 229.565 197.095C229.186 196.064 228.756 195.077 228.288 194.127C226.463 190.417 224.021 187.33 221.305 184.762C211.228 175.204 179.438 171.627 179.438 171.627L179.348 171.62C179.348 171.62 164.314 158.374 127.811 145.788C126.001 145.165 124.131 144.542 122.209 143.918C81.6471 130.806 23.2682 145.647 23.2682 144.905C23.2682 144.163 21.5392 152.326 21.5392 152.326C21.0939 152.86 20.6487 153.424 20.2034 154.011C15.5803 160.044 10.8904 168.451 7.87018 177.928C6.85354 181.081 6.02984 184.354 5.45844 187.701C4.21918 189.556 1.89649 190.187 1.25089 191.901Z" fill="#0D3688"/>
<path d="M1.25089 218.126C1.93285 220.16 3.2248 220.774 4.96125 220.352" stroke="#CECECE" stroke-width="0.742073" stroke-miterlimit="10"/>
<path d="M155.357 177.556L92.5282 171.867L89.9101 149.916C89.5895 147.229 91.7423 144.885 94.4464 144.993C109.226 145.579 151.088 149.705 155.357 177.556Z" fill="#050505"/>
<path d="M85.7879 172.362C85.7879 172.362 60.9285 172.362 48.8698 168.095C36.8111 163.828 36.4401 155.294 36.4401 153.996C36.4401 152.697 34.9559 143.792 83.7472 143.607" fill="#14223F"/>
<path d="M78.9237 149.605V164.694C78.9237 164.694 78.6766 168.404 71.7501 168.404C64.8243 168.404 46.5196 165.683 42.5621 161.725C38.6046 157.768 38.8695 151.773 42.8092 149.852C46.7503 147.931 65.8446 146.389 72.6161 145.925C73.8219 145.833 78.7382 144.998 78.9237 149.605Z" fill="#050505"/>
<path d="M162.531 179.536C163.026 179.536 169.21 176.938 170.199 176.567C171.188 176.196 170.694 175.083 168.591 173.352C166.488 171.621 161.541 167.292 161.294 167.91C161.047 168.529 161.418 176.568 161.418 177.31C161.418 178.052 161.047 179.536 162.531 179.536Z" fill="#14223F"/>
<path d="M161.418 170.26C162.251 173.496 157.584 175.207 155.11 175.083C152.637 174.959 147.442 173.97 147.813 169.518C148.184 165.065 159.315 162.097 161.418 170.26Z" fill="#14223F"/>
<path opacity="0.35" d="M156.934 166.425C155.606 166.375 154.367 166.652 153.217 167.256C152.021 167.645 150.986 168.31 150.112 169.251C149.284 170.021 148.682 170.922 148.281 171.942C147.924 171.275 147.732 170.482 147.812 169.517C148.113 165.909 155.483 163.277 159.384 166.755L156.934 166.425Z" fill="#0D3688"/>
<path d="M165.344 175.083C165.1 176.547 156.068 178.794 154.337 174.959C152.606 171.125 159.036 173.846 159.036 173.846C159.036 173.846 165.592 173.599 165.344 175.083Z" fill="#14223F"/>
<path d="M235.13 205.755C235.504 208.936 233.089 210.95 229.75 211.135C226.411 211.321 225.112 211.135 225.112 211.135L221.587 201.489H231.234C231.234 201.489 234.759 202.602 235.13 205.755Z" fill="#050505"/>
<path d="M7.87021 177.928H24.3813C23.7632 168.574 24.4496 158.689 26.051 148.43C26.051 148.43 23.387 150.924 20.2035 154.011C15.5803 160.044 10.8904 168.451 7.87021 177.928Z" fill="#FF7224"/>
<path d="M207.799 185.222C205.736 185.389 207.872 188.352 214.226 194.127H228.288C226.463 190.417 224.021 187.33 221.305 184.762L207.799 185.222Z" fill="#FF7224"/>
<path d="M126.543 146.76L135.321 149.358C135.321 149.358 140.214 151.719 141.258 152.081C148.122 154.459 161.049 162.344 161.049 162.344C161.049 162.344 171.186 169.891 173.412 171.494C175.638 173.104 176.38 172.607 176.38 172.607L179.438 171.627L179.348 171.62C179.348 171.62 164.314 158.374 127.811 145.788L126.543 146.76Z" fill="#050505"/>
<path d="M26.2364 144.72C26.2364 144.72 22.4377 169.823 25.4372 191.982" stroke="#2254BA" stroke-width="0.742073" stroke-miterlimit="10"/>
<path d="M84.1182 138.598C84.1182 138.598 88.3851 190.914 87.272 216.33" stroke="#2254BA" stroke-width="0.742073" stroke-miterlimit="10"/>
<path d="M45.0353 198.334L163.334 202.23" stroke="#2254BA" stroke-width="0.742073" stroke-miterlimit="10"/>
<path d="M179.348 171.62L174.837 172.918C174.837 172.918 142.185 140.453 84.1182 140.638C51.7564 140.742 32.648 145.573 22.0734 149.825" stroke="#2254BA" stroke-width="0.742073" stroke-miterlimit="10"/>
<path d="M174.775 172.733C189.864 173.514 204.582 182.887 207.055 185.101" stroke="#2254BA" stroke-width="0.742073" stroke-miterlimit="10"/>
<path d="M163.335 179.041C163.335 179.041 165.932 200.19 160.181 216.33H54.2498C54.2498 216.33 53.3222 192.213 24.3813 192.027C13.2799 191.953 6.00758 195.047 1.25089 198.891" stroke="#2254BA" stroke-width="0.742073" stroke-miterlimit="10"/>
<path d="M151.647 175.376L102.509 170.989C98.8825 170.666 96.0107 167.785 95.699 164.157L94.2594 147.425C94.2594 147.425 103.907 166.719 151.647 175.376Z" fill="#1C1C1C"/>
<path d="M73.2342 166.224C73.2342 166.224 52.7032 164.987 47.5087 162.267C42.3142 159.546 43.5512 151.631 43.5512 151.631L73.2342 166.224Z" fill="#1C1C1C"/>
<path d="M155.11 180.324L93.5181 175.129L155.357 186.013L155.11 180.324Z" fill="#2254BA"/>
<path d="M360.41 239.721C356.205 240.23 352 240.496 347.795 240.671C345.692 240.782 343.589 240.801 341.487 240.871L335.179 240.923C330.974 240.899 326.769 240.843 322.564 240.65C318.359 240.471 314.154 240.213 309.949 239.721C309.795 239.703 309.685 239.564 309.703 239.41C309.719 239.279 309.823 239.179 309.949 239.164C314.154 238.672 318.359 238.414 322.564 238.235C326.769 238.043 330.974 237.987 335.179 237.962L341.487 238.014C343.589 238.084 345.692 238.103 347.795 238.214C352 238.39 356.205 238.655 360.41 239.164C360.563 239.183 360.673 239.322 360.655 239.476C360.639 239.607 360.535 239.705 360.41 239.721Z" fill="#474747"/>
<path d="M350.645 79.6786C350.645 79.6786 341.425 77.4227 331.94 79.9814C329.428 81.5657 339.384 98.0768 339.384 98.0768L351.381 95.6035L351.01 80.2671" fill="#1C1C1C"/>
<path d="M353.855 83.3104C353.855 83.3104 344.579 77.7449 329.862 83.0633C315.144 88.3817 352.124 91.4732 352.124 91.4732L353.855 83.3104Z" fill="#E6B0A5"/>
<path d="M339.815 74.6555V86.0315L344.023 86.5287V74.6555H339.815Z" fill="#E6B0A5"/>
<path d="M339.815 75.4717V77.7424L343.377 76.0728L339.815 75.4717Z" fill="#E68673"/>
<path d="M343.711 141.484C343.418 140.934 343.327 139.851 343.362 140.124V140.045L343.375 140.158L343.396 140.532L343.43 141.378L343.479 143.145L343.552 146.732L343.66 153.942L343.822 168.386L344.066 197.292L344.08 197.113L341.09 237.693L341.087 237.732C341.068 237.996 341.266 238.225 341.529 238.244L341.54 238.245L344.959 238.416C345.164 238.426 345.338 238.268 345.349 238.063C345.358 237.868 345.214 237.7 345.024 237.677L341.626 237.256L342.077 237.808L348.51 197.631L348.523 197.452L350.741 168.613L351.811 154.183L352.32 146.954L352.556 143.32L352.662 141.476L352.706 140.517L352.72 139.988V139.65L352.706 139.346C352.74 139.544 352.632 138.387 352.327 137.763C351.299 135.383 348.537 134.288 346.158 135.316C343.778 136.342 342.683 139.104 343.711 141.484Z" fill="#E6B0A5"/>
<path d="M328.549 137.481C328.461 137.767 328.378 138.058 328.303 138.348L328.193 138.786L328.147 138.987L328.123 139.106L327.934 140.063L327.564 141.964L326.842 145.74L325.416 153.28L322.586 168.353L316.96 198.502L316.927 198.681C316.883 198.912 316.892 199.149 316.94 199.365C317.74 202.872 318.628 206.315 319.522 209.757L322.22 220.057C323.111 223.488 323.996 226.919 324.781 230.361C325.165 232.08 325.548 233.812 325.773 235.528C325.824 235.953 325.866 236.387 325.855 236.777C325.852 236.874 325.843 236.963 325.831 237.041L325.821 237.088L325.817 237.113C325.819 237.102 325.834 237.069 325.848 237.052C325.877 237.014 325.863 237.04 325.834 237.058C325.715 237.144 325.513 237.242 325.325 237.327C324.547 237.668 323.702 237.954 322.872 238.222L322.866 238.224C322.671 238.287 322.564 238.496 322.627 238.691C322.689 238.882 322.891 238.988 323.081 238.934C323.947 238.687 324.795 238.437 325.655 238.099C325.873 238.007 326.08 237.927 326.329 237.765C326.392 237.721 326.464 237.675 326.561 237.55C326.589 237.51 326.619 237.453 326.633 237.417L326.652 237.362L326.688 237.25C326.725 237.11 326.748 236.98 326.763 236.856C326.819 236.362 326.81 235.907 326.797 235.45C326.719 233.632 326.485 231.866 326.251 230.095C325.765 226.562 325.181 223.054 324.593 219.55L322.806 209.055C322.22 205.563 321.639 202.067 321.162 198.599L321.142 199.462L329.249 169.891L337.213 141.09L337.489 140.09C338.175 137.611 336.721 135.045 334.241 134.36C331.808 133.685 329.288 135.083 328.549 137.481Z" fill="#E6B0A5"/>
<path d="M352.706 140.515L352.72 139.986V139.648L352.706 139.344C352.74 139.542 352.632 138.385 352.328 137.761C351.3 135.382 348.538 134.286 346.158 135.314C344.156 136.179 343.068 138.272 343.384 140.332L343.396 140.533L343.43 141.379L343.479 143.146L343.551 146.732L343.659 153.942L343.821 168.387L344.066 197.293L344.079 197.114L342.987 211.94C344.051 212.029 345.11 212.136 346.167 212.256L348.509 197.63L348.523 197.451L350.741 168.613L351.811 154.183L352.32 146.953L352.556 143.319L352.662 141.476L352.706 140.515ZM343.374 140.158L343.383 140.31C343.354 140.118 343.348 140.018 343.362 140.124V140.045L343.374 140.158ZM343.711 141.484C343.593 141.262 343.509 140.957 343.452 140.685C343.514 140.954 343.597 141.221 343.711 141.484Z" fill="#14223F"/>
<path d="M341.218 235.959L341.92 236.053C342.069 236.059 342.212 236.045 342.359 236.043L342.154 237.32L345.023 237.676C345.214 237.7 345.358 237.867 345.348 238.062C345.338 238.267 345.163 238.425 344.958 238.415L341.54 238.244L341.528 238.243C341.265 238.224 341.067 237.995 341.086 237.731L341.089 237.692L341.218 235.959Z" fill="#14223F"/>
<path d="M337.214 141.089L329.25 169.89L321.239 199.11C321.702 202.411 322.249 205.733 322.807 209.055L323.258 211.706C322.194 211.751 321.133 211.8 320.071 211.855L319.522 209.757C318.628 206.315 317.741 202.872 316.94 199.365C316.892 199.149 316.883 198.911 316.927 198.68L316.96 198.502L322.586 168.353L325.416 153.28L326.842 145.739L327.564 141.964L327.934 140.063L328.123 139.106L328.147 138.987L328.193 138.785L328.303 138.348C328.378 138.058 328.461 137.768 328.549 137.481C329.288 135.083 331.808 133.685 334.243 134.359C336.722 135.045 338.177 137.61 337.491 140.089L337.214 141.089Z" fill="#14223F"/>
<path d="M322.867 238.223L322.873 238.221C323.702 237.953 324.548 237.668 325.326 237.326C325.511 237.243 325.708 237.147 325.828 237.061L325.832 237.041C325.844 236.963 325.853 236.874 325.856 236.777C325.864 236.47 325.836 236.136 325.8 235.801L325.842 235.806C326.168 235.818 326.487 235.81 326.801 235.783C326.807 236.131 326.806 236.482 326.763 236.856C326.749 236.98 326.726 237.11 326.689 237.25L326.653 237.362L326.634 237.417C326.619 237.453 326.59 237.51 326.562 237.55C326.465 237.675 326.392 237.721 326.33 237.765C326.081 237.926 325.874 238.007 325.656 238.099C324.796 238.438 323.949 238.688 323.082 238.934C322.891 238.988 322.689 238.882 322.628 238.691C322.565 238.496 322.672 238.286 322.867 238.223Z" fill="#14223F"/>
<path d="M319.824 96.7612L323.808 119.053L326.539 134.31C327.534 139.868 332.365 143.913 338.004 143.913H343.963C349.506 143.913 354.278 140.009 355.384 134.585L358.537 119.053L363.012 97.0357C364.326 90.579 360.05 84.4954 353.86 83.2814C348.243 86.0768 332.056 85.2887 329.407 83.2124C323.112 84.2283 318.653 90.2547 319.824 96.7612Z" fill="#FF7224"/>
<path d="M323.809 119.054L326.539 134.311C327.534 139.869 332.365 143.913 338.004 143.913H343.963C349.507 143.913 354.278 140.01 355.384 134.585L358.538 119.054H323.809Z" fill="#14223F"/>
<path d="M340.869 143.665V119.054" stroke="#0D3688" stroke-width="0.742073" stroke-miterlimit="10"/>
<path d="M338.086 119.115C338.086 119.115 338.148 132.349 338.148 134.884C338.148 137.42 340.992 137.543 340.992 137.543" stroke="#0D3688" stroke-width="0.742073" stroke-miterlimit="10"/>
<path d="M358.184 121.342H324.419" stroke="#0D3688" stroke-width="0.742073" stroke-miterlimit="10"/>
<path d="M329.862 121.218C329.862 121.403 329.243 126.35 325.471 126.35" stroke="#0D3688" stroke-width="0.742073" stroke-miterlimit="10"/>
<path d="M352.618 121.465C352.618 121.465 352.185 126.474 356.514 126.474" stroke="#0D3688" stroke-width="0.742073" stroke-miterlimit="10"/>
<path d="M359.792 130.234H350.392L350.763 81.752C350.763 81.752 356.328 83.2361 359.421 85.9573C362.513 88.6785 364.12 93.5019 364.12 93.5019L359.668 129.74" fill="#1C1C1C"/>
<path d="M322.935 130.234H332.335L331.964 81.752C331.964 81.752 326.398 83.2361 323.306 85.9573C320.215 88.6777 318.607 93.5012 318.607 93.5012L323.059 129.739" fill="#1C1C1C"/>
<path d="M362.142 100.18H351.629" stroke="#333333" stroke-width="0.742073" stroke-miterlimit="10"/>
<path d="M331.098 100.304H322.193" stroke="#333333" stroke-width="0.742073" stroke-miterlimit="10"/>
<path d="M356.699 100.551L355.339 129.863" stroke="#333333" stroke-width="0.742073" stroke-miterlimit="10"/>
<path d="M327.264 100.551L328.254 129.987" stroke="#333333" stroke-width="0.742073" stroke-miterlimit="10"/>
<path d="M360.039 124.297L356.081 119.598" stroke="#333333" stroke-width="0.742073" stroke-miterlimit="10"/>
<path d="M328.13 120.092L323.306 125.163" stroke="#333333" stroke-width="0.742073" stroke-miterlimit="10"/>
<path d="M355.24 93.8522C355.815 94.3828 356.495 95.2814 357.111 96.2231C357.741 97.1737 358.363 98.2037 358.972 99.2612C360.179 101.385 361.276 103.642 362.362 105.917C362.902 107.057 363.43 108.208 363.948 109.364C364.444 110.528 364.925 111.699 365.396 112.873C366.331 115.216 367.239 117.602 367.998 119.916C368.184 120.486 368.361 121.065 368.494 121.549L368.58 121.854C368.607 121.909 368.613 122.016 368.652 121.799C368.665 121.742 368.682 121.639 368.74 121.457L368.809 121.264C368.836 121.199 368.86 121.14 368.928 121.005L369.023 120.837L369.158 120.636C369.295 120.451 369.421 120.314 369.622 120.14C369.725 120.053 369.836 119.972 369.951 119.9C370.057 119.832 370.214 119.756 370.265 119.733C370.412 119.664 370.568 119.61 370.724 119.571C370.826 119.545 370.906 119.529 370.999 119.516C371.105 119.502 371.161 119.499 371.204 119.496L371.357 119.494L371.449 119.498C371.513 119.503 371.559 119.51 371.58 119.514C371.801 119.564 371.68 119.574 371.618 119.572C371.228 119.553 370.599 119.392 370.037 119.218C369.45 119.055 368.869 118.83 368.281 118.61C367.103 118.173 365.929 117.681 364.758 117.177C363.586 116.676 362.387 116.218 361.203 115.724L353.977 112.965L350.368 111.554L346.73 110.192L346.686 110.175C346.494 110.103 346.282 110.2 346.21 110.392C346.144 110.568 346.222 110.763 346.385 110.848C350.943 113.241 355.517 115.598 360.129 117.889C362.436 119.031 364.75 120.162 367.102 121.226C368.288 121.748 369.447 122.285 370.73 122.683C370.897 122.729 371.059 122.775 371.268 122.797C371.32 122.802 371.377 122.806 371.451 122.8C371.524 122.788 371.612 122.801 371.777 122.678C372.005 122.425 371.95 122.329 371.985 122.219C372.022 121.819 371.982 121.506 371.95 121.17C371.876 120.513 371.767 119.874 371.649 119.237C370.652 114.159 369.283 109.192 367.794 104.256C367.039 101.792 366.237 99.3406 365.347 96.9162C364.443 94.4978 363.506 92.0853 362.214 89.8027L361.638 88.7838C360.514 86.798 357.994 86.0997 356.009 87.2232C354.023 88.3467 353.324 90.8668 354.448 92.8526C354.662 93.2289 354.94 93.5717 355.24 93.8522Z" fill="#FF7224"/>
<path d="M346.382 110.846C350.946 113.243 355.517 115.596 360.126 117.889C362.433 119.031 364.749 120.159 367.101 121.228C367.598 121.443 368.088 121.666 368.585 121.874C368.607 121.918 368.615 121.955 368.63 121.896C369.305 122.185 369.995 122.452 370.73 122.682C370.9 122.727 371.056 122.771 371.272 122.794C371.323 122.801 371.375 122.809 371.45 122.801C371.524 122.786 371.613 122.801 371.776 122.675C372.006 122.423 371.947 122.326 371.984 122.222C372.021 121.822 371.984 121.503 371.954 121.169C371.895 120.627 371.806 120.093 371.709 119.558C371.709 119.573 371.657 119.573 371.62 119.573C371.479 119.566 371.309 119.536 371.116 119.506C371.153 119.499 371.182 119.499 371.205 119.499L371.361 119.492L371.45 119.499C371.516 119.499 371.561 119.506 371.583 119.514C371.657 119.529 371.687 119.543 371.702 119.551C371.687 119.447 371.672 119.343 371.65 119.239C370.656 114.156 369.283 109.192 367.799 104.257C367.465 103.159 367.116 102.068 366.76 100.977C365.142 101.912 363.138 103.025 361.417 103.967C361.736 104.613 362.048 105.266 362.359 105.919C362.901 107.054 363.428 108.205 363.947 109.362C364.444 110.527 364.927 111.7 365.394 112.872C366.114 114.675 366.819 116.494 367.45 118.297C366.552 117.941 365.654 117.562 364.756 117.176C363.584 116.679 362.389 116.219 361.202 115.722L353.974 112.961L350.367 111.551L346.731 110.193L346.687 110.179C346.494 110.104 346.286 110.201 346.212 110.394C346.145 110.564 346.219 110.764 346.382 110.846Z" fill="#E6B0A5"/>
<path d="M367.263 118.21C367.322 118.233 367.382 118.257 367.441 118.28C367.418 118.215 367.396 118.149 367.373 118.084C367.122 117.372 366.858 116.659 366.588 115.945C366.486 115.673 366.383 115.401 366.279 115.13C365.989 114.376 365.695 113.622 365.395 112.871C364.999 111.878 364.586 110.887 364.169 109.898C364.094 109.721 364.024 109.541 363.949 109.364C363.912 109.281 363.872 109.2 363.835 109.117C363.351 108.042 362.863 106.973 362.36 105.918C362.048 105.265 361.737 104.612 361.418 103.967C361.419 103.966 361.42 103.965 361.421 103.965C360.637 102.357 359.833 100.774 358.972 99.2605C358.364 98.2038 357.742 97.1731 357.111 96.2232C356.495 95.2815 355.816 94.3829 355.241 93.8523C354.94 93.5718 354.662 93.2289 354.449 92.852C353.325 90.8662 354.024 88.3461 356.009 87.2226C357.995 86.0991 360.515 86.7981 361.639 88.7832L362.215 89.802C363.507 92.0847 364.444 94.4979 365.348 96.9156C365.842 98.2624 366.305 99.6189 366.752 100.98C366.755 100.978 366.758 100.977 366.76 100.975C367.116 102.066 367.465 103.157 367.799 104.255C369.258 109.109 370.606 113.992 371.597 118.988C371.613 119.071 371.634 119.153 371.65 119.236C371.67 119.343 371.687 119.452 371.706 119.558L371.71 119.557C371.807 120.091 371.896 120.626 371.955 121.167C371.966 121.287 371.974 121.409 371.983 121.531C370.898 120.001 369.323 118.815 367.276 118.244C367.27 118.233 367.267 118.222 367.263 118.21Z" fill="#1C1C1C"/>
<path d="M371.692 119.547C371.688 119.544 371.682 119.543 371.677 119.54C371.657 119.532 371.631 119.524 371.584 119.514C371.562 119.507 371.517 119.499 371.45 119.499L371.407 119.495L371.358 119.493L371.313 119.494L371.206 119.499C371.191 119.499 371.167 119.502 371.145 119.504C371.191 119.513 371.24 119.525 371.283 119.533C371.286 119.533 371.289 119.533 371.292 119.534C371.413 119.554 371.523 119.567 371.619 119.573C371.646 119.573 371.68 119.57 371.697 119.564C371.699 119.563 371.704 119.563 371.705 119.561C371.708 119.557 371.702 119.552 371.692 119.547Z" fill="#1C1C1C"/>
<path d="M327.513 93.8522C326.939 94.3828 326.259 95.2814 325.643 96.2231C325.012 97.1737 324.39 98.2037 323.782 99.2612C322.575 101.385 321.478 103.642 320.391 105.917C319.852 107.057 319.323 108.208 318.806 109.364C318.309 110.528 317.828 111.699 317.358 112.873C316.423 115.216 315.514 117.602 314.755 119.916C314.569 120.486 314.392 121.065 314.26 121.549L314.173 121.854C314.147 121.909 314.141 122.016 314.102 121.799C314.088 121.742 314.072 121.639 314.013 121.457L313.945 121.264C313.917 121.199 313.893 121.14 313.825 121.005L313.73 120.837L313.595 120.636C313.459 120.451 313.333 120.314 313.132 120.14C313.028 120.053 312.917 119.972 312.801 119.9C312.695 119.832 312.539 119.756 312.488 119.733C312.341 119.664 312.185 119.61 312.029 119.571C311.927 119.545 311.847 119.529 311.754 119.516C311.648 119.502 311.592 119.499 311.549 119.496L311.396 119.494L311.304 119.498C311.239 119.503 311.194 119.51 311.173 119.514C310.951 119.564 311.072 119.574 311.135 119.572C311.524 119.553 312.154 119.392 312.717 119.218C313.303 119.055 313.885 118.83 314.473 118.61C315.651 118.173 316.825 117.681 317.995 117.177C319.168 116.676 320.366 116.218 321.55 115.724L328.777 112.965L332.385 111.554L336.023 110.192L336.068 110.175C336.26 110.103 336.472 110.2 336.544 110.392C336.61 110.568 336.532 110.763 336.37 110.848C331.811 113.241 327.237 115.598 322.626 117.889C320.318 119.031 318.004 120.162 315.652 121.226C314.467 121.748 313.307 122.285 312.024 122.683C311.857 122.729 311.696 122.775 311.487 122.797C311.435 122.802 311.378 122.806 311.304 122.8C311.231 122.788 311.143 122.801 310.978 122.678C310.75 122.425 310.805 122.329 310.77 122.219C310.732 121.819 310.773 121.506 310.804 121.17C310.879 120.513 310.988 119.874 311.106 119.237C312.103 114.159 313.472 109.192 314.961 104.256C315.716 101.792 316.518 99.3406 317.408 96.9162C318.312 94.4978 319.249 92.0853 320.54 89.8027L321.117 88.7838C322.241 86.798 324.761 86.0997 326.746 87.2232C328.732 88.3467 329.431 90.8668 328.307 92.8526C328.092 93.2289 327.814 93.5717 327.513 93.8522Z" fill="#FF7224"/>
<path d="M336.371 110.846C331.807 113.243 327.236 115.596 322.628 117.889C320.32 119.031 318.005 120.159 315.652 121.228C315.155 121.443 314.665 121.666 314.168 121.874C314.146 121.918 314.139 121.955 314.124 121.896C313.448 122.185 312.758 122.452 312.024 122.682C311.853 122.727 311.697 122.771 311.482 122.794C311.43 122.801 311.378 122.809 311.304 122.801C311.23 122.786 311.141 122.801 310.977 122.675C310.747 122.423 310.807 122.326 310.77 122.222C310.732 121.822 310.77 121.503 310.799 121.169C310.859 120.627 310.948 120.093 311.044 119.558C311.044 119.573 311.096 119.573 311.133 119.573C311.274 119.566 311.445 119.536 311.638 119.506C311.601 119.499 311.571 119.499 311.549 119.499L311.393 119.492L311.304 119.499C311.237 119.499 311.193 119.506 311.17 119.514C311.096 119.529 311.066 119.543 311.052 119.551C311.066 119.447 311.081 119.343 311.104 119.239C312.098 114.156 313.471 109.192 314.955 104.257C315.289 103.159 315.638 102.068 315.994 100.977C317.611 101.912 319.615 103.025 321.337 103.967C321.018 104.613 320.706 105.266 320.394 105.919C319.853 107.054 319.326 108.205 318.806 109.362C318.309 110.527 317.827 111.7 317.359 112.872C316.639 114.675 315.934 116.494 315.304 118.297C316.202 117.941 317.099 117.562 317.997 117.176C319.17 116.679 320.365 116.219 321.552 115.722L328.78 112.961L332.386 111.551L336.022 110.193L336.067 110.179C336.26 110.104 336.468 110.201 336.542 110.394C336.609 110.564 336.534 110.764 336.371 110.846Z" fill="#E6B0A5"/>
<path d="M327.513 93.8522C326.939 94.3828 326.259 95.2814 325.643 96.2231C325.012 97.1737 324.39 98.2037 323.782 99.2604C322.921 100.774 322.118 102.357 321.333 103.964C321.334 103.965 321.335 103.966 321.337 103.967C321.018 104.612 320.706 105.265 320.394 105.918C319.896 106.962 319.412 108.022 318.934 109.085C318.891 109.179 318.848 109.27 318.805 109.364C318.713 109.58 318.627 109.8 318.536 110.017C318.136 110.966 317.74 111.918 317.359 112.871C317.06 113.62 316.767 114.373 316.477 115.125C316.371 115.399 316.268 115.674 316.164 115.947C315.896 116.656 315.635 117.365 315.386 118.071C315.384 118.076 315.383 118.08 315.381 118.085C315.287 118.18 315.197 118.278 315.099 118.368C313.554 119.492 312.036 120.61 310.765 121.998C310.763 121.894 310.755 121.785 310.76 121.688C310.768 121.51 310.784 121.34 310.799 121.167C310.859 120.625 310.948 120.091 311.044 119.557L311.048 119.558C311.067 119.451 311.084 119.343 311.104 119.236C311.12 119.153 311.141 119.071 311.158 118.988C312.148 113.992 313.496 109.108 314.956 104.255C315.289 103.157 315.638 102.066 315.994 100.975C315.997 100.977 316 100.978 316.002 100.98C316.449 99.6189 316.912 98.2623 317.407 96.9155C318.31 94.4971 319.248 92.0846 320.539 89.802L321.115 88.7831C322.239 86.7973 324.76 86.099 326.745 87.2225C328.731 88.346 329.429 90.8661 328.305 92.8519C328.092 93.2289 327.814 93.5717 327.513 93.8522Z" fill="#1C1C1C"/>
<path d="M326.427 82.4905L331.989 79.957L332.215 106.058C332.215 106.058 327.487 93.3871 327.359 93.0145C327.232 92.642 329.914 88.5911 329.914 88.5911L326.427 82.4905Z" fill="#333333"/>
<path d="M343.759 111.787C343.827 110.213 343.886 106.442 343.909 104.882C343.915 104.495 343.608 104.179 343.222 104.17L338.173 104.047C337.748 104.036 337.411 104.402 337.454 104.824L338.161 111.623C338.197 111.968 338.48 112.237 338.827 112.253L343.021 112.457C343.411 112.476 343.742 112.177 343.759 111.787Z" fill="#14223F"/>
<path d="M339.824 107.764C339.127 107.963 338.43 108.164 337.734 108.365C337.383 108.467 337.023 108.547 336.77 108.833C336.535 109.098 336.32 109.384 336.095 109.658C335.911 109.883 335.858 110.228 336.095 110.446C336.299 110.633 336.686 110.686 336.882 110.446C337.095 110.184 337.305 109.92 337.522 109.663C337.545 109.634 337.569 109.606 337.593 109.579C337.641 109.532 337.646 109.527 337.609 109.563C337.597 109.567 337.585 109.571 337.574 109.574C337.608 109.562 337.643 109.55 337.679 109.54C337.839 109.489 338.001 109.446 338.162 109.399C338.815 109.211 339.467 109.023 340.12 108.836C340.4 108.756 340.602 108.44 340.509 108.151C340.416 107.868 340.124 107.678 339.824 107.764Z" fill="#E6B0A5"/>
<path d="M341.882 109.445C340.224 109.896 338.571 110.364 336.923 110.85C336.238 111.053 336.53 112.127 337.219 111.923C338.867 111.436 340.52 110.968 342.179 110.518C342.869 110.331 342.576 109.257 341.882 109.445Z" fill="#E6B0A5"/>
<path d="M342.44 110.671C340.812 111.56 338.91 111.756 337.086 111.672C336.37 111.639 336.371 112.752 337.086 112.785C339.108 112.878 341.203 112.614 343.002 111.632C343.63 111.29 343.069 110.328 342.44 110.671Z" fill="#E6B0A5"/>
<path d="M341.74 111.96C340.97 112.277 340.183 112.567 339.344 112.613C338.534 112.658 337.742 112.527 336.988 112.229C336.709 112.119 336.378 112.35 336.304 112.618C336.217 112.934 336.412 113.192 336.692 113.303C337.527 113.633 338.447 113.776 339.343 113.727C340.29 113.675 341.165 113.391 342.035 113.033C342.313 112.918 342.51 112.663 342.424 112.348C342.353 112.085 342.02 111.845 341.74 111.96Z" fill="#E6B0A5"/>
<path d="M336.724 107.402C336.709 107.33 336.713 107.343 336.718 107.409C336.723 107.46 336.757 107.313 336.711 107.414C336.684 107.472 336.69 107.441 336.714 107.408C336.692 107.439 336.672 107.477 336.652 107.509C336.612 107.573 336.732 107.432 336.63 107.529C336.606 107.552 336.583 107.575 336.558 107.598C336.454 107.696 336.603 107.579 336.531 107.62C336.492 107.641 336.456 107.669 336.419 107.692C336.132 107.863 335.795 107.946 335.516 108.124C335.257 108.289 335.124 108.569 335.188 108.874C335.22 109.031 335.286 109.178 335.318 109.337C335.33 109.398 335.319 109.265 335.32 109.37C335.32 109.413 335.323 109.456 335.323 109.499C335.323 109.542 335.32 109.585 335.318 109.628C335.316 109.676 335.311 109.692 335.32 109.635C335.306 109.721 335.287 109.805 335.262 109.888C335.251 109.922 335.24 109.955 335.228 109.988C335.173 110.145 335.274 109.898 335.2 110.049C335.073 110.311 335.12 110.663 335.4 110.811C335.649 110.943 336.025 110.891 336.161 110.611C336.324 110.274 336.424 109.926 336.436 109.55C336.442 109.371 336.419 109.191 336.387 109.015C336.375 108.947 336.359 108.878 336.338 108.812C336.326 108.77 336.311 108.729 336.296 108.688C336.29 108.672 336.284 108.657 336.279 108.642C336.265 108.6 336.266 108.614 336.285 108.683C336.26 108.776 336.235 108.87 336.209 108.964C336.061 109.083 336.028 109.117 336.111 109.065C336.123 109.059 336.134 109.053 336.146 109.047C336.195 109.022 336.245 109.001 336.295 108.979C336.395 108.934 336.496 108.891 336.595 108.847C336.814 108.749 337.021 108.639 337.212 108.492C337.649 108.154 337.911 107.663 337.797 107.105C337.738 106.819 337.385 106.628 337.112 106.716C336.809 106.815 336.661 107.096 336.724 107.402Z" fill="#E6B0A5"/>
<path d="M345.651 108.509C345.603 108.55 345.604 108.55 345.653 108.509C345.627 108.527 345.6 108.544 345.573 108.559C345.531 108.584 345.488 108.605 345.445 108.627C345.387 108.654 345.386 108.654 345.443 108.629C345.42 108.638 345.397 108.647 345.373 108.655C345.318 108.675 345.263 108.694 345.208 108.711C344.972 108.786 344.732 108.851 344.493 108.915C343.99 109.048 343.482 109.162 342.97 109.259C342.683 109.313 342.494 109.674 342.581 109.944C342.68 110.251 342.959 110.391 343.266 110.333C343.815 110.229 344.36 110.106 344.898 109.96C345.441 109.813 346.001 109.672 346.437 109.297C346.658 109.106 346.647 108.703 346.437 108.51C346.202 108.292 345.887 108.306 345.651 108.509Z" fill="#E6B0A5"/>
<path d="M346.241 107.881C346.082 107.839 345.925 107.787 345.773 107.723C345.818 107.742 345.861 107.76 345.906 107.78C345.709 107.695 345.522 107.592 345.353 107.461C345.391 107.49 345.428 107.519 345.466 107.548C345.349 107.456 345.244 107.352 345.152 107.234C345.181 107.272 345.21 107.309 345.239 107.347C345.168 107.253 345.108 107.152 345.061 107.043C345.08 107.088 345.099 107.132 345.118 107.176C345.081 107.085 345.054 106.992 345.039 106.895C345.046 106.944 345.053 106.994 345.059 107.043C345.057 107.026 345.056 107.011 345.054 106.994C345.038 106.843 345.002 106.712 344.891 106.601C344.794 106.505 344.636 106.432 344.498 106.438C344.354 106.445 344.204 106.491 344.104 106.601C344.01 106.704 343.926 106.85 343.941 106.994C343.969 107.269 344.038 107.521 344.179 107.761C344.298 107.964 344.457 108.153 344.639 108.303C345.021 108.618 345.467 108.827 345.947 108.955C346.228 109.03 346.564 108.861 346.632 108.566C346.697 108.274 346.543 107.962 346.241 107.881Z" fill="#E6B0A5"/>
<path d="M345.715 109.434C345.841 109.333 345.703 109.44 345.677 109.459C345.635 109.488 345.593 109.515 345.55 109.542C345.463 109.596 345.373 109.645 345.281 109.69C345.237 109.712 345.188 109.742 345.14 109.755C345.16 109.746 345.181 109.738 345.201 109.729C345.177 109.739 345.153 109.748 345.128 109.757C345.03 109.794 344.929 109.826 344.829 109.854C344.726 109.883 344.623 109.906 344.518 109.924C344.481 109.931 344.437 109.933 344.4 109.943C344.553 109.903 344.39 109.942 344.349 109.946C344.135 109.963 343.922 109.961 343.709 109.94C343.418 109.911 343.14 110.216 343.152 110.496C343.167 110.822 343.397 111.022 343.709 111.053C344.71 111.151 345.718 110.842 346.502 110.219C346.606 110.137 346.665 109.952 346.665 109.826C346.665 109.69 346.604 109.526 346.502 109.433C346.258 109.21 345.959 109.239 345.715 109.434Z" fill="#E6B0A5"/>
<path d="M346.254 109.841C346.069 109.913 345.922 109.997 345.774 110.131C345.692 110.205 345.622 110.291 345.543 110.369C345.502 110.409 345.459 110.446 345.416 110.484C345.362 110.531 345.41 110.481 345.439 110.469C345.413 110.479 345.384 110.509 345.36 110.525C345.263 110.593 345.161 110.652 345.055 110.705C345.031 110.717 345.007 110.729 344.983 110.74C344.97 110.746 344.886 110.783 344.958 110.752C345.036 110.717 344.928 110.762 344.912 110.768C344.886 110.777 344.861 110.786 344.835 110.795C344.719 110.834 344.601 110.865 344.48 110.889C344.454 110.894 344.426 110.898 344.4 110.904C344.293 110.924 344.476 110.898 344.405 110.904C344.35 110.91 344.296 110.916 344.241 110.918C344.11 110.926 343.979 110.924 343.848 110.914C343.557 110.892 343.279 111.186 343.292 111.471C343.306 111.791 343.537 112.003 343.848 112.027C344.421 112.071 344.987 111.949 345.508 111.717C345.757 111.606 345.979 111.455 346.189 111.283C346.278 111.209 346.358 111.128 346.437 111.044C346.477 111.001 346.52 110.96 346.561 110.918C346.624 110.854 346.552 110.938 346.54 110.931C346.529 110.924 346.72 110.848 346.55 110.914C346.82 110.809 347.038 110.536 346.939 110.229C346.854 109.966 346.544 109.728 346.254 109.841Z" fill="#E6B0A5"/>
<path d="M345.793 110.937C345.634 111.079 345.474 111.218 345.31 111.353C345.263 111.391 345.269 111.386 345.328 111.339C345.306 111.356 345.286 111.371 345.263 111.388C345.231 111.411 345.198 111.435 345.165 111.458C345.077 111.519 344.987 111.577 344.893 111.629C344.812 111.675 344.714 111.742 344.622 111.765C344.76 111.73 344.646 111.753 344.612 111.765C344.564 111.783 344.515 111.799 344.466 111.814C344.416 111.828 344.366 111.841 344.317 111.852C344.284 111.86 344.196 111.893 344.164 111.881C344.248 111.871 344.259 111.868 344.197 111.875C344.171 111.877 344.145 111.88 344.12 111.881C344.068 111.884 344.016 111.884 343.964 111.883C343.673 111.878 343.394 112.143 343.407 112.44C343.421 112.746 343.652 112.99 343.964 112.996C344.475 113.005 344.977 112.853 345.423 112.609C345.85 112.375 346.219 112.047 346.58 111.724C346.797 111.53 346.793 111.133 346.58 110.937C346.347 110.723 346.024 110.729 345.793 110.937Z" fill="#E6B0A5"/>
<path d="M345.661 107.799C345.661 107.799 348.32 108.119 348.166 110.654C348.011 113.188 345.29 111.584 345.29 111.584L345.661 107.799Z" fill="#E6B0A5"/>
<path d="M338.272 113.117L337.034 109.468L335.458 108.881L335.148 110.118C335.148 110.118 334.592 113.148 336.879 113.303C339.168 113.457 338.272 113.117 338.272 113.117Z" fill="#E6B0A5"/>
<path d="M330.799 61.8837C331.446 61.7041 332.133 61.7961 332.798 61.8904C332.508 61.6566 332.235 61.4028 331.981 61.1305C331.863 61.0043 331.747 60.87 331.693 60.706C331.575 60.3483 331.798 59.9483 332.118 59.7495C332.437 59.5513 332.828 59.5113 333.205 59.4987C334.559 59.4526 336.036 59.751 336.917 60.7817C336.436 60.1183 336.192 59.2864 336.24 58.4687C336.266 58.0219 336.396 57.5485 336.741 57.2635C337.34 56.7678 338.248 57.0617 338.918 57.4572C340.012 58.1021 340.976 58.9658 341.738 59.9825C341.937 60.2481 342.122 60.5398 342.216 60.8529C342.086 60.0515 342.071 59.2308 342.189 58.4271C342.248 58.0227 342.372 57.5767 342.727 57.3741C342.918 57.265 343.151 57.2465 343.37 57.2739C343.945 57.3459 344.452 57.7103 344.814 58.1637C345.175 58.6171 345.409 59.1566 345.628 59.6931C346.474 61.7605 347.021 64.0312 347.021 66.1877C347.021 68.3449 347.124 69.6265 346.99 70.6327C346.805 72.0241 345.97 73.4155 345.97 73.4155C345.97 73.4155 338.456 74.1576 337.436 72.9517C336.178 72.6875 336.053 69.5404 336.115 67.404C334.045 67.1613 332.044 66.3161 330.469 64.9484C329.962 64.5076 329.464 63.9311 329.508 63.261C329.552 62.5916 330.152 62.0633 330.799 61.8837Z" fill="#050505"/>
<path d="M345.16 72.1318C344.998 72.839 345.292 73.5098 345.816 73.63C346.341 73.7502 346.897 73.2738 347.058 72.5666C347.22 71.8594 346.926 71.1886 346.402 71.0684C345.878 70.9481 345.322 71.4246 345.16 72.1318Z" fill="#E68673"/>
<path d="M336.413 72.6809C336.66 73.3636 337.27 73.768 337.776 73.5855C338.282 73.4022 338.492 72.7009 338.245 72.0182C337.998 71.3355 337.388 70.9311 336.882 71.1136C336.375 71.2962 336.165 71.9982 336.413 72.6809Z" fill="#E68673"/>
<path d="M341.611 76.5077C344.06 76.5077 346.063 74.5041 346.063 72.0553V70.324C346.063 67.8752 344.06 65.8716 341.611 65.8716C339.162 65.8716 337.158 67.8752 337.158 70.324V72.0553C337.158 74.5041 339.162 76.5077 341.611 76.5077Z" fill="#E6B0A5"/>
<path d="M345.29 67.387C345.197 67.3559 339.185 68.0719 336.116 67.4048C333.046 66.7377 337.066 63.6151 337.313 63.5535C337.56 63.4919 340.435 63.0281 340.435 63.0281L343.125 63.7086L344.949 64.6977L345.29 67.387Z" fill="#050505"/>
<path d="M343.188 71.5914C343.188 71.9669 343.492 72.2719 343.868 72.2719C344.244 72.2719 344.549 71.9676 344.549 71.5914C344.549 71.2159 344.244 70.9109 343.868 70.9109C343.492 70.9116 343.188 71.2159 343.188 71.5914Z" fill="#050505"/>
<path d="M338.643 71.5914C338.643 71.9669 338.947 72.2719 339.323 72.2719C339.699 72.2719 340.004 71.9676 340.004 71.5914C340.004 71.2159 339.699 70.9109 339.323 70.9109C338.947 70.9116 338.643 71.2159 338.643 71.5914Z" fill="#050505"/>
<path d="M341.951 73.6018H340.776L341.147 70.6951" stroke="#E68673" stroke-width="0.556555" stroke-miterlimit="10" stroke-linecap="round" stroke-linejoin="round"/>
<path d="M343.095 69.6747C343.095 69.6747 343.991 69.3036 344.734 69.6747" stroke="#161616" stroke-width="0.556555" stroke-miterlimit="10" stroke-linecap="round" stroke-linejoin="round"/>
<path d="M340.251 69.6436C340.251 69.6436 339.138 69.0558 338.427 69.6747" stroke="#161616" stroke-width="0.556555" stroke-miterlimit="10" stroke-linecap="round" stroke-linejoin="round"/>
<path d="M342.384 74.5293H340.56C340.56 74.5293 340.87 75.704 341.519 75.704C342.168 75.704 342.384 74.5293 342.384 74.5293Z" fill="white"/>
<path d="M356.208 82.2122L350.646 79.6787L350.419 105.78C350.419 105.78 355.148 93.1087 355.275 92.7362C355.403 92.3637 352.721 88.3127 352.721 88.3127L356.208 82.2122Z" fill="#333333"/>
</svg>
