<svg width="342" height="257" viewBox="0 0 342 257" fill="none" xmlns="http://www.w3.org/2000/svg">
<g clip-path="url(#clip0_293_4754)">
<path d="M56.1064 35.9795H52.438V172.363H56.1064V35.9795Z" fill="#4B76A0"/>
<path d="M54.2755 169.548C49.6357 169.548 45.8717 174.227 45.8717 179.996V237.43C45.8717 237.739 46.0726 237.99 46.3196 237.99H62.2315C62.4784 237.99 62.6793 237.739 62.6793 237.43V179.996C62.6793 174.227 58.9154 169.548 54.2755 169.548Z" fill="#1E4E87"/>
<path d="M54.2756 64.8263C69.3343 64.8263 81.5418 52.6188 81.5418 37.5601C81.5418 22.5014 69.3343 10.2939 54.2756 10.2939C39.2169 10.2939 27.0094 22.5014 27.0094 37.5601C27.0094 52.6188 39.2169 64.8263 54.2756 64.8263Z" fill="#DD5858"/>
<path d="M54.2755 61.6091C67.5574 61.6091 78.3244 50.842 78.3244 37.5601C78.3244 24.2783 67.5574 13.5112 54.2755 13.5112C40.9937 13.5112 30.2266 24.2783 30.2266 37.5601C30.2266 50.842 40.9937 61.6091 54.2755 61.6091Z" fill="white"/>
<path d="M45.3054 55.3029V23.9666H57.1273C59.2085 23.9666 60.7958 24.0653 61.8956 24.2662C63.4335 24.5231 64.7243 25.0104 65.7649 25.7316C66.8055 26.4495 67.6419 27.4604 68.2775 28.7546C68.9097 30.0521 69.2292 31.4779 69.2292 33.0289C69.2292 35.693 68.3829 37.9487 66.687 39.7928C64.9911 41.6402 61.9286 42.5622 57.4961 42.5622H49.4579V55.3029H45.312H45.3054ZM49.4513 38.8642H57.5521C60.2326 38.8642 62.1327 38.3669 63.2589 37.3691C64.3851 36.3714 64.9482 34.9685 64.9482 33.1574C64.9482 31.8467 64.6157 30.7238 63.9538 29.7919C63.2919 28.86 62.4192 28.2409 61.3358 27.9412C60.6377 27.7568 59.3468 27.6646 57.4665 27.6646H49.4513V38.8642Z" fill="#1E4E87"/>
<g style="mix-blend-mode:multiply">
<path d="M67.1249 13.5112C71.7845 18.4014 74.6495 25.017 74.6495 32.3078C74.6495 47.3668 62.4422 59.574 47.3833 59.574C42.7368 59.574 38.3604 58.4083 34.5339 56.3567C39.4998 61.5728 46.504 64.8264 54.2756 64.8264C69.3345 64.8264 81.5418 52.6191 81.5418 37.5602C81.5418 27.1509 75.7065 18.105 67.1282 13.5112H67.1249Z" fill="#E6E6E6"/>
</g>
<path d="M225.117 14.0051H116.454C108.148 14.0051 101.415 20.7384 101.415 29.0443V223.882C101.415 232.188 108.148 238.922 116.454 238.922H225.117C233.423 238.922 240.157 232.188 240.157 223.882V29.0443C240.157 20.7384 233.423 14.0051 225.117 14.0051Z" fill="white"/>
<path d="M227.752 0H113.813C106.075 0 99.8082 6.26991 99.8082 14.0052V227.702C99.8082 231.924 101.682 235.714 104.639 238.283C104.738 238.365 104.837 238.451 104.939 238.536C107.356 240.525 110.451 241.708 113.813 241.708H227.752C231.117 241.708 234.213 240.522 236.627 238.536C239.761 235.968 241.764 232.069 241.764 227.702V14.0052C241.764 6.26991 235.487 0 227.752 0ZM238.797 222.243C238.797 230.363 231.835 236.949 223.247 236.949H118.331C109.743 236.949 102.778 230.366 102.778 222.243V27.8688C102.778 22.8173 107.109 18.7241 112.453 18.7241H229.128C234.47 18.7241 238.8 22.8173 238.8 27.8688V222.246L238.797 222.243Z" fill="#1E4E87"/>
<path d="M122.392 9.8099C122.392 12.2961 120.373 14.3148 117.883 14.3148C115.394 14.3148 113.375 12.2961 113.375 9.8099C113.375 7.32367 115.394 5.30176 117.883 5.30176C120.373 5.30176 122.392 7.32038 122.392 9.8099Z" fill="white"/>
<path d="M120.933 9.80983C120.933 11.4926 119.566 12.8592 117.884 12.8592C116.201 12.8592 114.834 11.4926 114.834 9.80983C114.834 8.1271 116.201 6.7605 117.884 6.7605C119.566 6.7605 120.933 8.1271 120.933 9.80983Z" fill="#1E4E87"/>
<path d="M131.615 9.80983C131.615 11.4926 130.249 12.8592 128.566 12.8592C126.883 12.8592 125.517 11.4926 125.517 9.80983C125.517 8.1271 126.883 6.7605 128.566 6.7605C130.249 6.7605 131.615 8.1271 131.615 9.80983Z" fill="white"/>
<path d="M226.892 75.0315H114.683V221.133H226.892V75.0315Z" fill="#D7EFFF"/>
<path d="M226.892 90.7588L205.553 103.878L196.452 75.0281H193.442L202.554 103.905L172.422 121.394L158.924 75.0281H154.074L167.904 122.527L114.689 94.4075V99.4063L167.252 127.338L152.233 155.295L114.689 180.583V186.974L155.045 158.937C155.947 158.812 159.145 158.519 163.215 160.008C169.6 162.349 175.245 168.02 179.535 176.417C180.642 178.58 181.617 180.767 182.476 182.94L134.253 221.133H138.876L183.536 185.766C186.289 193.534 187.636 200.95 188.291 206.436C189.289 214.781 188.957 220.606 188.95 220.665V220.708L188.947 221.133H191.818V220.794C191.845 220.303 192.036 216.483 191.591 210.681L226.896 189.161V185.795L191.298 207.496C191.252 207.058 191.202 206.617 191.15 206.166C190.208 198.243 187.873 186.424 182.091 175.113C181.439 173.835 180.757 172.62 180.046 171.461C181.952 168.599 189.177 158.085 198.625 148.327C205.043 141.702 211.204 136.723 216.947 133.532C220.435 131.592 223.757 130.321 226.899 129.719V126.798C223.29 127.417 219.49 128.829 215.535 131.032C211.096 133.506 206.436 136.98 201.628 141.392L200.805 110.178L226.899 94.1342V90.7621L226.892 90.7588ZM196.524 146.358C187.83 155.345 180.988 164.954 178.327 168.859C176.68 166.531 174.902 164.493 173.012 162.774C170.229 160.242 167.196 158.381 163.996 157.242C161.193 156.244 158.756 155.974 157.008 155.954L172.627 127.492L197.025 112.493L197.68 145.179C196.919 145.927 197.288 145.568 196.521 146.361L196.524 146.358Z" fill="#FCFEFD"/>
<path d="M151.331 78.4233H118.21L118.529 92.4384L162.464 115.766L151.331 78.4233Z" fill="#BDE1FF"/>
<path d="M175.561 177.566C171.82 170.246 166.9 165.3 161.332 163.261C157.785 161.964 155.351 164.21 154.564 164.318L119.382 188.759L119.026 216.549L135.304 215.166L177.346 181.87C176.595 179.977 176.522 179.453 175.557 177.566H175.561Z" fill="#BDE1FF"/>
<path d="M205.422 129.788C205.465 131.467 207.414 132.376 208.721 131.326C210.822 129.636 212.871 128.234 214.856 127.127C216.961 125.955 218.999 125.115 220.962 124.611C221.854 124.381 222.476 123.567 222.476 122.645V106.025C222.476 104.435 220.734 103.46 219.378 104.293L205.982 112.529C205.363 112.908 204.994 113.589 205.014 114.314L205.422 129.781V129.788Z" fill="#BDE1FF"/>
<path d="M199.975 144.705C199.593 144.705 199.277 144.402 199.267 144.017L198.147 110.237C198.144 110.129 198.075 110.073 198.032 110.05C197.989 110.026 197.907 109.997 197.812 110.05L172.851 124.647C172.413 124.904 171.889 124.944 171.418 124.756C170.947 124.568 170.591 124.183 170.447 123.696L156.26 76.0392C156.148 75.6638 156.362 75.2686 156.738 75.1567C157.113 75.0447 157.508 75.2588 157.62 75.6342L171.807 123.291C171.833 123.38 171.902 123.419 171.938 123.436C171.975 123.452 172.05 123.469 172.133 123.419L197.094 108.821C197.598 108.525 198.207 108.518 198.717 108.801C199.231 109.085 199.547 109.602 199.567 110.185L200.686 143.964C200.7 144.356 200.393 144.685 200.001 144.699C199.995 144.699 199.985 144.699 199.978 144.699L199.975 144.705Z" fill="#1E4E87"/>
<path d="M201.898 143.833C201.898 144.883 201.045 145.736 199.995 145.736C198.944 145.736 198.092 144.883 198.092 143.833C198.092 142.782 198.944 141.929 199.995 141.929C201.045 141.929 201.898 142.782 201.898 143.833Z" fill="#1E4E87"/>
<path d="M203.772 137.497C203.772 135.412 202.083 133.723 199.998 133.723C197.914 133.723 196.224 135.412 196.224 137.497C196.224 138.722 197.034 139.584 197.713 140.5C198.358 141.373 199.099 143.276 199.099 143.276C199.471 144.017 200.528 144.017 200.9 143.276C200.9 143.276 201.852 141.142 202.287 140.5C203.005 139.44 203.775 138.722 203.775 137.497H203.772Z" fill="#DD5858"/>
<path d="M201.842 137.191C201.842 138.211 201.016 139.035 199.998 139.035C198.981 139.035 198.154 138.208 198.154 137.191C198.154 136.173 198.981 135.346 199.998 135.346C201.016 135.346 201.842 136.173 201.842 137.191Z" fill="#FCFFFF"/>
<path d="M341.575 241.708H0V243.38H341.575V241.708Z" fill="#C8CBE3"/>
<path d="M136.163 254.909H63.6409V256.582H136.163V254.909Z" fill="#C8CBE3"/>
<path d="M173.051 220.267V238C172.916 238.154 172.755 238.326 172.59 238.497C172.561 238.54 172.514 238.569 172.485 238.596C171.978 239.02 171.369 239.462 170.67 239.873C167.486 241.747 164.331 241.734 162.665 241.717C160.732 241.675 157.488 241.632 154.673 239.488C154.663 239.481 154.653 239.472 154.643 239.465C153.28 238.415 152.516 236.808 152.516 235.135V220.263H173.051V220.267Z" fill="#293656"/>
<g style="mix-blend-mode:multiply">
<path d="M162.547 226.145L161.608 227.663L152.519 222.664V220.619L162.547 226.145Z" fill="#CCCCCC"/>
</g>
<g style="mix-blend-mode:multiply">
<path d="M161.713 234.562L160.791 236.083L152.519 231.539V229.494L161.713 234.562Z" fill="#CCCCCC"/>
</g>
<g style="mix-blend-mode:multiply">
<path d="M173.051 222.737V225.035L163.989 232.25L162.813 230.887L173.051 222.737Z" fill="#CCCCCC"/>
</g>
<g style="mix-blend-mode:multiply">
<path d="M173.051 231.269V233.554L164.614 240.272L163.426 238.922L173.051 231.269Z" fill="#CCCCCC"/>
</g>
<path d="M64.8525 220.267V238C64.7175 238.154 64.5562 238.326 64.3915 238.497C64.3619 238.54 64.3158 238.569 64.2861 238.596C63.779 239.02 63.1698 239.462 62.4717 239.873C59.2873 241.747 56.1326 241.734 54.4663 241.717C52.5333 241.675 49.2897 241.632 46.4742 239.488C46.4643 239.481 46.4544 239.472 46.4445 239.465C45.0812 238.415 44.3173 236.808 44.3173 235.135V220.263H64.8525V220.267Z" fill="#293656"/>
<g style="mix-blend-mode:multiply">
<path d="M54.3478 226.145L53.4093 227.663L44.3172 222.664V220.619L54.3478 226.145Z" fill="#CCCCCC"/>
</g>
<g style="mix-blend-mode:multiply">
<path d="M53.5146 234.562L52.5926 236.083L44.3172 231.539V229.494L53.5146 234.562Z" fill="#CCCCCC"/>
</g>
<g style="mix-blend-mode:multiply">
<path d="M64.8525 222.737V225.035L55.7901 232.25L54.6145 230.887L64.8525 222.737Z" fill="#CCCCCC"/>
</g>
<g style="mix-blend-mode:multiply">
<path d="M64.8524 231.269V233.554L56.4157 240.272L55.2236 238.922L64.8524 231.269Z" fill="#CCCCCC"/>
</g>
<path d="M188.127 160.956C186.714 151.39 175.962 150.85 172.442 150.936C171.82 150.949 171.329 151.436 171.329 152.029V158.888H165.57V162.534H186.701C187.58 162.534 188.249 161.786 188.127 160.956Z" fill="#293656"/>
<g style="mix-blend-mode:multiply">
<path d="M188.127 160.956C187.402 156.063 184.238 153.534 180.846 152.24C183.345 153.715 185.413 156.096 185.98 159.932C186.101 160.762 185.433 161.51 184.554 161.51H165.57V162.534H186.701C187.58 162.534 188.249 161.786 188.127 160.956Z" fill="#F9D7D7"/>
</g>
<path d="M30.0488 160.956C31.4615 151.39 42.2132 150.85 45.7334 150.936C46.3558 150.949 46.8465 151.436 46.8465 152.029V158.888H52.606V162.534H31.4747C30.5954 162.534 29.9269 161.786 30.0488 160.956Z" fill="#293656"/>
<g style="mix-blend-mode:multiply">
<path d="M30.0485 160.956C30.773 156.063 33.9376 153.534 37.3294 152.24C34.83 153.715 32.762 156.096 32.1923 159.932C32.0704 160.762 32.7389 161.51 33.6181 161.51H52.6024V162.534H31.4711C30.5919 162.534 29.9234 161.786 30.0452 160.956H30.0485Z" fill="#F9D7D7"/>
</g>
<path d="M181.195 228.137C177.214 230.864 134.055 230.716 116.454 230.528H101.721C84.12 230.712 40.9617 230.864 36.9805 228.137C36.694 227.943 36.4239 227.65 36.1737 227.278C36.1276 227.199 36.0716 227.11 36.0156 227.021C35.9497 226.906 35.8872 226.79 35.8312 226.675C35.7752 226.56 35.7192 226.444 35.6731 226.329C35.6171 226.204 35.5612 226.082 35.5151 225.957C32.469 218.172 34.3164 194.466 34.8005 187.29C35.3471 179.16 42.1702 172.798 42.1702 172.798C42.2526 168.27 47.2481 165.296 47.2481 165.296C47.2481 165.296 59.373 139.14 65.1555 132.887C70.9479 126.643 76.4078 127.677 76.4078 127.677C78.6898 127.032 139.486 127.032 141.771 127.677C141.771 127.677 147.231 126.64 153.023 132.887C158.806 139.14 170.931 165.296 170.931 165.296C170.931 165.296 175.926 168.273 176.008 172.798C176.008 172.798 178.989 175.571 181.169 179.805C182.282 181.976 183.194 184.534 183.378 187.29C183.925 195.414 186.22 224.699 181.195 228.134V228.137Z" fill="#DD5858"/>
<g style="mix-blend-mode:multiply">
<path d="M181.195 228.137C177.214 230.864 134.055 230.716 116.454 230.528H101.721C84.1199 230.712 40.9616 230.864 36.9804 228.137C36.6939 227.943 36.4239 227.65 36.1736 227.278C36.1275 227.199 36.0715 227.11 36.0155 227.021C35.9497 226.906 35.8871 226.79 35.8311 226.675C35.7751 226.56 35.7192 226.445 35.6731 226.329C35.6171 226.204 35.5611 226.082 35.515 225.957C43.5269 228.2 82.5722 228.048 99.1032 227.88H113.826C131.427 228.058 174.586 228.216 178.577 225.49C183.599 222.052 181.307 192.767 180.76 184.646C180.566 181.696 180.78 180.174 181.168 179.809C182.282 181.979 183.194 184.538 183.378 187.294C183.925 195.418 186.22 224.703 181.195 228.137Z" fill="#F9D7D7"/>
</g>
<g style="mix-blend-mode:multiply">
<path d="M128.487 189.655H89.9816C80.9159 189.655 72.0939 186.859 64.8328 181.682L60.0546 178.277C59.4882 177.872 59.7286 176.99 60.4333 176.94C91.7829 174.704 124.242 175.133 157.591 176.931C158.443 176.977 158.743 178.047 158.058 178.534L153.636 181.686C146.375 186.862 137.553 189.658 128.487 189.658V189.655Z" fill="#F9D7D7"/>
</g>
<path d="M161.766 170.012H56.4092C55.8692 170.012 55.4081 169.808 55.0722 169.488C54.5421 168.965 54.3478 168.151 54.7298 167.417L62.5375 152.651L63.9403 149.994L71.6361 135.448C71.9621 134.846 72.601 134.464 73.3156 134.464H144.86C145.564 134.464 146.216 134.846 146.539 135.448L146.78 135.91L154.261 150.073L155.486 152.375L159.303 159.603L159.991 160.897L163.436 167.417C164.068 168.612 163.166 170.012 161.766 170.012Z" fill="#90CCF4"/>
<g style="mix-blend-mode:screen">
<path d="M90.4326 134.464L62.5375 152.648L63.937 149.99L87.7587 134.464H90.4326Z" fill="#333333"/>
</g>
<g style="mix-blend-mode:screen">
<path d="M159.991 160.897L146.012 170.012H143.338L159.306 159.603L159.991 160.897Z" fill="#333333"/>
</g>
<g style="mix-blend-mode:screen">
<path d="M113.54 134.464L59.0206 170.012H56.4125C55.8725 170.012 55.4114 169.808 55.0756 169.488L108.798 134.464H113.543H113.54Z" fill="#333333"/>
</g>
<g style="mix-blend-mode:screen">
<path d="M155.49 152.375L128.437 170.012H123.686L154.265 150.073L155.49 152.375Z" fill="#333333"/>
</g>
<g style="mix-blend-mode:screen">
<path d="M146.783 135.906L94.4732 170.009H82.0421L136.561 134.461H144.86C145.564 134.461 146.216 134.843 146.539 135.445L146.78 135.906H146.783Z" fill="#333333"/>
</g>
<path d="M161.766 170.901H56.4093C55.428 170.901 54.5355 170.427 54.0218 169.63C53.5081 168.833 53.4653 167.858 53.9066 167.022L70.8096 135.053C71.2904 134.148 72.2487 133.585 73.3123 133.585H144.863C145.927 133.585 146.885 134.148 147.366 135.053L164.269 167.022C164.71 167.858 164.667 168.833 164.154 169.63C163.64 170.427 162.747 170.901 161.766 170.901ZM73.3123 135.353C72.9534 135.353 72.6307 135.544 72.466 135.85L55.563 167.819C55.3489 168.224 55.5202 168.57 55.6025 168.698C55.6848 168.827 55.9318 169.13 56.4093 169.13H161.766C162.244 169.13 162.487 168.83 162.573 168.701C162.655 168.573 162.826 168.227 162.612 167.819L145.709 135.85C145.548 135.544 145.225 135.353 144.863 135.353H73.3123Z" fill="white"/>
<g style="mix-blend-mode:multiply">
<path d="M155.078 194.176L137.882 198.243H76.7206L59.5245 194.176L55.0789 201.154C58.5662 202.939 65.9459 205.33 65.9459 205.33L83.8434 222.779H130.759L148.657 205.33C148.657 205.33 156.036 202.936 159.524 201.154L155.078 194.176Z" fill="#F9D7D7"/>
</g>
<path d="M147.036 201.47H67.5659C67.309 201.47 67.0983 201.263 67.0983 201.003C67.0983 200.746 67.3058 200.535 67.5659 200.535H147.036C147.293 200.535 147.504 200.743 147.504 201.003C147.504 201.26 147.296 201.47 147.036 201.47Z" fill="white"/>
<path d="M142.495 205.353H72.107C71.8501 205.353 71.6394 205.145 71.6394 204.885C71.6394 204.628 71.8468 204.417 72.107 204.417H142.495C142.752 204.417 142.963 204.625 142.963 204.885C142.963 205.142 142.755 205.353 142.495 205.353Z" fill="white"/>
<path d="M139.528 209.235H75.0773C74.8205 209.235 74.6097 209.028 74.6097 208.768C74.6097 208.511 74.8172 208.3 75.0773 208.3H139.528C139.785 208.3 139.996 208.508 139.996 208.768C139.996 209.025 139.788 209.235 139.528 209.235Z" fill="white"/>
<path d="M134.961 213.118H79.6447C79.3878 213.118 79.1771 212.91 79.1771 212.65C79.1771 212.393 79.3845 212.183 79.6447 212.183H134.961C135.218 212.183 135.428 212.39 135.428 212.65C135.428 212.907 135.221 213.118 134.961 213.118Z" fill="white"/>
<path d="M130.538 217H84.0705C83.8137 217 83.6029 216.793 83.6029 216.533C83.6029 216.276 83.8104 216.065 84.0705 216.065H130.538C130.795 216.065 131.006 216.272 131.006 216.533C131.006 216.789 130.798 217 130.538 217Z" fill="white"/>
<path d="M127.403 220.879H87.2022C86.9453 220.879 86.7346 220.672 86.7346 220.412C86.7346 220.155 86.942 219.944 87.2022 219.944H127.403C127.66 219.944 127.871 220.152 127.871 220.412C127.871 220.669 127.664 220.879 127.403 220.879Z" fill="white"/>
<g style="mix-blend-mode:multiply">
<path d="M178.244 179.417L178.274 179.4C178.274 179.4 178.254 179.394 178.244 179.387C178.244 179.374 178.244 179.361 178.244 179.348L178.205 179.371C177.227 178.969 175.613 178.715 173.216 178.646C155.055 178.129 154.755 190.129 155.009 193.419C155.98 193.834 157.62 194.094 160.07 194.16C178.113 194.634 178.501 182.796 178.244 179.417Z" fill="#F9D7D7"/>
</g>
<path d="M162.075 193.011C161.476 193.011 160.877 192.909 160.301 192.704C159.029 192.253 158.018 191.354 157.455 190.179C156.293 187.748 157.416 184.867 159.965 183.757C162.513 182.644 165.53 183.721 166.696 186.151C167.858 188.582 166.735 191.463 164.186 192.573C163.515 192.866 162.797 193.014 162.079 193.014L162.075 193.011ZM162.072 184.199C161.486 184.199 160.9 184.32 160.35 184.557C158.269 185.466 157.35 187.821 158.298 189.807C158.759 190.768 159.586 191.502 160.623 191.871C161.661 192.24 162.79 192.201 163.798 191.763C165.879 190.854 166.798 188.499 165.849 186.514C165.388 185.552 164.562 184.818 163.524 184.449C163.053 184.281 162.563 184.199 162.072 184.199Z" fill="white"/>
<path d="M172.05 188.423C171.48 188.423 170.911 188.325 170.361 188.13C169.152 187.699 168.191 186.846 167.654 185.726C167.117 184.607 167.071 183.355 167.522 182.203C167.973 181.05 168.866 180.132 170.041 179.621C172.465 178.564 175.333 179.585 176.44 181.897C177.546 184.208 176.476 186.948 174.055 188.002C173.417 188.282 172.735 188.42 172.05 188.42V188.423ZM172.043 180.089C171.5 180.089 170.953 180.197 170.43 180.425C169.481 180.84 168.76 181.577 168.395 182.509C168.029 183.441 168.069 184.452 168.503 185.354C168.938 186.26 169.712 186.948 170.69 187.294C171.665 187.64 172.725 187.603 173.673 187.192C175.629 186.339 176.496 184.126 175.6 182.259C174.945 180.892 173.525 180.082 172.047 180.082L172.043 180.089Z" fill="white"/>
<path d="M166.271 186.332C167.331 188.545 166.31 191.156 163.992 192.167C161.674 193.178 158.937 192.204 157.877 189.994C156.816 187.781 157.837 185.17 160.156 184.159C162.474 183.148 165.21 184.122 166.271 186.332Z" fill="#FFCE78"/>
<path d="M162.075 190.794C160.999 190.794 160.011 190.192 159.563 189.256C158.931 187.936 159.543 186.372 160.926 185.769C161.288 185.611 161.674 185.529 162.069 185.529C163.146 185.529 164.134 186.131 164.581 187.067C165.214 188.387 164.601 189.951 163.218 190.554C162.853 190.712 162.471 190.794 162.075 190.794Z" fill="white"/>
<path d="M176.018 182.081C177.019 184.172 176.054 186.645 173.861 187.6C171.668 188.555 169.08 187.636 168.079 185.542C167.077 183.451 168.042 180.978 170.235 180.023C172.429 179.068 175.017 179.987 176.021 182.081H176.018Z" fill="#FFCE78"/>
<path d="M172.053 186.207C171.072 186.207 170.176 185.657 169.771 184.807C169.491 184.225 169.468 183.576 169.702 182.977C169.936 182.377 170.4 181.903 171.009 181.636C171.342 181.491 171.691 181.419 172.05 181.419C173.031 181.419 173.927 181.969 174.335 182.818C174.908 184.017 174.355 185.44 173.097 185.99C172.768 186.135 172.415 186.207 172.057 186.207H172.053Z" fill="white"/>
<g style="mix-blend-mode:multiply">
<path d="M38.1033 179.374L38.0737 179.357C38.0737 179.357 38.0935 179.351 38.1033 179.344C38.1033 179.331 38.1033 179.318 38.1033 179.305L38.1429 179.328C39.1209 178.926 40.7345 178.673 43.1318 178.603C61.2928 178.086 61.5925 190.086 61.3389 193.376C60.3674 193.791 58.7308 194.051 56.2775 194.117C38.2351 194.591 37.8465 182.753 38.1033 179.374Z" fill="#F9D7D7"/>
</g>
<path d="M52.1646 192.526C49.6191 191.417 48.4929 188.535 49.6553 186.105C50.8178 183.675 53.8375 182.601 56.3863 183.711C58.9318 184.821 60.058 187.702 58.8956 190.132C58.3324 191.311 57.3215 192.207 56.0504 192.658C55.4741 192.862 54.8715 192.964 54.2754 192.964C53.5576 192.964 52.8397 192.816 52.1679 192.523L52.1646 192.526ZM52.8232 184.409C51.7859 184.778 50.9594 185.512 50.4984 186.474C49.5467 188.459 50.4654 190.814 52.5499 191.723C53.5576 192.161 54.6871 192.2 55.7244 191.831C56.7617 191.463 57.5882 190.728 58.0492 189.767C59.0009 187.781 58.0789 185.427 55.9977 184.518C55.4478 184.277 54.8616 184.159 54.2754 184.159C53.7848 184.159 53.2974 184.241 52.8232 184.409Z" fill="white"/>
<path d="M42.292 187.959C39.8717 186.902 38.8014 184.162 39.9079 181.854C41.0143 179.542 43.8859 178.521 46.3062 179.578C47.4785 180.089 48.3742 181.007 48.8254 182.16C49.2765 183.312 49.2271 184.564 48.6937 185.683C48.1569 186.803 47.1953 187.656 45.9868 188.087C45.4369 188.282 44.8672 188.38 44.2975 188.38C43.6158 188.38 42.9342 188.239 42.292 187.962V187.959ZM40.7509 182.222C39.8585 184.09 40.7213 186.303 42.6773 187.155C43.6257 187.567 44.6861 187.603 45.6608 187.258C46.6355 186.912 47.4127 186.22 47.8474 185.318C48.2787 184.416 48.3183 183.401 47.9527 182.473C47.5905 181.541 46.866 180.8 45.9177 180.388C45.3941 180.161 44.8441 180.052 44.3041 180.052C42.8222 180.052 41.4062 180.859 40.7509 182.229V182.222Z" fill="white"/>
<path d="M50.0768 186.289C49.0165 188.502 50.0373 191.113 52.3556 192.124C54.6739 193.135 57.4104 192.161 58.4707 189.951C59.5311 187.738 58.5102 185.127 56.192 184.116C53.8737 183.105 51.1372 184.079 50.0768 186.289Z" fill="#FFCE78"/>
<path d="M54.2722 190.751C55.349 190.751 56.3369 190.149 56.7848 189.214C57.417 187.893 56.8045 186.329 55.4214 185.726C55.0592 185.568 54.6739 185.486 54.2788 185.486C53.2019 185.486 52.214 186.088 51.7662 187.024C51.1339 188.344 51.7464 189.908 53.1295 190.511C53.495 190.669 53.877 190.751 54.2722 190.751Z" fill="white"/>
<path d="M40.3294 182.038C39.3283 184.129 40.2932 186.602 42.4863 187.557C44.6795 188.512 47.2678 187.593 48.2689 185.499C49.2699 183.408 48.3051 180.935 46.1119 179.98C43.9188 179.025 41.3305 179.944 40.3261 182.038H40.3294Z" fill="#FFCE78"/>
<path d="M44.2976 186.164C45.2789 186.164 46.1746 185.614 46.5796 184.765C46.8595 184.182 46.8826 183.533 46.6488 182.934C46.415 182.334 45.9507 181.86 45.3414 181.593C45.0088 181.448 44.6598 181.376 44.3008 181.376C43.3195 181.376 42.4238 181.926 42.0155 182.776C41.4425 183.974 41.9957 185.397 43.2537 185.947C43.583 186.092 43.9353 186.164 44.2943 186.164H44.2976Z" fill="white"/>
<path d="M256.134 102.864C256.134 102.864 262.816 103.971 264.881 100.908C266.922 97.8785 264.851 85.9413 258.489 83.6757C256.171 82.8492 248.896 82.9084 249.502 89.8567C249.97 95.2243 245.709 99.0903 248.537 101.251C251.366 103.414 256.138 102.861 256.138 102.861L256.134 102.864Z" fill="#30334D"/>
<path d="M249.808 101.837C249.443 101.599 249.012 101.491 248.633 101.28C248.277 101.082 247.948 100.836 247.694 100.513C247.148 99.8114 247.217 98.8366 247.375 98.0134C247.714 96.2615 248.649 94.7204 249.226 93.0475C249.535 92.1485 249.776 91.1409 249.65 90.1892C249.65 90.1661 249.611 90.1727 249.611 90.1925C249.611 90.6864 249.581 91.1804 249.476 91.6644C249.377 92.1189 249.232 92.5634 249.068 92.9981C248.725 93.8938 248.274 94.7368 247.882 95.6095C247.513 96.436 247.167 97.2659 247.019 98.1649C246.881 98.9947 246.904 99.8476 247.431 100.546C247.694 100.898 248.053 101.175 248.435 101.389C248.844 101.616 249.311 101.85 249.779 101.916C249.825 101.922 249.835 101.856 249.802 101.833L249.808 101.837Z" fill="#30334D"/>
<path d="M266.372 95.4186C266.181 94.322 265.869 93.2485 265.496 92.2013C265.151 91.2266 264.726 90.2815 264.189 89.3956C263.58 88.388 262.839 87.4791 261.953 86.7052C261.933 86.6855 261.9 86.7151 261.92 86.7349C263.419 88.141 264.485 89.962 265.19 91.8819C265.539 92.8303 265.793 93.8149 265.981 94.8094C266.096 95.4186 266.185 96.041 266.175 96.6633C266.162 97.2297 266.046 97.7797 265.855 98.3131C265.655 98.873 265.371 99.3998 265.055 99.9037C264.729 100.424 264.324 100.901 264.031 101.442C263.968 101.56 264.12 101.695 264.219 101.593C264.607 101.198 264.92 100.71 265.22 100.249C265.523 99.7818 265.799 99.2945 266.02 98.784C266.488 97.7006 266.567 96.5777 266.366 95.4219L266.372 95.4186Z" fill="#30334D"/>
<path d="M248.228 144.695C248.228 144.695 239.34 187.198 241.602 193.63C243.334 198.546 263.089 222.384 263.089 222.384C263.089 222.384 266.458 218.472 266.507 217.85C266.557 217.231 251.886 191.031 251.886 191.031L262.2 147.458L248.228 144.689V144.695Z" fill="#FAC0C0"/>
<path d="M269.998 237.512C271.717 236.017 271.447 234.549 271.332 232.747C271.216 230.949 272.468 229.425 272.468 229.425L275.579 232.81L276.633 231.802C276.347 231.526 274.868 228.974 273.851 227.083C273.702 226.81 273.567 226.553 273.452 226.323L273.446 226.316C273.241 225.901 273.073 225.572 272.968 225.341C272.405 224.074 269.277 221.933 269.277 221.933C269.277 221.946 269.234 221.956 269.234 221.969C268.364 223.57 266.734 224.663 264.933 225.117C264.933 225.117 264.94 225.124 264.95 225.154C264.95 225.154 264.956 225.16 264.963 225.17C265.025 225.282 265.174 225.592 265.368 226.039C265.812 227.09 266.468 228.908 266.613 230.91C266.655 231.45 266.599 232.076 266.491 232.741C266.02 235.523 264.587 239.073 265.141 240.101C265.822 241.378 268.276 239.007 269.998 237.512Z" fill="#363C6B"/>
<path d="M266.05 234.756C271.223 236.017 269.257 221.943 269.257 221.943C269.04 222.203 265.375 215.95 265.375 215.95C265.375 215.95 261.693 218.146 260.369 218.482C263.142 222.476 267.001 226.734 266.053 234.756H266.05Z" fill="#FAC0C0"/>
<path d="M250.332 143.289L251.797 184.557L255.466 229.438L260.181 229.678L264.759 181.715L266.023 142.854L250.332 143.289Z" fill="#FFCFCF"/>
<path d="M217.092 100.207C217.092 100.207 217.056 100.151 216.974 100.052C216.312 99.1791 212.62 95.7807 209.825 96.0277C206.565 96.3175 207.045 98.0101 208.29 98.0562C209.532 98.1023 212.522 98.8432 212.209 99.841C211.771 101.227 209.271 98.3723 209.262 99.818C209.245 101.254 214.57 102.706 214.57 102.706C214.57 102.706 216.197 104.092 216.411 104.366L218.482 101.293L217.092 100.207Z" fill="#FFD4D1"/>
<path d="M252.496 112.124C251.076 114.073 240.588 120.854 234.891 121.226C229.665 121.568 220.692 115.983 214.665 110.3C214.665 110.3 215.996 107.372 216.131 104.767C216.276 102.005 217.063 100.994 218.051 99.6237C218.284 99.2977 218.762 99.2714 219.029 99.571C221.808 102.68 231.783 111.281 234.414 111.768C236.143 112.091 244.092 107.026 247.415 105.485C251.9 103.513 254.801 108.959 252.499 112.124H252.496Z" fill="#FF92CE"/>
<path d="M251.83 241.955C254.099 241.747 254.741 240.4 255.7 238.872C256.658 237.344 258.565 236.844 258.565 236.844L259.105 241.411L260.547 241.21C260.475 240.819 260.771 237.884 261.054 235.757C261.094 235.451 261.136 235.164 261.176 234.904V234.894C261.252 234.44 261.308 234.071 261.36 233.824C261.644 232.464 260.363 228.901 260.363 228.901C260.353 228.911 260.316 228.895 260.307 228.904C258.663 229.691 256.704 229.629 254.978 228.941C254.978 228.941 254.978 228.951 254.969 228.98C254.969 228.98 254.969 228.99 254.969 229C254.952 229.128 254.893 229.464 254.791 229.942C254.537 231.055 254.004 232.912 252.95 234.618C252.67 235.079 252.258 235.556 251.781 236.034C249.772 238.016 246.532 240.055 246.377 241.21C246.183 242.646 249.558 242.159 251.83 241.955Z" fill="#363C6B"/>
<path d="M250.243 237.41C253.697 241.461 260.34 228.895 260.34 228.895C260.01 228.977 260.698 221.762 260.698 221.762C260.698 221.762 256.427 221.39 255.156 220.886C255.067 225.75 255.706 231.457 250.24 237.407L250.243 237.41Z" fill="#FFCFCF"/>
<path d="M266.633 109.108C271.951 116.524 284.817 147.784 284.817 147.784C284.817 147.784 289.638 151.848 288.307 154.818C286.977 157.788 284.191 160.337 284.82 156.093C285.284 152.944 283.951 150.998 283.236 152.042C282.749 152.753 283.519 155.457 281.994 155.197C280.47 154.937 281.135 148.858 281.135 148.858C281.135 148.858 277.404 141.531 273.196 135.218C269.929 130.318 264.772 120.716 263.145 117.561C259.506 110.491 264.209 105.736 266.629 109.111L266.633 109.108Z" fill="#FFD4D1"/>
<path d="M264.15 135.982C264.265 137.619 264.505 139.044 264.907 140.144C261.525 141.33 247.414 137.763 248.472 131.332C249.071 127.68 249.255 124.009 248.356 121.473C245.603 113.708 247.411 105.485 247.411 105.485C247.997 105.07 251.495 103.974 253.783 103.631L258.16 103.714C261.495 104.343 265.378 105.215 266.985 107.017C266.985 107.017 266.129 113.856 265.256 119.869C264.469 125.178 263.83 131.398 264.15 135.982Z" fill="#FF92CE"/>
<g style="mix-blend-mode:multiply">
<path d="M264.15 135.982C263.705 136.213 263.353 136.397 263.185 136.516C262.552 136.954 252.301 132.422 252.301 132.422C252.301 132.422 259.026 131.342 260.247 129.936C264.001 125.612 262.46 114.933 262.46 114.933L265.256 119.873C264.469 125.181 263.83 131.402 264.15 135.985V135.982Z" fill="#F4D7E7"/>
</g>
<path d="M258.163 103.707C257.705 104.675 257.198 105.347 256.688 105.762H256.681C255.127 107.033 253.609 105.9 253.786 103.625L254.294 100.088L254.425 99.1825L257.412 98.5239L258.163 103.707Z" fill="#FFD4D1"/>
<path d="M258.163 103.707C257.705 104.675 257.198 105.347 256.688 105.762H256.681C256.539 105.812 258.601 101.646 256.747 101.531C255.166 101.435 254.606 100.776 254.606 100.776L254.29 100.092L254.422 99.1859L257.409 98.5273L258.16 103.711L258.163 103.707Z" fill="#FAB4AF"/>
<path d="M251.238 86.3958C250.51 87.9139 248.56 98.2144 253.592 100.21C258.173 102.024 261.337 96.3176 261.337 96.3176C261.337 96.3176 263.972 95.7183 263.774 93.3539C263.636 91.6942 261.752 92.7809 261.752 92.7809L261.472 88.5461C258.634 85.0127 251.969 84.8744 251.241 86.3958H251.238Z" fill="#FFD4D1"/>
<path d="M274.22 187.172C264.64 190.185 245.89 190.248 236.324 185.634C237.051 171.319 245.337 145.308 248.225 133.308C249.199 133.66 249.907 133.957 250.849 134.197C255.275 135.34 259.404 135.284 264.061 134.042C273.732 149.273 266.988 173.325 274.22 187.172Z" fill="#376899"/>
<g style="mix-blend-mode:multiply">
<path d="M274.22 187.172C258.571 180.174 268.855 143.632 260.682 138.84C256.625 136.463 250.787 134.293 250.787 134.293L250.846 134.194C255.272 135.337 259.401 135.281 264.057 134.039C273.729 149.269 266.985 173.321 274.216 187.169L274.22 187.172Z" fill="#E6E6E6"/>
</g>
<path d="M286.032 141.982C284.731 142.407 283.292 143.52 281.767 144.692L281.761 144.699C281.738 144.715 281.639 144.797 281.484 144.909C279.386 146.52 277.144 148.173 274.891 148.285C272.942 142.499 271.51 137.961 270.163 133.96V133.953C267.897 127.209 265.882 121.967 262.088 114.775L266.985 107.017C271.381 111.472 275.254 128.948 286.032 141.982Z" fill="#FF92CE"/>
<g style="mix-blend-mode:multiply">
<path d="M281.767 144.692C279.702 146.339 277.015 148.285 274.891 148.285C272.833 142.535 271.608 137.76 270.189 133.786C270.34 134.098 275.125 144.076 276.946 145.552C278.471 146.786 280.951 145.315 281.764 144.692H281.767Z" fill="#F4D7E7"/>
</g>
<path d="M248.475 131.563C253.572 133.39 258.785 133.302 264.104 131.563L264.169 134.187C259.177 135.92 253.642 136.064 247.971 134.293L248.478 131.56L248.475 131.563Z" fill="#1E4E87"/>
<path d="M250.253 92.5866C250.652 90.6701 251.208 87.7755 253.691 87.061C253.691 87.061 254.103 90.0115 256.714 91.22C259.612 92.5603 260.326 95.7644 260.326 95.7644C260.326 95.7644 262.543 93.5713 262.694 90.7722C262.846 87.9731 258.845 83.9886 255.354 83.6659C249.812 83.1521 249.456 89.6196 250.253 92.5866Z" fill="#30334D"/>
<path d="M259.546 92.6394C258.743 92.3134 257.844 92.3298 257.024 92.0598C255.519 91.5659 254.333 90.3211 253.938 88.7866C253.698 87.8513 253.744 86.8536 254.04 85.9381C254.057 85.892 253.984 85.8722 253.968 85.915C253.362 87.4298 253.612 89.1916 254.557 90.5121C254.985 91.1081 255.542 91.612 256.181 91.9742C256.5 92.1553 256.842 92.3068 257.198 92.4056C257.639 92.5307 258.094 92.5834 258.545 92.6624C259.401 92.8139 260.465 93.1432 260.695 94.1081C260.722 94.2167 260.876 94.1739 260.86 94.0653C260.745 93.3704 260.168 92.8864 259.546 92.6361V92.6394Z" fill="#30334D"/>
<path d="M255.897 97.3615C255.914 97.6875 255.792 97.9905 255.578 98.221C255.347 98.4712 255.011 98.6392 254.626 98.659C254.215 98.682 253.839 98.5305 253.579 98.277C253.372 98.0761 253.24 97.8061 253.223 97.5064C253.187 96.828 254.073 97.2923 254.57 97.266C254.988 97.243 255.858 96.6831 255.894 97.3615H255.897Z" fill="#B84F4F"/>
<path d="M255.578 98.2243C255.347 98.4746 255.011 98.6425 254.626 98.6623C254.214 98.6853 253.839 98.5339 253.579 98.2803C253.77 98.0662 254.122 97.9148 254.534 97.8917C254.982 97.8687 255.377 98.0037 255.578 98.2243Z" fill="#F59595"/>
<path d="M252.881 94.1444C252.838 94.5 252.565 94.7569 252.268 94.7207C251.972 94.6845 251.768 94.3683 251.811 94.016C251.853 93.6603 252.127 93.4035 252.423 93.4397C252.719 93.4759 252.924 93.792 252.881 94.1444Z" fill="#FFE9E3"/>
<path d="M252.766 94.1312C252.733 94.4111 252.515 94.612 252.285 94.5857C252.054 94.556 251.893 94.309 251.926 94.0324C251.959 93.7525 252.176 93.5517 252.407 93.578C252.637 93.6043 252.799 93.8546 252.766 94.1312Z" fill="#30334D"/>
<path d="M252.608 94.1116C252.588 94.2861 252.453 94.4145 252.305 94.3948C252.16 94.3783 252.058 94.2202 252.081 94.0457C252.1 93.8712 252.235 93.7427 252.384 93.7625C252.528 93.779 252.631 93.937 252.608 94.1116Z" fill="#181A2E"/>
<path d="M252.081 93.8678C252.087 93.802 252.147 93.7559 252.212 93.7657C252.278 93.7723 252.324 93.8316 252.314 93.8975C252.308 93.9633 252.249 94.0094 252.183 93.9995C252.117 93.993 252.071 93.9337 252.081 93.8678Z" fill="white"/>
<path d="M252.39 93.7657C252.393 93.7361 252.42 93.7163 252.449 93.7196C252.479 93.7229 252.499 93.7492 252.496 93.7789C252.492 93.8085 252.466 93.8283 252.436 93.825C252.407 93.8217 252.387 93.7953 252.39 93.7657Z" fill="white"/>
<path d="M256.006 94.085C255.996 94.4407 256.23 94.737 256.526 94.7436C256.823 94.7502 257.073 94.4703 257.083 94.1114C257.093 93.7557 256.859 93.4593 256.562 93.4528C256.266 93.4462 256.016 93.7261 256.006 94.085Z" fill="#FFE9E3"/>
<path d="M256.121 94.0882C256.115 94.3681 256.296 94.6019 256.53 94.6052C256.763 94.6118 256.958 94.3879 256.964 94.108C256.971 93.8281 256.79 93.5943 256.556 93.591C256.322 93.5844 256.128 93.8083 256.121 94.0882Z" fill="#30334D"/>
<path d="M256.279 94.0917C256.276 94.2662 256.391 94.4144 256.536 94.4177C256.681 94.421 256.806 94.2827 256.809 94.1049C256.813 93.9303 256.701 93.7822 256.553 93.7789C256.408 93.7756 256.283 93.9139 256.279 94.0917Z" fill="#181A2E"/>
<path d="M256.836 93.927C256.836 93.8612 256.786 93.8085 256.721 93.8052C256.655 93.8052 256.602 93.8546 256.599 93.9204C256.599 93.9863 256.648 94.039 256.714 94.0423C256.78 94.0423 256.832 93.9929 256.836 93.927Z" fill="white"/>
<path d="M252.897 92.9918C252.637 92.7415 252.232 92.7217 251.936 92.9226C251.886 92.9556 251.88 93.0379 251.916 93.0807C251.956 93.1334 252.025 93.1334 252.074 93.1004C252.173 93.0346 252.298 93.0017 252.413 93.0115C252.545 93.0214 252.66 93.0774 252.756 93.1729C252.799 93.2157 252.881 93.1959 252.914 93.1498C252.953 93.0972 252.937 93.0346 252.891 92.9918H252.897Z" fill="#30334D"/>
<path d="M257.106 93.1038C256.839 92.8568 256.437 92.847 256.144 93.0511C256.095 93.0873 256.092 93.1664 256.128 93.2125C256.167 93.2619 256.236 93.2652 256.289 93.2289C256.385 93.1598 256.513 93.1269 256.628 93.1334C256.76 93.1433 256.875 93.196 256.974 93.2882C257.02 93.331 257.099 93.308 257.132 93.2619C257.172 93.2059 257.152 93.1466 257.106 93.1038Z" fill="#30334D"/>
<path d="M254.745 96.0114C254.643 95.9818 254.544 96.0049 254.442 96.0049C254.346 96.0049 254.29 95.962 254.287 95.8665C254.287 95.7645 254.31 95.6591 254.327 95.557C254.343 95.4384 254.363 95.3232 254.379 95.2046C254.386 95.1651 254.343 95.1289 254.303 95.1289C254.257 95.1289 254.231 95.1651 254.224 95.2046C254.205 95.3331 254.185 95.4648 254.165 95.5932C254.149 95.7085 254.116 95.8303 254.142 95.9456C254.165 96.0509 254.251 96.1267 254.359 96.1464C254.471 96.1662 254.593 96.1234 254.702 96.1563C254.797 96.1827 254.84 96.0411 254.745 96.0114Z" fill="#EB9B9B"/>
<path d="M256.48 93.9434C256.483 93.9138 256.51 93.894 256.539 93.8973C256.569 93.9006 256.589 93.927 256.585 93.9566C256.582 93.9862 256.556 94.006 256.526 94.0027C256.497 93.9994 256.477 93.9731 256.48 93.9434Z" fill="white"/>
<path d="M257.659 95.3036C257.652 95.4847 257.363 95.6197 257.01 95.6065C256.658 95.5933 256.378 95.4353 256.385 95.2575C256.391 95.0763 256.681 94.9413 257.033 94.9545C257.386 94.9677 257.666 95.1257 257.659 95.3036Z" fill="#FFAEA8"/>
<path d="M252.38 95.2311C252.374 95.4122 252.084 95.5472 251.732 95.534C251.379 95.5208 251.099 95.3628 251.106 95.1849C251.113 95.0038 251.402 94.8688 251.755 94.882C252.107 94.8952 252.387 95.0532 252.38 95.2311Z" fill="#FFAEA8"/>
<g style="mix-blend-mode:multiply">
<path d="M248.537 122.072C248.485 121.865 248.425 121.667 248.356 121.476C247.731 119.705 247.339 117.913 247.112 116.194C243.262 118.562 238.247 121.005 234.891 121.229C232.128 121.41 228.318 119.935 224.449 117.66C227.587 118.661 232.53 120.185 235.487 119.25C238.359 118.341 246.364 115.997 247.968 111.982C247.968 111.982 248.702 119.326 248.534 122.076L248.537 122.072Z" fill="#F4D7E7"/>
</g>
<path d="M306.867 184.284C307.028 184.389 310.499 184.274 311.984 181.834C312.722 180.619 312.939 178.896 313.328 177.53C313.41 177.24 313.736 176.456 313.848 176.186C313.219 176.216 312.57 176.519 312.455 176.621C312.893 175.86 313.742 176.144 314.213 175.468C314.75 174.701 315.955 172.656 317.312 172.422C316.048 171.813 314.589 171.609 313.436 171.79C313.242 171.82 313.067 171.922 312.962 172.087C312.761 172.39 312.745 172.775 312.695 173.275C312.583 173.249 312.409 172.61 312.755 171.919C311.931 171.823 310.822 172.258 310.249 172.831C310.021 173.288 310.268 173.661 310.413 174.303C310.268 174.326 309.9 173.799 309.998 173.048C305.987 175.735 304.601 182.002 306.867 184.287V184.284Z" fill="#6D9C5D"/>
<path d="M306.867 184.284C307.028 184.389 310.499 184.274 311.984 181.834C312.722 180.619 312.939 178.896 313.328 177.53C313.41 177.24 313.736 176.456 313.848 176.186C313.219 176.216 312.57 176.519 312.455 176.621C312.893 175.86 313.743 176.143 314.214 175.468C314.75 174.701 315.956 172.656 317.312 172.422C317.312 172.422 311.773 172.936 310.901 176.545C310.028 180.154 308.372 183.605 306.867 184.287V184.284Z" fill="#568746"/>
<path d="M299.036 174.224C300.34 177.764 299.503 180.945 297.748 182.348C295.469 181.613 293.596 179.75 292.812 177.494C293.471 178.11 294.037 178.199 294.017 178.096C293.388 177.77 292.921 177.346 292.618 176.838C292.255 176.042 292.196 175.129 292.315 174.138C292.855 174.797 293.471 174.919 293.553 174.761C292.987 174.527 292.585 174.099 292.308 173.664C292.302 173.203 292.305 172.739 292.295 172.278C292.295 172.185 292.292 172.093 292.288 171.998C292.756 172.548 293.125 172.584 293.115 172.488C292.792 172.218 292.516 171.922 292.272 171.556C292.206 170.223 292.002 168.886 291.347 167.737C292.223 168.069 293.085 168.445 293.77 169.255C293.869 169.525 293.909 169.824 293.8 170.157C293.872 170.17 294.067 169.88 294.001 169.409C294.554 169.627 295.19 169.92 295.476 170.437C295.66 170.872 295.585 171.273 295.476 171.784C295.549 171.741 295.838 171.217 295.749 170.631C295.789 170.661 295.832 170.684 295.868 170.72C296.392 171.23 297.172 171.425 297.422 171.962C297.643 172.409 297.458 173.009 297.182 173.621C297.323 173.605 297.837 173.022 297.722 172.34C298.252 172.903 298.865 173.677 299.036 174.227V174.224Z" fill="#6D9C5D"/>
<path d="M295.068 173.809C295.4 177.072 296.322 181.04 297.748 182.348C295.469 181.613 293.596 179.75 292.812 177.494C293.471 178.11 294.037 178.199 294.017 178.096C293.388 177.77 292.921 177.346 292.618 176.838C292.255 176.042 292.196 175.129 292.315 174.138C292.855 174.797 293.471 174.919 293.553 174.761C292.987 174.527 292.585 174.099 292.308 173.664C292.302 173.203 292.305 172.739 292.295 172.278C292.295 172.185 292.292 172.093 292.288 171.998C292.756 172.548 293.125 172.584 293.115 172.488C292.792 172.218 292.516 171.922 292.272 171.556C292.206 170.223 292.002 168.886 291.347 167.737C291.347 167.737 294.738 170.546 295.071 173.809H295.068Z" fill="#568746"/>
<path d="M305.243 213.197C303.873 216.272 303.093 219.588 302.754 222.931C302.457 225.835 302.51 228.756 302.52 231.671C302.523 233.34 302.497 235.013 302.421 236.683C302.408 236.953 302.816 236.946 302.839 236.683C303.08 233.791 302.955 230.887 302.971 227.989C302.987 224.976 303.175 221.966 303.801 219.012C304.216 217.063 304.802 215.169 305.457 213.289C305.5 213.167 305.299 213.078 305.246 213.2L305.243 213.197Z" fill="#34543C"/>
<path d="M301.4 206.183C301.249 210.444 301.15 214.708 301.1 218.973C301.051 223.095 301.061 227.222 301.203 231.344C301.282 233.653 301.387 235.961 301.601 238.263C301.627 238.559 302.085 238.566 302.069 238.263C301.835 234.17 301.637 230.08 301.581 225.98C301.525 221.808 301.548 217.639 301.598 213.467C301.627 211.04 301.65 208.613 301.644 206.183C301.644 206.024 301.403 206.024 301.397 206.183H301.4Z" fill="#34543C"/>
<path d="M310.943 193.864C309.03 195.948 307.542 198.365 306.402 200.947C305.181 203.713 304.328 206.624 303.705 209.578C303.053 212.67 302.655 215.811 302.411 218.96C302.167 222.111 302.079 225.276 302.088 228.437C302.095 231.384 302.2 234.325 302.335 237.269C302.352 237.601 302.365 237.934 302.381 238.263C302.398 238.629 302.968 238.629 302.951 238.263C302.813 235.398 302.717 232.53 302.688 229.665C302.658 226.543 302.714 223.422 302.915 220.306C303.116 217.175 303.462 214.05 304.038 210.961C304.591 207.994 305.358 205.053 306.458 202.238C307.476 199.63 308.803 197.101 310.515 194.878C310.726 194.608 310.94 194.341 311.161 194.078C311.286 193.929 311.078 193.715 310.943 193.86V193.864Z" fill="#34543C"/>
<path d="M295.502 206.433C296.401 208.353 297.123 210.385 297.715 212.416C298.298 214.422 298.769 216.454 299.125 218.512C299.843 222.691 300.122 226.932 300.353 231.16C300.481 233.528 300.587 235.892 300.732 238.26C300.755 238.652 301.367 238.655 301.344 238.26C301.094 233.992 300.969 229.718 300.597 225.46C300.228 221.235 299.635 217.007 298.456 212.924C297.791 210.615 296.869 208.412 295.743 206.291C295.657 206.13 295.427 206.272 295.502 206.433Z" fill="#34543C"/>
<path d="M295.634 194.021C296.477 199.88 297.659 205.685 298.654 211.521C299.615 217.181 300.468 222.865 300.992 228.585C301.137 230.176 301.259 231.766 301.351 233.36C301.446 234.993 301.446 236.633 301.562 238.263C301.585 238.612 302.095 238.619 302.108 238.263C302.158 236.821 302.052 235.365 301.976 233.923C301.901 232.484 301.799 231.048 301.68 229.612C301.44 226.751 301.114 223.899 300.728 221.054C299.951 215.291 298.934 209.565 297.887 203.848C297.281 200.535 296.652 197.232 295.95 193.939C295.907 193.732 295.608 193.824 295.637 194.025L295.634 194.021Z" fill="#34543C"/>
<path d="M297.919 182.018C298.035 183.658 298.114 185.298 298.226 186.935C298.348 188.697 298.483 190.455 298.618 192.217C298.904 195.977 299.181 199.741 299.447 203.505C299.724 207.384 299.984 211.264 300.221 215.143C300.448 218.894 300.659 222.644 300.83 226.398C300.985 229.774 301.107 233.152 301.163 236.534C301.17 236.92 301.18 237.308 301.189 237.693C301.199 238.059 301.756 238.062 301.759 237.693C301.776 234.381 301.624 231.061 301.486 227.752C301.331 224.031 301.133 220.313 300.903 216.598C300.666 212.719 300.399 208.843 300.116 204.967C299.839 201.174 299.543 197.384 299.23 193.597C298.947 190.132 298.644 186.675 298.278 183.22C298.236 182.822 298.196 182.42 298.157 182.022C298.143 181.87 297.906 181.867 297.916 182.022L297.919 182.018Z" fill="#34543C"/>
<path d="M307.094 183.49C305.978 186.951 305.154 190.528 304.463 194.097C303.778 197.641 303.231 201.21 302.816 204.796C302.401 208.396 302.108 212.011 301.924 215.63C301.739 219.21 301.66 222.796 301.667 226.382C301.674 229.945 301.766 233.508 301.924 237.068C301.944 237.506 301.963 237.941 301.99 238.378C302.009 238.757 302.599 238.76 302.582 238.378C302.421 234.842 302.299 231.305 302.27 227.765C302.24 224.186 302.296 220.603 302.451 217.023C302.609 213.44 302.866 209.861 303.244 206.291C303.626 202.685 304.124 199.093 304.766 195.526C305.408 191.957 306.182 188.413 307.081 184.897C307.193 184.459 307.295 184.017 307.403 183.579C307.453 183.378 307.16 183.299 307.094 183.494V183.49Z" fill="#34543C"/>
<path d="M296.187 206.7C289.144 207.724 290.398 198.003 281.507 198.418C280.322 198.474 278.955 198.707 277.364 199.172C277.644 197.815 280.424 195.717 282.152 195.424C282.712 195.655 283.203 196.093 283.536 196.827C283.68 196.738 283.536 195.866 282.729 195.161C284.448 195.036 285.623 193.926 287.102 194.012C287.54 194.542 287.754 195.23 287.777 196.05C287.958 196.099 288.373 195.223 287.78 193.969C289.47 194.545 292.746 194.377 294.472 196.537C294.656 197.222 294.426 198.378 294.024 199C294.412 199.116 295.002 198.065 294.959 197.107C298.73 201.823 296.184 206.7 296.184 206.7H296.187Z" fill="#6D9C5D"/>
<path d="M296.187 206.699C289.144 207.724 290.398 198.003 281.507 198.417C283.552 197.907 287.359 197.383 289.18 198.849C293.029 201.948 292.677 205.873 296.187 206.699Z" fill="#568746"/>
<path d="M310.486 194.469C317.529 195.493 316.275 185.772 325.166 186.187C326.351 186.243 327.718 186.477 329.308 186.941C328.429 185.061 326.249 183.487 324.52 183.194C323.961 183.425 323.47 183.863 323.137 184.597C322.992 184.508 323.137 183.635 323.944 182.931C322.225 182.805 321.05 181.696 319.571 181.781C319.133 182.312 318.919 183 318.896 183.82C318.715 183.869 318.3 182.993 318.893 181.739C317.203 182.315 313.927 182.147 312.201 184.307C312.017 184.992 312.247 186.148 312.649 186.77C312.261 186.886 311.671 185.832 311.714 184.877C307.943 189.592 310.489 194.469 310.489 194.469H310.486Z" fill="#6D9C5D"/>
<path d="M310.486 194.469C317.529 195.494 316.275 185.773 325.166 186.188C323.121 185.677 319.314 185.153 317.493 186.619C313.644 189.718 313.996 193.643 310.486 194.469Z" fill="#568746"/>
<path d="M296.108 194.459C295.904 194.621 291.221 194.881 288.933 191.779C287.793 190.235 287.296 187.943 286.611 186.151C286.466 185.773 285.933 184.758 285.748 184.406C286.598 184.37 287.507 184.699 287.672 184.824C286.99 183.853 285.883 184.333 285.169 183.484C284.356 182.516 282.492 179.911 280.638 179.759C282.268 178.788 284.201 178.337 285.778 178.446C286.042 178.462 286.289 178.581 286.453 178.785C286.756 179.167 286.829 179.684 286.954 180.349C287.102 180.3 287.257 179.417 286.713 178.531C287.81 178.304 289.351 178.755 290.191 179.46C290.553 180.049 290.263 180.579 290.145 181.459C290.339 181.475 290.774 180.721 290.553 179.723C296.27 182.858 298.888 191.12 296.108 194.463V194.459Z" fill="#6D9C5D"/>
<path d="M296.108 194.46C295.904 194.621 291.221 194.881 288.933 191.779C287.793 190.235 287.296 187.943 286.611 186.151C286.466 185.773 285.933 184.758 285.748 184.406C286.598 184.37 287.507 184.699 287.671 184.824C286.99 183.853 285.883 184.334 285.169 183.484C284.355 182.516 282.492 179.911 280.638 179.76C280.638 179.76 288.149 179.786 289.753 184.534C291.356 189.283 294.001 193.725 296.105 194.463L296.108 194.46Z" fill="#568746"/>
<path d="M305.158 213.579C305.362 213.74 310.044 214 312.333 210.898C313.472 209.354 313.97 207.062 314.655 205.27C314.799 204.892 315.333 203.877 315.517 203.525C314.668 203.489 313.759 203.818 313.594 203.943C314.276 202.972 315.382 203.453 316.097 202.603C316.91 201.635 318.774 199.03 320.628 198.879C318.998 197.907 317.065 197.456 315.488 197.565C315.224 197.581 314.977 197.7 314.813 197.904C314.51 198.286 314.437 198.803 314.312 199.468C314.164 199.419 314.009 198.536 314.553 197.65C313.456 197.423 311.915 197.874 311.075 198.579C310.713 199.168 311.003 199.699 311.121 200.578C310.927 200.594 310.492 199.84 310.713 198.842C304.996 201.977 302.378 210.24 305.158 213.582V213.579Z" fill="#6D9C5D"/>
<path d="M305.158 213.579C305.362 213.74 310.044 214 312.333 210.898C313.472 209.354 313.97 207.062 314.655 205.27C314.799 204.892 315.333 203.877 315.517 203.525C314.668 203.489 313.759 203.818 313.594 203.943C314.276 202.972 315.382 203.453 316.097 202.603C316.91 201.635 318.774 199.03 320.628 198.879C320.628 198.879 313.117 198.905 311.513 203.654C309.909 208.402 307.265 212.844 305.161 213.582L305.158 213.579Z" fill="#568746"/>
<path d="M308.931 194.565C308.671 200.934 305.309 205.353 301.657 206.407C298.578 203.785 296.859 199.663 297.099 195.635C297.725 197.022 298.552 197.529 298.588 197.357C297.817 196.439 297.363 195.477 297.221 194.486C297.175 193.004 297.672 191.545 298.499 190.073C298.917 191.453 299.8 192.039 300.024 191.845C299.296 191.114 298.944 190.185 298.792 189.326C299.082 188.601 299.385 187.88 299.668 187.156C299.724 187.011 299.783 186.863 299.839 186.714C300.211 187.877 300.761 188.17 300.811 188.015C300.481 187.386 300.244 186.741 300.096 186.016C300.86 183.896 301.403 181.676 301.127 179.457C302.279 180.547 303.379 181.689 303.923 183.398C303.903 183.886 303.768 184.376 303.386 184.824C303.488 184.893 303.982 184.564 304.186 183.787C304.911 184.485 305.707 185.351 305.823 186.346C305.829 187.146 305.454 187.719 304.95 188.446C305.092 188.423 305.882 187.794 306.126 186.826C306.168 186.899 306.221 186.965 306.254 187.044C306.741 188.18 307.831 188.987 307.874 189.988C307.927 190.831 307.255 191.644 306.422 192.418C306.653 192.484 307.835 191.911 308.095 190.771C308.556 191.993 309.01 193.597 308.921 194.565H308.931Z" fill="#6D9C5D"/>
<path d="M303.01 191.344C301.417 196.649 300.281 203.44 301.657 206.407C298.578 203.785 296.859 199.663 297.099 195.635C297.725 197.022 298.552 197.529 298.588 197.357C297.817 196.439 297.363 195.477 297.221 194.486C297.175 193.004 297.672 191.545 298.499 190.073C298.917 191.453 299.8 192.039 300.024 191.845C299.296 191.114 298.944 190.185 298.792 189.326C299.082 188.601 299.385 187.88 299.668 187.156C299.724 187.011 299.783 186.863 299.839 186.714C300.211 187.877 300.761 188.17 300.811 188.015C300.481 187.386 300.244 186.741 300.096 186.016C300.86 183.896 301.403 181.676 301.127 179.457C301.127 179.457 304.601 186.039 303.004 191.344H303.01Z" fill="#568746"/>
<path d="M308.276 241.708H295.054C293.573 241.708 292.492 239.37 292.874 236.989L294.84 224.722H308.487L310.453 236.989C310.835 239.37 309.754 241.708 308.273 241.708H308.276Z" fill="#DD5858"/>
<g style="mix-blend-mode:multiply">
<path d="M310.456 236.985L308.49 224.719H294.844L294.307 228.061H296.286C302.046 228.061 306.955 232.247 307.868 237.934L308.253 240.328C308.329 240.796 308.345 241.257 308.315 241.704C309.778 241.665 310.838 239.35 310.459 236.985H310.456Z" fill="#D8DBE6"/>
</g>
<path d="M308.042 225.5H295.292C294.518 225.5 293.892 224.874 293.892 224.1C293.892 223.326 294.518 222.7 295.292 222.7H308.042C308.816 222.7 309.442 223.326 309.442 224.1C309.442 224.874 308.816 225.5 308.042 225.5Z" fill="#DD5858"/>
<path d="M114.884 42.2659H121.694V43.6127H116.29V46.8004H121.114V48.1637H116.29V51.3941H121.898V52.741H114.884V42.2659Z" fill="black"/>
<path d="M125.214 46.7444L125.316 48.2065L125.273 47.976C125.458 47.5315 125.767 47.1758 126.202 46.9124C126.636 46.6456 127.144 46.5139 127.723 46.5139C128.303 46.5139 128.744 46.6819 129.106 47.0145C129.468 47.3471 129.653 47.7817 129.663 48.3119V52.7443H128.299V48.7729C128.29 48.4535 128.194 48.1901 128.016 47.9826C127.838 47.7751 127.558 47.6698 127.183 47.6698C126.844 47.6698 126.534 47.7653 126.248 47.9596C125.961 48.1538 125.741 48.4173 125.583 48.7565C125.425 49.0956 125.342 49.4875 125.342 49.9288V52.741H123.979V46.7411H125.211L125.214 46.7444Z" fill="black"/>
<path d="M134.908 55.7244C134.464 55.7244 134.072 55.6717 133.726 55.5663C133.384 55.4609 133.074 55.316 132.798 55.1316C132.521 54.9472 132.254 54.7463 131.994 54.5224L132.791 53.5938C133.11 53.8836 133.433 54.1108 133.763 54.2754C134.092 54.4401 134.457 54.5224 134.862 54.5224C135.317 54.5224 135.699 54.4467 136.015 54.2985C136.328 54.147 136.565 53.9428 136.726 53.6827C136.884 53.4225 136.97 53.1163 136.98 52.7705L136.993 51.1471L137.108 51.4072C136.934 51.8221 136.621 52.1745 136.166 52.4577C135.712 52.7409 135.162 52.8858 134.513 52.8858C133.973 52.8858 133.469 52.7442 133.005 52.4643C132.541 52.1844 132.169 51.8057 131.889 51.3282C131.609 50.8507 131.467 50.3106 131.467 49.7113C131.467 49.112 131.612 48.5291 131.902 48.045C132.192 47.561 132.577 47.1823 133.055 46.9089C133.532 46.6356 134.052 46.4973 134.612 46.4973C135.142 46.4973 135.63 46.606 136.068 46.8233C136.506 47.0407 136.832 47.3173 137.046 47.6565L136.96 47.9034L137.092 46.7443H138.337V52.787C138.337 53.327 138.198 53.821 137.925 54.2655C137.648 54.7101 137.253 55.0658 136.736 55.3292C136.219 55.5959 135.607 55.7276 134.902 55.7276L134.908 55.7244ZM132.837 49.685C132.837 50.0702 132.933 50.4226 133.12 50.742C133.308 51.0614 133.558 51.3117 133.874 51.4961C134.187 51.6805 134.533 51.7727 134.912 51.7727C135.29 51.7727 135.59 51.7069 135.877 51.5784C136.16 51.4467 136.4 51.2656 136.595 51.0351C136.789 50.8046 136.924 50.5477 137 50.2678V49.0659C136.914 48.7761 136.769 48.5258 136.565 48.3118C136.361 48.0977 136.12 47.9298 135.84 47.8046C135.561 47.6795 135.251 47.6169 134.912 47.6169C134.536 47.6169 134.191 47.7059 133.874 47.8837C133.562 48.0615 133.308 48.3052 133.12 48.6147C132.933 48.9243 132.837 49.2799 132.837 49.6883V49.685Z" fill="black"/>
<path d="M140.572 44.5676C140.572 44.3535 140.658 44.1757 140.826 44.0308C140.994 43.8859 141.182 43.8135 141.382 43.8135C141.583 43.8135 141.768 43.8859 141.932 44.0308C142.097 44.1757 142.179 44.3535 142.179 44.5676C142.179 44.7816 142.097 44.9726 141.932 45.1109C141.768 45.2525 141.583 45.3217 141.382 45.3217C141.182 45.3217 140.994 45.2525 140.826 45.1109C140.658 44.9726 140.572 44.7882 140.572 44.5676ZM140.661 46.7443H142.025V52.7441H140.661V46.7443Z" fill="black"/>
<path d="M145.571 46.7444L145.673 48.2065L145.63 47.976C145.815 47.5315 146.124 47.1758 146.559 46.9124C146.994 46.6456 147.501 46.5139 148.08 46.5139C148.66 46.5139 149.101 46.6819 149.464 47.0145C149.826 47.3471 150.01 47.7817 150.02 48.3119V52.7443H148.657V48.7729C148.647 48.4535 148.551 48.1901 148.374 47.9826C148.196 47.7751 147.916 47.6698 147.54 47.6698C147.201 47.6698 146.892 47.7653 146.605 47.9596C146.319 48.1538 146.098 48.4173 145.94 48.7565C145.782 49.0956 145.7 49.4875 145.7 49.9288V52.741H144.336V46.7411H145.568L145.571 46.7444Z" fill="black"/>
<path d="M155.151 52.8859C154.466 52.8859 153.876 52.7476 153.382 52.4743C152.888 52.2009 152.506 51.8222 152.236 51.3448C151.966 50.8673 151.831 50.3173 151.831 49.7015C151.831 49.0857 151.983 48.5753 152.289 48.0946C152.592 47.6105 152.997 47.2252 153.498 46.9354C153.998 46.6456 154.561 46.5007 155.177 46.5007C155.967 46.5007 156.626 46.7312 157.146 47.1956C157.667 47.6599 158.025 48.2954 158.22 49.1088L153.264 50.8475L152.944 50.0506L156.988 48.5589L156.712 48.763C156.596 48.4436 156.402 48.1703 156.132 47.9365C155.862 47.706 155.51 47.5874 155.075 47.5874C154.706 47.5874 154.383 47.673 154.097 47.8476C153.81 48.0221 153.586 48.2592 153.422 48.5655C153.257 48.8684 153.175 49.2241 153.175 49.6291C153.175 50.0341 153.26 50.3964 153.428 50.7158C153.596 51.0352 153.833 51.2822 154.14 51.4633C154.443 51.6411 154.788 51.73 155.177 51.73C155.437 51.73 155.691 51.6806 155.938 51.5851C156.185 51.4897 156.418 51.3645 156.639 51.2097L157.248 52.2108C156.949 52.415 156.613 52.5796 156.241 52.7048C155.869 52.8299 155.503 52.8925 155.147 52.8925L155.151 52.8859Z" fill="black"/>
<path d="M222.723 37.5601H201.539C195.818 37.5601 191.18 42.1983 191.18 47.9199C191.18 53.6415 195.818 58.2797 201.539 58.2797H222.723C228.445 58.2797 233.083 53.6415 233.083 47.9199C233.083 42.1983 228.445 37.5601 222.723 37.5601Z" fill="#00D698"/>
<g opacity="0.3">
<path opacity="0.02" d="M221.396 58.6978C226.763 58.6978 231.114 54.3471 231.114 48.9802C231.114 43.6132 226.763 39.2625 221.396 39.2625C216.029 39.2625 211.678 43.6132 211.678 48.9802C211.678 54.3471 216.029 58.6978 221.396 58.6978Z" fill="#00D295"/>
<path opacity="0.04" d="M221.419 58.6486C226.772 58.6486 231.111 54.3096 231.111 48.9572C231.111 43.6048 226.772 39.2659 221.419 39.2659C216.067 39.2659 211.728 43.6048 211.728 48.9572C211.728 54.3096 216.067 58.6486 221.419 58.6486Z" fill="#00CE92"/>
<path opacity="0.06" d="M221.442 58.6025C226.782 58.6025 231.111 54.2738 231.111 48.9342C231.111 43.5945 226.782 39.2659 221.442 39.2659C216.103 39.2659 211.774 43.5945 211.774 48.9342C211.774 54.2738 216.103 58.6025 221.442 58.6025Z" fill="#00C98F"/>
<path opacity="0.08" d="M221.465 58.5564C226.792 58.5564 231.111 54.238 231.111 48.9111C231.111 43.5842 226.792 39.2659 221.465 39.2659C216.138 39.2659 211.82 43.5842 211.82 48.9111C211.82 54.238 216.138 58.5564 221.465 58.5564Z" fill="#00C58C"/>
<path opacity="0.1" d="M221.488 58.5103C226.802 58.5103 231.111 54.2023 231.111 48.8881C231.111 43.5739 226.802 39.2659 221.488 39.2659C216.174 39.2659 211.866 43.5739 211.866 48.8881C211.866 54.2023 216.174 58.5103 221.488 58.5103Z" fill="#00C189"/>
<path opacity="0.12" d="M221.511 58.4642C226.813 58.4642 231.111 54.1665 231.111 48.865C231.111 43.5636 226.813 39.2659 221.511 39.2659C216.21 39.2659 211.912 43.5636 211.912 48.865C211.912 54.1665 216.21 58.4642 221.511 58.4642Z" fill="#00BD86"/>
<path opacity="0.14" d="M221.534 58.4181C226.823 58.4181 231.111 54.1307 231.111 48.842C231.111 43.5532 226.823 39.2659 221.534 39.2659C216.246 39.2659 211.958 43.5532 211.958 48.842C211.958 54.1307 216.246 58.4181 221.534 58.4181Z" fill="#00B983"/>
<path opacity="0.16" d="M221.557 58.372C226.833 58.372 231.11 54.0949 231.11 48.8189C231.11 43.5429 226.833 39.2659 221.557 39.2659C216.281 39.2659 212.004 43.5429 212.004 48.8189C212.004 54.0949 216.281 58.372 221.557 58.372Z" fill="#00B480"/>
<path opacity="0.18" d="M221.581 58.3259C226.844 58.3259 231.111 54.0591 231.111 48.7959C231.111 43.5326 226.844 39.2659 221.581 39.2659C216.317 39.2659 212.051 43.5326 212.051 48.7959C212.051 54.0591 216.317 58.3259 221.581 58.3259Z" fill="#00B07D"/>
<path opacity="0.2" d="M221.604 58.2763C226.854 58.2763 231.111 54.0199 231.111 48.7694C231.111 43.5189 226.854 39.2625 221.604 39.2625C216.353 39.2625 212.097 43.5189 212.097 48.7694C212.097 54.0199 216.353 58.2763 221.604 58.2763Z" fill="#00AC7A"/>
<path opacity="0.22" d="M221.63 58.2302C226.868 58.2302 231.114 53.9842 231.114 48.7463C231.114 43.5085 226.868 39.2625 221.63 39.2625C216.392 39.2625 212.146 43.5085 212.146 48.7463C212.146 53.9842 216.392 58.2302 221.63 58.2302Z" fill="#00A877"/>
<path opacity="0.24" d="M221.653 58.1841C226.878 58.1841 231.114 53.9484 231.114 48.7233C231.114 43.4982 226.878 39.2625 221.653 39.2625C216.428 39.2625 212.192 43.4982 212.192 48.7233C212.192 53.9484 216.428 58.1841 221.653 58.1841Z" fill="#00A474"/>
<path opacity="0.25" d="M221.676 58.1349C226.887 58.1349 231.111 53.9109 231.111 48.7004C231.111 43.4898 226.887 39.2659 221.676 39.2659C216.466 39.2659 212.242 43.4898 212.242 48.7004C212.242 53.9109 216.466 58.1349 221.676 58.1349Z" fill="#009F71"/>
<path opacity="0.27" d="M221.699 58.0888C226.897 58.0888 231.111 53.8751 231.111 48.6773C231.111 43.4795 226.897 39.2659 221.699 39.2659C216.501 39.2659 212.288 43.4795 212.288 48.6773C212.288 53.8751 216.501 58.0888 221.699 58.0888Z" fill="#009B6E"/>
<path opacity="0.29" d="M221.722 58.0427C226.907 58.0427 231.11 53.8393 231.11 48.6543C231.11 43.4692 226.907 39.2659 221.722 39.2659C216.537 39.2659 212.334 43.4692 212.334 48.6543C212.334 53.8393 216.537 58.0427 221.722 58.0427Z" fill="#00976B"/>
<path opacity="0.31" d="M221.745 57.9966C226.918 57.9966 231.111 53.8036 231.111 48.6312C231.111 43.4589 226.918 39.2659 221.745 39.2659C216.573 39.2659 212.38 43.4589 212.38 48.6312C212.38 53.8036 216.573 57.9966 221.745 57.9966Z" fill="#009368"/>
<path opacity="0.33" d="M221.768 57.9505C226.928 57.9505 231.111 53.7678 231.111 48.6082C231.111 43.4486 226.928 39.2659 221.768 39.2659C216.609 39.2659 212.426 43.4486 212.426 48.6082C212.426 53.7678 216.609 57.9505 221.768 57.9505Z" fill="#008F65"/>
<path opacity="0.35" d="M221.791 57.9044C226.938 57.9044 231.111 53.732 231.111 48.5851C231.111 43.4382 226.938 39.2659 221.791 39.2659C216.644 39.2659 212.472 43.4382 212.472 48.5851C212.472 53.732 216.644 57.9044 221.791 57.9044Z" fill="#008A62"/>
<path opacity="0.37" d="M221.814 57.8583C226.948 57.8583 231.111 53.6962 231.111 48.5621C231.111 43.4279 226.948 39.2659 221.814 39.2659C216.68 39.2659 212.518 43.4279 212.518 48.5621C212.518 53.6962 216.68 57.8583 221.814 57.8583Z" fill="#00865F"/>
<path opacity="0.39" d="M221.837 57.8122C226.959 57.8122 231.111 53.6604 231.111 48.539C231.111 43.4176 226.959 39.2659 221.837 39.2659C216.716 39.2659 212.564 43.4176 212.564 48.539C212.564 53.6604 216.716 57.8122 221.837 57.8122Z" fill="#00825C"/>
<path opacity="0.41" d="M221.86 57.7626C226.969 57.7626 231.111 53.6212 231.111 48.5125C231.111 43.4039 226.969 39.2625 221.86 39.2625C216.752 39.2625 212.61 43.4039 212.61 48.5125C212.61 53.6212 216.752 57.7626 221.86 57.7626Z" fill="#007E59"/>
<path opacity="0.43" d="M221.884 57.7165C226.979 57.7165 231.111 53.5854 231.111 48.4895C231.111 43.3935 226.979 39.2625 221.884 39.2625C216.788 39.2625 212.656 43.3935 212.656 48.4895C212.656 53.5854 216.788 57.7165 221.884 57.7165Z" fill="#007A56"/>
<path opacity="0.45" d="M221.91 57.6704C226.993 57.6704 231.114 53.5497 231.114 48.4664C231.114 43.3832 226.993 39.2625 221.91 39.2625C216.827 39.2625 212.706 43.3832 212.706 48.4664C212.706 53.5497 216.827 57.6704 221.91 57.6704Z" fill="#007553"/>
<path opacity="0.47" d="M221.933 57.6212C227.002 57.6212 231.111 53.5122 231.111 48.4435C231.111 43.3748 227.002 39.2659 221.933 39.2659C216.864 39.2659 212.755 43.3748 212.755 48.4435C212.755 53.5122 216.864 57.6212 221.933 57.6212Z" fill="#007150"/>
<path opacity="0.49" d="M221.956 57.5751C227.012 57.5751 231.111 53.4764 231.111 48.4205C231.111 43.3645 227.012 39.2659 221.956 39.2659C216.9 39.2659 212.801 43.3645 212.801 48.4205C212.801 53.4764 216.9 57.5751 221.956 57.5751Z" fill="#006D4D"/>
<path opacity="0.51" d="M221.979 57.529C227.022 57.529 231.11 53.4406 231.11 48.3974C231.11 43.3542 227.022 39.2659 221.979 39.2659C216.936 39.2659 212.847 43.3542 212.847 48.3974C212.847 53.4406 216.936 57.529 221.979 57.529Z" fill="#00694B"/>
<path opacity="0.53" d="M222.002 57.4828C227.033 57.4828 231.111 53.4048 231.111 48.3744C231.111 43.3439 227.033 39.2659 222.002 39.2659C216.972 39.2659 212.894 43.3439 212.894 48.3744C212.894 53.4048 216.972 57.4828 222.002 57.4828Z" fill="#006548"/>
<path opacity="0.55" d="M222.025 57.4367C227.043 57.4367 231.11 53.3691 231.11 48.3513C231.11 43.3336 227.043 39.2659 222.025 39.2659C217.007 39.2659 212.94 43.3336 212.94 48.3513C212.94 53.3691 217.007 57.4367 222.025 57.4367Z" fill="#006145"/>
<path opacity="0.57" d="M222.048 57.3906C227.053 57.3906 231.111 53.3333 231.111 48.3283C231.111 43.3232 227.053 39.2659 222.048 39.2659C217.043 39.2659 212.986 43.3232 212.986 48.3283C212.986 53.3333 217.043 57.3906 222.048 57.3906Z" fill="#005C42"/>
<path opacity="0.59" d="M222.071 57.3445C227.063 57.3445 231.111 53.2975 231.111 48.3052C231.111 43.3129 227.063 39.2659 222.071 39.2659C217.079 39.2659 213.032 43.3129 213.032 48.3052C213.032 53.2975 217.079 57.3445 222.071 57.3445Z" fill="#00583F"/>
<path opacity="0.61" d="M222.094 57.2984C227.074 57.2984 231.111 53.2617 231.111 48.2822C231.111 43.3026 227.074 39.2659 222.094 39.2659C217.115 39.2659 213.078 43.3026 213.078 48.2822C213.078 53.2617 217.115 57.2984 222.094 57.2984Z" fill="#00543C"/>
<path opacity="0.63" d="M222.117 57.2489C227.084 57.2489 231.111 53.2225 231.111 48.2557C231.111 43.2889 227.084 39.2625 222.117 39.2625C217.15 39.2625 213.124 43.2889 213.124 48.2557C213.124 53.2225 217.15 57.2489 222.117 57.2489Z" fill="#005039"/>
<path opacity="0.65" d="M222.14 57.2028C227.094 57.2028 231.11 53.1867 231.11 48.2326C231.11 43.2785 227.094 39.2625 222.14 39.2625C217.186 39.2625 213.17 43.2785 213.17 48.2326C213.17 53.1867 217.186 57.2028 222.14 57.2028Z" fill="#004C36"/>
<path opacity="0.67" d="M222.167 57.1567C227.108 57.1567 231.114 53.1509 231.114 48.2096C231.114 43.2682 227.108 39.2625 222.167 39.2625C217.225 39.2625 213.22 43.2682 213.22 48.2096C213.22 53.1509 217.225 57.1567 222.167 57.1567Z" fill="#004733"/>
<path opacity="0.69" d="M222.19 57.1074C227.117 57.1074 231.111 53.1135 231.111 48.1867C231.111 43.2598 227.117 39.2659 222.19 39.2659C217.263 39.2659 213.269 43.2598 213.269 48.1867C213.269 53.1135 217.263 57.1074 222.19 57.1074Z" fill="#004330"/>
<path opacity="0.71" d="M222.213 57.0613C227.127 57.0613 231.111 53.0777 231.111 48.1636C231.111 43.2495 227.127 39.2659 222.213 39.2659C217.299 39.2659 213.315 43.2495 213.315 48.1636C213.315 53.0777 217.299 57.0613 222.213 57.0613Z" fill="#003F2D"/>
<path opacity="0.73" d="M222.236 57.0152C227.137 57.0152 231.111 53.0419 231.111 48.1406C231.111 43.2392 227.137 39.2659 222.236 39.2659C217.335 39.2659 213.361 43.2392 213.361 48.1406C213.361 53.0419 217.335 57.0152 222.236 57.0152Z" fill="#003B2A"/>
<path opacity="0.75" d="M222.259 56.9691C227.148 56.9691 231.111 53.0061 231.111 48.1175C231.111 43.2289 227.148 39.2659 222.259 39.2659C217.37 39.2659 213.407 43.2289 213.407 48.1175C213.407 53.0061 217.37 56.9691 222.259 56.9691Z" fill="#003727"/>
<path opacity="0.76" d="M222.282 56.923C227.158 56.923 231.111 52.9703 231.111 48.0945C231.111 43.2186 227.158 39.2659 222.282 39.2659C217.406 39.2659 213.453 43.2186 213.453 48.0945C213.453 52.9703 217.406 56.923 222.282 56.923Z" fill="#003224"/>
<path opacity="0.78" d="M222.305 56.8769C227.168 56.8769 231.111 52.9346 231.111 48.0714C231.111 43.2082 227.168 39.2659 222.305 39.2659C217.442 39.2659 213.499 43.2082 213.499 48.0714C213.499 52.9346 217.442 56.8769 222.305 56.8769Z" fill="#002E21"/>
<path opacity="0.8" d="M222.328 56.8308C227.178 56.8308 231.111 52.8988 231.111 48.0484C231.111 43.1979 227.178 39.2659 222.328 39.2659C217.478 39.2659 213.546 43.1979 213.546 48.0484C213.546 52.8988 217.478 56.8308 222.328 56.8308Z" fill="#002A1E"/>
<path opacity="0.82" d="M222.351 56.7847C227.189 56.7847 231.11 52.863 231.11 48.0253C231.11 43.1876 227.189 39.2659 222.351 39.2659C217.513 39.2659 213.592 43.1876 213.592 48.0253C213.592 52.863 217.513 56.7847 222.351 56.7847Z" fill="#00261B"/>
<path opacity="0.84" d="M222.374 56.7386C227.199 56.7386 231.111 52.8272 231.111 48.0023C231.111 43.1773 227.199 39.2659 222.374 39.2659C217.549 39.2659 213.638 43.1773 213.638 48.0023C213.638 52.8272 217.549 56.7386 222.374 56.7386Z" fill="#002218"/>
<path opacity="0.86" d="M222.397 56.6891C227.209 56.6891 231.11 52.788 231.11 47.9758C231.11 43.1635 227.209 39.2625 222.397 39.2625C217.585 39.2625 213.684 43.1635 213.684 47.9758C213.684 52.788 217.585 56.6891 222.397 56.6891Z" fill="#001D15"/>
<path opacity="0.88" d="M222.424 56.643C227.223 56.643 231.114 52.7522 231.114 47.9527C231.114 43.1532 227.223 39.2625 222.424 39.2625C217.624 39.2625 213.733 43.1532 213.733 47.9527C213.733 52.7522 217.624 56.643 222.424 56.643Z" fill="#001912"/>
<path opacity="0.9" d="M222.447 56.5937C227.232 56.5937 231.111 52.7148 231.111 47.9298C231.111 43.1448 227.232 39.2659 222.447 39.2659C217.662 39.2659 213.783 43.1448 213.783 47.9298C213.783 52.7148 217.662 56.5937 222.447 56.5937Z" fill="#00150F"/>
<path opacity="0.92" d="M222.47 56.5476C227.242 56.5476 231.111 52.679 231.111 47.9067C231.111 43.1345 227.242 39.2659 222.47 39.2659C217.697 39.2659 213.829 43.1345 213.829 47.9067C213.829 52.679 217.697 56.5476 222.47 56.5476Z" fill="#00110C"/>
<path opacity="0.94" d="M222.493 56.5015C227.252 56.5015 231.111 52.6432 231.111 47.8837C231.111 43.1242 227.252 39.2659 222.493 39.2659C217.733 39.2659 213.875 43.1242 213.875 47.8837C213.875 52.6432 217.733 56.5015 222.493 56.5015Z" fill="#000D09"/>
<path opacity="0.96" d="M222.516 56.4554C227.263 56.4554 231.111 52.6074 231.111 47.8606C231.111 43.1139 227.263 39.2659 222.516 39.2659C217.769 39.2659 213.921 43.1139 213.921 47.8606C213.921 52.6074 217.769 56.4554 222.516 56.4554Z" fill="#000806"/>
<path opacity="0.98" d="M222.539 56.4093C227.273 56.4093 231.111 52.5716 231.111 47.8376C231.111 43.1036 227.273 39.2659 222.539 39.2659C217.805 39.2659 213.967 43.1036 213.967 47.8376C213.967 52.5716 217.805 56.4093 222.539 56.4093Z" fill="#000403"/>
<path d="M222.562 56.3632C227.283 56.3632 231.111 52.5358 231.111 47.8145C231.111 43.0932 227.283 39.2659 222.562 39.2659C217.841 39.2659 214.013 43.0932 214.013 47.8145C214.013 52.5358 217.841 56.3632 222.562 56.3632Z" fill="black"/>
</g>
<path d="M222.552 56.788C227.45 56.788 231.42 52.8176 231.42 47.9199C231.42 43.0221 227.45 39.0518 222.552 39.0518C217.654 39.0518 213.684 43.0221 213.684 47.9199C213.684 52.8176 217.654 56.788 222.552 56.788Z" fill="url(#paint0_linear_293_4754)"/>
<g opacity="0.19">
<path d="M222.723 37.5601H201.539C195.818 37.5601 191.18 42.1983 191.18 47.9199C191.18 53.6415 195.818 58.2797 201.539 58.2797H222.723C228.445 58.2797 233.083 53.6415 233.083 47.9199C233.083 42.1983 228.445 37.5601 222.723 37.5601Z" fill="black"/>
<path opacity="0.98" d="M201.543 37.583H222.72C228.44 37.583 233.08 42.2163 233.08 47.933C233.08 53.6496 228.443 58.2829 222.72 58.2829H201.543C195.823 58.2829 191.183 53.6496 191.183 47.933C191.183 42.2163 195.819 37.583 201.543 37.583Z" fill="#000403"/>
<path opacity="0.96" d="M201.543 37.6028H222.717C228.437 37.6028 233.073 42.2328 233.073 47.9429C233.073 53.653 228.437 58.2829 222.717 58.2829H201.543C195.823 58.2829 191.186 53.653 191.186 47.9429C191.186 42.2328 195.823 37.6028 201.543 37.6028Z" fill="#000806"/>
<path opacity="0.94" d="M201.546 37.626H222.717C228.437 37.626 233.073 42.2494 233.073 47.9562C233.073 53.6597 228.437 58.2864 222.717 58.2864H201.546C195.826 58.2864 191.189 53.663 191.189 47.9562C191.189 42.2527 195.826 37.626 201.546 37.626Z" fill="#000D09"/>
<path opacity="0.92" d="M201.549 37.6458H222.717C228.433 37.6458 233.07 42.2659 233.07 47.9628C233.07 53.6597 228.433 58.2798 222.717 58.2798H201.549C195.832 58.2798 191.196 53.6597 191.196 47.9628C191.196 42.2659 195.832 37.6458 201.549 37.6458Z" fill="#00110C"/>
<path opacity="0.9" d="M201.549 37.6687H222.713C228.43 37.6687 233.063 42.2822 233.063 47.9759C233.063 53.6695 228.43 58.283 222.713 58.283H201.549C195.832 58.283 191.199 53.6695 191.199 47.9759C191.199 42.2822 195.832 37.6687 201.549 37.6687Z" fill="#00150F"/>
<path opacity="0.88" d="M201.552 37.6885H222.713C228.43 37.6885 233.063 42.2987 233.063 47.9857C233.063 53.6728 228.43 58.283 222.713 58.283H201.552C195.836 58.283 191.203 53.6728 191.203 47.9857C191.203 42.2987 195.836 37.6885 201.552 37.6885Z" fill="#001912"/>
<path opacity="0.86" d="M201.552 37.7083H222.71C228.424 37.7083 233.057 42.3152 233.057 47.9956C233.057 53.6761 228.424 58.283 222.71 58.283H201.552C195.839 58.283 191.206 53.6761 191.206 47.9956C191.206 42.3152 195.839 37.7083 201.552 37.7083Z" fill="#001D15"/>
<path opacity="0.84" d="M201.556 37.7312H222.707C228.42 37.7312 233.053 42.3315 233.053 48.0054C233.053 53.6793 228.42 58.2796 222.707 58.2796H201.556C195.842 58.2796 191.209 53.6793 191.209 48.0054C191.209 42.3315 195.842 37.7312 201.556 37.7312Z" fill="#002218"/>
<path opacity="0.82" d="M201.556 37.751H222.704C228.417 37.751 233.047 42.348 233.047 48.0153C233.047 53.6859 228.417 58.2797 222.704 58.2797H201.556C195.842 58.2797 191.212 53.6826 191.212 48.0153C191.212 42.3447 195.842 37.751 201.556 37.751Z" fill="#00261B"/>
<path opacity="0.8" d="M201.559 37.7742H222.703C228.417 37.7742 233.047 42.3646 233.047 48.0286C233.047 53.6926 228.417 58.2831 222.703 58.2831H201.559C195.846 58.2831 191.216 53.6926 191.216 48.0286C191.216 42.3646 195.846 37.7742 201.559 37.7742Z" fill="#002A1E"/>
<path opacity="0.78" d="M201.562 37.7939H222.703C228.414 37.7939 233.044 42.3811 233.044 48.0385C233.044 53.6959 228.414 58.2831 222.703 58.2831H201.562C195.852 58.2831 191.222 53.6959 191.222 48.0385C191.222 42.3811 195.852 37.7939 201.562 37.7939Z" fill="#002E21"/>
<path opacity="0.76" d="M201.562 37.8169H222.7C228.41 37.8169 233.04 42.3975 233.04 48.0516C233.04 53.7024 228.41 58.2863 222.7 58.2863H201.562C195.852 58.2863 191.222 53.7057 191.222 48.0516C191.222 42.4008 195.852 37.8169 201.562 37.8169Z" fill="#003224"/>
<path opacity="0.75" d="M201.566 37.8367H222.7C228.41 37.8367 233.037 42.414 233.037 48.0582C233.037 53.7024 228.41 58.2797 222.7 58.2797H201.566C195.855 58.2797 191.229 53.7024 191.229 48.0582C191.229 42.414 195.855 37.8367 201.566 37.8367Z" fill="#003727"/>
<path opacity="0.73" d="M201.566 37.8596H222.697C228.404 37.8596 233.03 42.4303 233.03 48.0713C233.03 53.7122 228.404 58.2829 222.697 58.2829H201.566C195.859 58.2829 191.232 53.7122 191.232 48.0713C191.232 42.4303 195.859 37.8596 201.566 37.8596Z" fill="#003B2A"/>
<path opacity="0.71" d="M201.569 37.8794H222.694C228.4 37.8794 233.027 42.4468 233.027 48.0812C233.027 53.7155 228.4 58.2829 222.694 58.2829H201.569C195.862 58.2829 191.235 53.7155 191.235 48.0812C191.235 42.4468 195.862 37.8794 201.569 37.8794Z" fill="#003F2D"/>
<path opacity="0.69" d="M201.569 37.8992H222.69C228.397 37.8992 233.021 42.4633 233.021 48.0911C233.021 53.7188 228.394 58.283 222.69 58.283H201.569C195.862 58.283 191.239 53.7188 191.239 48.0911C191.239 42.4633 195.865 37.8992 201.569 37.8992Z" fill="#004330"/>
<path opacity="0.67" d="M201.572 37.9224H222.69C228.394 37.9224 233.02 42.4799 233.02 48.1011C233.02 53.7223 228.397 58.2798 222.69 58.2798H201.572C195.869 58.2798 191.242 53.7223 191.242 48.1011C191.242 42.4799 195.865 37.9224 201.572 37.9224Z" fill="#004733"/>
<path opacity="0.65" d="M201.575 37.9421H222.69C228.394 37.9421 233.017 42.4964 233.017 48.111C233.017 53.7289 228.394 58.2798 222.69 58.2798H201.575C195.872 58.2798 191.249 53.7256 191.249 48.111C191.249 42.4931 195.872 37.9421 201.575 37.9421Z" fill="#004C36"/>
<path opacity="0.63" d="M201.575 37.9651H222.687C228.391 37.9651 233.014 42.5127 233.014 48.1241C233.014 53.7354 228.391 58.283 222.687 58.283H201.575C195.872 58.283 191.249 53.7354 191.249 48.1241C191.249 42.5127 195.872 37.9651 201.575 37.9651Z" fill="#005039"/>
<path opacity="0.61" d="M201.579 37.9849H222.687C228.387 37.9849 233.011 42.5292 233.011 48.1339C233.011 53.7387 228.387 58.283 222.687 58.283H201.579C195.879 58.283 191.255 53.7387 191.255 48.1339C191.255 42.5292 195.879 37.9849 201.579 37.9849Z" fill="#00543C"/>
<path opacity="0.59" d="M201.579 38.0078H222.684C228.384 38.0078 233.004 42.5456 233.004 48.147C233.004 53.7452 228.384 58.2862 222.684 58.2862H201.579C195.879 58.2862 191.258 53.7484 191.258 48.147C191.258 42.5489 195.879 38.0078 201.579 38.0078Z" fill="#00583F"/>
<path opacity="0.57" d="M201.582 38.0276H222.68C228.381 38.0276 233.001 42.5621 233.001 48.1536C233.001 53.7452 228.381 58.2797 222.68 58.2797H201.582C195.882 58.2797 191.262 53.7452 191.262 48.1536C191.262 42.5621 195.882 38.0276 201.582 38.0276Z" fill="#005C42"/>
<path opacity="0.55" d="M201.582 38.0508H222.677C228.377 38.0508 232.994 42.5787 232.994 48.1669C232.994 53.7552 228.374 58.2831 222.677 58.2831H201.582C195.882 58.2831 191.265 53.7552 191.265 48.1669C191.265 42.5787 195.885 38.0508 201.582 38.0508Z" fill="#006145"/>
<path opacity="0.53" d="M201.585 38.0706H222.677C228.374 38.0706 232.994 42.5952 232.994 48.1768C232.994 53.7585 228.374 58.2831 222.677 58.2831H201.585C195.888 58.2831 191.268 53.7585 191.268 48.1768C191.268 42.5952 195.888 38.0706 201.585 38.0706Z" fill="#006548"/>
<path opacity="0.51" d="M201.589 38.0903H222.677C228.374 38.0903 232.991 42.6116 232.991 48.1867C232.991 53.7618 228.374 58.2831 222.677 58.2831H201.589C195.892 58.2831 191.275 53.7618 191.275 48.1867C191.275 42.6116 195.892 38.0903 201.589 38.0903Z" fill="#00694B"/>
<path opacity="0.49" d="M201.589 38.1133H222.674C228.371 38.1133 232.988 42.628 232.988 48.1965C232.988 53.765 228.371 58.2797 222.674 58.2797H201.589C195.892 58.2797 191.275 53.765 191.275 48.1965C191.275 42.628 195.892 38.1133 201.589 38.1133Z" fill="#006D4D"/>
<path opacity="0.47" d="M201.592 38.1331H222.674C228.368 38.1331 232.984 42.6445 232.984 48.2064C232.984 53.7716 228.368 58.2797 222.674 58.2797H201.592C195.898 58.2797 191.282 53.7683 191.282 48.2064C191.282 42.6412 195.898 38.1331 201.592 38.1331Z" fill="#007150"/>
<path opacity="0.45" d="M201.592 38.156H222.671C228.364 38.156 232.981 42.6609 232.981 48.2195C232.981 53.7781 228.364 58.2829 222.671 58.2829H201.592C195.898 58.2829 191.282 53.7781 191.282 48.2195C191.282 42.6609 195.898 38.156 201.592 38.156Z" fill="#007553"/>
<path opacity="0.43" d="M201.595 38.1758H222.667C228.361 38.1758 232.974 42.6773 232.974 48.2294C232.974 53.7814 228.361 58.283 222.667 58.283H201.595C195.902 58.283 191.288 53.7814 191.288 48.2294C191.288 42.6773 195.902 38.1758 201.595 38.1758Z" fill="#007A56"/>
<path opacity="0.41" d="M201.595 38.199H222.664C228.354 38.199 232.968 42.6939 232.968 48.2394C232.968 53.7848 228.354 58.2798 222.664 58.2798H201.595C195.905 58.2798 191.291 53.7848 191.291 48.2394C191.291 42.6939 195.905 38.199 201.595 38.199Z" fill="#007E59"/>
<path opacity="0.39" d="M201.599 38.2188H222.664C228.354 38.2188 232.968 42.7104 232.968 48.2493C232.968 53.7881 228.354 58.2798 222.664 58.2798H201.599C195.908 58.2798 191.295 53.7881 191.295 48.2493C191.295 42.7104 195.908 38.2188 201.599 38.2188Z" fill="#00825C"/>
<path opacity="0.37" d="M201.602 38.2417H222.664C228.354 38.2417 232.965 42.7268 232.965 48.2624C232.965 53.7979 228.351 58.283 222.664 58.283H201.602C195.912 58.283 191.301 53.7979 191.301 48.2624C191.301 42.7268 195.915 38.2417 201.602 38.2417Z" fill="#00865F"/>
<path opacity="0.35" d="M201.602 38.2615H222.661C228.348 38.2615 232.961 42.7433 232.961 48.2723C232.961 53.8012 228.351 58.283 222.661 58.283H201.602C195.915 58.283 191.301 53.8012 191.301 48.2723C191.301 42.7433 195.912 38.2615 201.602 38.2615Z" fill="#008A62"/>
<path opacity="0.33" d="M201.605 38.2844H222.661C228.348 38.2844 232.958 42.7629 232.958 48.2853C232.958 53.8077 228.348 58.2862 222.661 58.2862H201.605C195.918 58.2862 191.308 53.8077 191.308 48.2853C191.308 42.7629 195.918 38.2844 201.605 38.2844Z" fill="#008F65"/>
<path opacity="0.31" d="M201.605 38.3042H222.657C228.344 38.3042 232.955 42.7761 232.955 48.2919C232.955 53.8077 228.344 58.2797 222.657 58.2797H201.605C195.918 58.2797 191.308 53.8077 191.308 48.2919C191.308 42.7761 195.918 38.3042 201.605 38.3042Z" fill="#009368"/>
<path opacity="0.29" d="M201.608 38.324H222.654C228.338 38.324 232.948 42.7926 232.948 48.3018C232.948 53.8143 228.338 58.2797 222.654 58.2797H201.608C195.925 58.2797 191.314 53.811 191.314 48.3018C191.314 42.7893 195.925 38.324 201.608 38.324Z" fill="#00976B"/>
<path opacity="0.27" d="M201.608 38.3472H222.651C228.335 38.3472 232.945 42.8092 232.945 48.3151C232.945 53.8211 228.338 58.2831 222.651 58.2831H201.608C195.925 58.2831 191.314 53.8211 191.314 48.3151C191.314 42.8092 195.921 38.3472 201.608 38.3472Z" fill="#009B6E"/>
<path opacity="0.25" d="M201.612 38.3669H222.651C228.335 38.3669 232.941 42.8257 232.941 48.325C232.941 53.8244 228.335 58.2831 222.651 58.2831H201.612C195.928 58.2831 191.321 53.8244 191.321 48.325C191.321 42.8257 195.928 38.3669 201.612 38.3669Z" fill="#009F71"/>
<path opacity="0.24" d="M201.615 38.3899H222.651C228.335 38.3899 232.938 42.8421 232.938 48.3348C232.938 53.8276 228.331 58.2797 222.651 58.2797H201.615C195.931 58.2797 191.328 53.8276 191.328 48.3348C191.328 42.8421 195.935 38.3899 201.615 38.3899Z" fill="#00A474"/>
<path opacity="0.22" d="M201.615 38.4097H222.648C228.328 38.4097 232.935 42.8585 232.935 48.3447C232.935 53.8309 228.328 58.2797 222.648 58.2797H201.615C195.935 58.2797 191.328 53.8309 191.328 48.3447C191.328 42.8585 195.935 38.4097 201.615 38.4097Z" fill="#00A877"/>
<path opacity="0.2" d="M201.618 38.4326H222.647C228.328 38.4326 232.932 42.8749 232.932 48.3578C232.932 53.8407 228.328 58.2829 222.647 58.2829H201.618C195.938 58.2829 191.334 53.8407 191.334 48.3578C191.334 42.8749 195.938 38.4326 201.618 38.4326Z" fill="#00AC7A"/>
<path opacity="0.18" d="M201.618 38.4524H222.644C228.325 38.4524 232.928 42.8914 232.928 48.3677C232.928 53.844 228.325 58.283 222.644 58.283H201.618C195.938 58.283 191.334 53.844 191.334 48.3677C191.334 42.8914 195.938 38.4524 201.618 38.4524Z" fill="#00B07D"/>
<path opacity="0.16" d="M201.622 38.4756H222.641C228.318 38.4756 232.922 42.9113 232.922 48.381C232.922 53.8507 228.318 58.2864 222.641 58.2864H201.622C195.944 58.2864 191.341 53.8507 191.341 48.381C191.341 42.9113 195.944 38.4756 201.622 38.4756Z" fill="#00B480"/>
<path opacity="0.14" d="M201.622 38.4954H222.638C228.315 38.4954 232.918 42.9245 232.918 48.3876C232.918 53.8507 228.315 58.2798 222.638 58.2798H201.622C195.944 58.2798 191.341 53.8507 191.341 48.3876C191.341 42.9245 195.944 38.4954 201.622 38.4954Z" fill="#00B983"/>
<path opacity="0.12" d="M201.625 38.5151H222.638C228.315 38.5151 232.915 42.941 232.915 48.3975C232.915 53.854 228.315 58.2798 222.638 58.2798H201.625C195.948 58.2798 191.347 53.854 191.347 48.3975C191.347 42.941 195.948 38.5151 201.625 38.5151Z" fill="#00BD86"/>
<path opacity="0.1" d="M201.628 38.5381H222.638C228.312 38.5381 232.915 42.9573 232.915 48.4106C232.915 53.8638 228.315 58.283 222.638 58.283H201.628C195.954 58.283 191.351 53.8638 191.351 48.4106C191.351 42.9573 195.951 38.5381 201.628 38.5381Z" fill="#00C189"/>
<path opacity="0.08" d="M201.628 38.5579H222.634C228.308 38.5579 232.909 42.9738 232.909 48.4205C232.909 53.8671 228.308 58.283 222.634 58.283H201.628C195.954 58.283 191.354 53.8671 191.354 48.4205C191.354 42.9738 195.954 38.5579 201.628 38.5579Z" fill="#00C58C"/>
<path opacity="0.06" d="M201.632 38.5808H222.634C228.308 38.5808 232.905 42.9902 232.905 48.4302C232.905 53.8703 228.305 58.2796 222.634 58.2796H201.632C195.958 58.2796 191.361 53.8703 191.361 48.4302C191.361 42.9902 195.961 38.5808 201.632 38.5808Z" fill="#00C98F"/>
<path opacity="0.04" d="M201.632 38.6006H222.631C228.302 38.6006 232.902 43.0066 232.902 48.4401C232.902 53.8736 228.305 58.2797 222.631 58.2797H201.632C195.961 58.2797 191.361 53.8736 191.361 48.4401C191.361 43.0066 195.958 38.6006 201.632 38.6006Z" fill="#00CE92"/>
<path opacity="0.02" d="M201.635 38.6238H222.628C228.298 38.6238 232.895 43.0233 232.895 48.4534C232.895 53.8836 228.298 58.2831 222.628 58.2831H201.635C195.964 58.2831 191.367 53.8836 191.367 48.4534C191.367 43.0233 195.964 38.6238 201.635 38.6238Z" fill="#00D295"/>
</g>
<path d="M166.169 53.192C165.492 53.192 164.889 53.04 164.361 52.736C163.838 52.432 163.428 52.0213 163.129 51.504C162.83 50.9813 162.681 50.392 162.681 49.736C162.681 49.08 162.83 48.488 163.129 47.96C163.428 47.432 163.838 47.0133 164.361 46.704C164.889 46.3947 165.492 46.24 166.169 46.24C166.841 46.24 167.436 46.3947 167.953 46.704C168.476 47.0133 168.884 47.432 169.177 47.96C169.47 48.488 169.617 49.08 169.617 49.736C169.617 50.392 169.47 50.9813 169.177 51.504C168.884 52.0213 168.476 52.432 167.953 52.736C167.436 53.04 166.841 53.192 166.169 53.192ZM166.169 52C166.596 52 166.966 51.9013 167.281 51.704C167.601 51.5067 167.849 51.2373 168.025 50.896C168.201 50.5493 168.289 50.16 168.289 49.728C168.289 49.296 168.201 48.9067 168.025 48.56C167.849 48.2133 167.601 47.9387 167.281 47.736C166.966 47.5333 166.596 47.432 166.169 47.432C165.737 47.432 165.361 47.5333 165.041 47.736C164.721 47.9387 164.47 48.2133 164.289 48.56C164.113 48.9067 164.025 49.296 164.025 49.728C164.025 50.16 164.113 50.5493 164.289 50.896C164.47 51.2373 164.721 51.5067 165.041 51.704C165.361 51.9013 165.737 52 166.169 52ZM170.544 46.432H171.888V44.568C171.888 43.9013 172.003 43.3653 172.232 42.96C172.467 42.5547 172.763 42.2613 173.12 42.08C173.483 41.8933 173.854 41.8 174.232 41.8C174.691 41.8 175.043 41.864 175.288 41.992C175.539 42.12 175.688 42.2053 175.736 42.248L175.176 43.312C175.15 43.28 175.067 43.2213 174.928 43.136C174.79 43.0507 174.6 43.008 174.36 43.008C174.184 43.008 174.014 43.0507 173.848 43.136C173.683 43.2213 173.544 43.3867 173.432 43.632C173.32 43.8773 173.264 44.2427 173.264 44.728V46.432H175.136V47.624H173.264V53H171.888V47.624H170.544V46.432ZM175.696 46.432H177.04V44.568C177.04 43.9013 177.155 43.3653 177.384 42.96C177.619 42.5547 177.915 42.2613 178.272 42.08C178.635 41.8933 179.006 41.8 179.384 41.8C179.843 41.8 180.195 41.864 180.44 41.992C180.691 42.12 180.84 42.2053 180.888 42.248L180.328 43.312C180.302 43.28 180.219 43.2213 180.08 43.136C179.942 43.0507 179.752 43.008 179.512 43.008C179.336 43.008 179.166 43.0507 179 43.136C178.835 43.2213 178.696 43.3867 178.584 43.632C178.472 43.8773 178.416 44.2427 178.416 44.728V46.432H180.288V47.624H178.416V53H177.04V47.624H175.696V46.432Z" fill="black"/>
</g>
<defs>
<linearGradient id="paint0_linear_293_4754" x1="216.285" y1="54.1898" x2="228.825" y2="41.6532" gradientUnits="userSpaceOnUse">
<stop stop-color="#E6E6E6"/>
<stop offset="0.18" stop-color="#EDEDED"/>
<stop offset="0.6" stop-color="#FAFAFA"/>
<stop offset="1" stop-color="white"/>
</linearGradient>
<clipPath id="clip0_293_4754">
<rect width="341.575" height="256.582" fill="white"/>
</clipPath>
</defs>
</svg>
