<svg width="368" height="228" viewBox="0 0 368 228" fill="none" xmlns="http://www.w3.org/2000/svg">
<g clip-path="url(#clip0_293_4285)">
<g style="mix-blend-mode:difference" opacity="0.22">
<path d="M36.3543 162.421H20.812V192.851H36.3543V162.421Z" fill="#ADC6F7"/>
<path d="M22.8514 162.421H34.3167V151.81H22.8514V162.421Z" fill="#ADC6F7"/>
<path d="M20.8101 162.421H7.69739V192.851H20.8101V162.421Z" fill="#E2E7EB"/>
<path d="M10.2485 162.677H22.8495V151.812H10.2485L10.2485 162.677Z" fill="#E2E7EB"/>
<path opacity="0.15" d="M36.3543 171.726H7.69739V172.94H36.3543V171.726Z" fill="#4F809E"/>
<path opacity="0.15" d="M36.3543 174.326H7.69739V175.541H36.3543V174.326Z" fill="#4F809E"/>
<path opacity="0.15" d="M36.3543 176.927H7.69739V178.142H36.3543V176.927Z" fill="#4F809E"/>
<path opacity="0.15" d="M36.3543 179.528H7.69739V180.743H36.3543V179.528Z" fill="#4F809E"/>
<path opacity="0.15" d="M36.3543 182.129H7.69739V183.344H36.3543V182.129Z" fill="#4F809E"/>
<path opacity="0.15" d="M36.3543 184.73H7.69739V185.945H36.3543V184.73Z" fill="#4F809E"/>
<path opacity="0.15" d="M36.3543 187.332H7.69739V188.547H36.3543V187.332Z" fill="#4F809E"/>
<path opacity="0.15" d="M36.3543 189.933H7.69739V191.148H36.3543V189.933Z" fill="#4F809E"/>
<path d="M13.026 148.532H30.7661L28.0622 143.884H15.7299L13.026 148.532Z" fill="#ADC6F7"/>
<path d="M13.026 148.532H25.0841L22.3802 143.884H15.7299L13.026 148.532Z" fill="#E2E7EB"/>
<path d="M25.0859 151.812H30.768V148.532H25.0859V151.812Z" fill="#697398"/>
<path d="M13.0242 151.812H25.0841V148.532H13.0242V151.812Z" fill="#808AB5"/>
<path d="M22.8514 162.677H24.5153V155.41H22.8514V162.677Z" fill="#697398"/>
<path d="M32.6509 162.421H34.3148V155.408H32.6509V162.421Z" fill="#697398"/>
<path d="M21.1856 162.677H22.8495V155.41H21.1856V162.677Z" fill="#808AB5"/>
<path d="M10.2466 162.421H11.9106V155.408H10.2466V162.421Z" fill="#808AB5"/>
<path d="M31.0899 157.409H10.7711V192.851H31.0899V157.409Z" fill="#ADC6F7"/>
<path d="M31.0899 162.246H8.80344V192.851H31.0899V162.246Z" fill="#6E8ECE"/>
<path opacity="0.4" d="M31.0917 163.892H8.80344V165.681H31.0917V163.892Z" fill="#4F809E"/>
<path opacity="0.4" d="M31.0916 167.288H8.80331V169.077H31.0916V167.288Z" fill="#4F809E"/>
<path opacity="0.4" d="M31.0916 170.684H8.80331V172.473H31.0916V170.684Z" fill="#4F809E"/>
<path opacity="0.4" d="M31.0916 174.08H8.80331V175.869H31.0916V174.08Z" fill="#4F809E"/>
<path opacity="0.4" d="M31.0916 177.476H8.80331V179.265H31.0916V177.476Z" fill="#4F809E"/>
<path opacity="0.4" d="M31.0916 180.872H8.80331V182.661H31.0916V180.872Z" fill="#4F809E"/>
<path opacity="0.4" d="M31.0916 184.27H8.80331V186.059H31.0916V184.27Z" fill="#4F809E"/>
<path opacity="0.4" d="M31.0916 187.666H8.80331V189.455H31.0916V187.666Z" fill="#4F809E"/>
<path opacity="0.4" d="M31.0916 191.062H8.80331V192.851H31.0916V191.062Z" fill="#4F809E"/>
<path d="M10.7711 157.409H8.8035V162.246H10.7711V157.409Z" fill="#9D8A8A"/>
<path d="M18.4964 157.409H-0.000152588V192.851H18.4964V157.409Z" fill="#E2E7EB"/>
<path d="M20.8155 162.246H-0.000244141V192.851H20.8155V162.246Z" fill="#B8E6F5"/>
<path opacity="0.4" d="M20.8155 163.892H-0.000244141V165.681H20.8155V163.892Z" fill="#4F809E"/>
<path opacity="0.4" d="M20.8154 167.288H-0.000335693V169.077H20.8154V167.288Z" fill="#4F809E"/>
<path opacity="0.4" d="M20.8154 170.684H-0.000335693V172.473H20.8154V170.684Z" fill="#4F809E"/>
<path opacity="0.4" d="M20.8154 174.08H-0.000335693V175.869H20.8154V174.08Z" fill="#4F809E"/>
<path opacity="0.4" d="M20.8154 177.476H-0.000335693V179.265H20.8154V177.476Z" fill="#4F809E"/>
<path opacity="0.4" d="M20.8154 180.872H-0.000335693V182.661H20.8154V180.872Z" fill="#4F809E"/>
<path opacity="0.4" d="M20.8154 184.27H-0.000335693V186.059H20.8154V184.27Z" fill="#4F809E"/>
<path opacity="0.4" d="M20.8154 187.666H-0.000335693V189.455H20.8154V187.666Z" fill="#4F809E"/>
<path opacity="0.4" d="M20.8154 191.062H-0.000335693V192.851H20.8154V191.062Z" fill="#4F809E"/>
<path opacity="0.27" d="M1.96749 157.409H-0.000152588V192.851H1.96749V157.409Z" fill="#574C4C"/>
<path opacity="0.27" d="M20.8155 157.409H18.4963V192.851H20.8155V157.409Z" fill="white"/>
<path style="mix-blend-mode:multiply" opacity="0.31" d="M1.96749 157.409H8.80362H10.2485V155.41V151.812H13.026V148.532L15.7299 143.884H22.3802H28.0622L30.7661 148.532V151.812H34.3149V155.41V162.421H36.3543V171.726V172.939V174.326V175.539V176.927V178.142V179.528V180.743V182.129V183.344V184.73V185.944V187.332V188.545V189.933V191.146V192.851H31.0901H20.8156H20.8119H18.4964H10.7713H8.80362H7.6974H1.96749H-0.000152588V191.061V189.455V187.665V186.059V184.269V182.663V180.872V179.267V177.476V175.869V174.08V172.473V170.684V169.077V167.288V165.681V163.892V162.246V157.409H1.96749Z" fill="url(#paint0_linear_293_4285)"/>
<path d="M55.1232 99.1824H30.0868V192.851H55.1232V99.1824Z" fill="#4385A6"/>
<path d="M52.7394 192.851H65.8834V192.849H73.1171V99.1824H52.7394V192.851Z" fill="#33637B"/>
<g opacity="0.23">
<path d="M73.1153 101.327H30.0867V103.576H73.1153V101.327Z" fill="#203E4D"/>
<path d="M73.1152 105.722H30.0866V107.971H73.1152V105.722Z" fill="#203E4D"/>
<path d="M73.1152 110.118H30.0866V112.367H73.1152V110.118Z" fill="#203E4D"/>
<path d="M73.1152 114.513H30.0866V116.762H73.1152V114.513Z" fill="#203E4D"/>
<path d="M73.1152 118.908H30.0866V121.158H73.1152V118.908Z" fill="#203E4D"/>
<path d="M73.1152 123.304H30.0866V125.561H73.1152V123.304Z" fill="#203E4D"/>
<path d="M73.1152 127.698H30.0866V129.954H73.1152V127.698Z" fill="#203E4D"/>
<path d="M73.1152 132.093H30.0866V134.35H73.1152V132.093Z" fill="#203E4D"/>
<path d="M73.1152 136.488H30.0866V138.745H73.1152V136.488Z" fill="#203E4D"/>
<path d="M73.1152 140.884H30.0866V143.14H73.1152V140.884Z" fill="#203E4D"/>
<path d="M73.1152 145.279H30.0866V147.536H73.1152V145.279Z" fill="#203E4D"/>
<path d="M73.1152 149.675H30.0866V151.931H73.1152V149.675Z" fill="#203E4D"/>
<path d="M73.1152 154.068H30.0866V156.325H73.1152V154.068Z" fill="#203E4D"/>
<path d="M73.1152 158.464H30.0866V160.72H73.1152V158.464Z" fill="#203E4D"/>
<path d="M73.1152 162.859H30.0866V165.116H73.1152V162.859Z" fill="#203E4D"/>
<path d="M73.1152 167.255H30.0866V169.511H73.1152V167.255Z" fill="#203E4D"/>
<path d="M73.1152 171.65H30.0866V173.907H73.1152V171.65Z" fill="#203E4D"/>
<path d="M73.1152 176.051H30.0866V178.3H73.1152V176.051Z" fill="#203E4D"/>
<path d="M73.1152 180.447H30.0866V182.696H73.1152V180.447Z" fill="#203E4D"/>
<path d="M73.1152 184.842H30.0866V187.091H73.1152V184.842Z" fill="#203E4D"/>
<path d="M73.1152 189.237H30.0866V191.487H73.1152V189.237Z" fill="#203E4D"/>
</g>
<path d="M70.7963 192.849H73.1173L73.1173 99.1804H70.7963L70.7963 192.849Z" fill="#ADC6F7"/>
<path d="M52.7396 192.849H55.0606L55.0606 99.1804H52.7396L52.7396 192.849Z" fill="#ADC6F7"/>
<path d="M52.7616 99.1824V192.849H50.4405" fill="#B8E6F5"/>
<path d="M30.085 192.849H32.406L32.406 99.1804H30.085L30.085 192.849Z" fill="#B8E6F5"/>
<path d="M52.7617 101.327H73.1173V99.1805H52.7617V101.327Z" fill="#ADC6F7"/>
<path d="M30.5801 101.327H50.9357V99.1805H30.5801V101.327Z" fill="#B8E6F5"/>
<path d="M51.8487 99.2542H66.9474V95.5177H51.8487V99.2542Z" fill="#ADC6F7"/>
<path d="M36.7482 99.2542H51.8469V95.5177H36.7482V99.2542Z" fill="#E2E7EB"/>
<path style="mix-blend-mode:multiply" opacity="0.31" d="M30.5802 99.1824H32.4061H36.75V95.5195H51.8487H66.9475V99.1824H70.7981H73.1173V101.327V192.849H70.7981H65.8836H73.1173V192.851H65.8836H55.1232H52.7396H30.0869V192.849V191.487V189.237V187.091V184.842V182.696V180.447V178.3V176.051V173.905V171.65V169.511V167.255V165.116V162.859V160.72V158.464V156.325V154.068V151.93V149.675V147.534V145.279V143.141V140.884V138.745V136.488V134.35V132.093V129.954V127.698V125.559V123.304V121.158V118.909V116.762V114.513V112.367V110.118V107.973V105.722V103.578V101.327V99.1824H30.5802Z" fill="url(#paint1_linear_293_4285)"/>
<path d="M126.608 82.4382H97.0954V192.851H126.608V82.4382Z" fill="#4385A6"/>
<path d="M123.798 192.851H139.29V192.849H147.818V82.4382H123.798V192.851Z" fill="#33637B"/>
<g opacity="0.23">
<path d="M147.816 84.9673H97.0954V87.6196H147.816V84.9673Z" fill="#203E4D"/>
<path d="M147.816 90.1487H97.0954V92.801H147.816V90.1487Z" fill="#203E4D"/>
<path d="M147.816 95.3301H97.0954V97.9824H147.816V95.3301Z" fill="#203E4D"/>
<path d="M147.816 100.51H97.0954V103.162H147.816V100.51Z" fill="#203E4D"/>
<path d="M147.816 105.691H97.0954V108.343H147.816V105.691Z" fill="#203E4D"/>
<path d="M147.816 110.872H97.0954V113.532H147.816V110.872Z" fill="#203E4D"/>
<path d="M147.816 116.052H97.0954V118.712H147.816V116.052Z" fill="#203E4D"/>
<path d="M147.816 121.233H97.0954V123.893H147.816V121.233Z" fill="#203E4D"/>
<path d="M147.816 126.415H97.0954V129.075H147.816V126.415Z" fill="#203E4D"/>
<path d="M147.816 131.594H97.0954V134.254H147.816V131.594Z" fill="#203E4D"/>
<path d="M147.816 136.776H97.0954V139.435H147.816V136.776Z" fill="#203E4D"/>
<path d="M147.816 141.957H97.0954V144.617H147.816V141.957Z" fill="#203E4D"/>
<path d="M147.816 147.137H97.0954V149.796H147.816V147.137Z" fill="#203E4D"/>
<path d="M147.816 152.318H97.0954V154.978H147.816V152.318Z" fill="#203E4D"/>
<path d="M147.816 157.5H97.0954V160.159H147.816V157.5Z" fill="#203E4D"/>
<path d="M147.816 162.679H97.0954V165.339H147.816V162.679Z" fill="#203E4D"/>
<path d="M147.816 167.86H97.0954V170.52H147.816V167.86Z" fill="#203E4D"/>
<path d="M147.816 173.049H97.0954V175.701H147.816V173.049Z" fill="#203E4D"/>
<path d="M147.816 178.229H97.0954V180.881H147.816V178.229Z" fill="#203E4D"/>
<path d="M147.816 183.41H97.0954V186.063H147.816V183.41Z" fill="#203E4D"/>
<path d="M147.816 188.592H97.0954V191.244H147.816V188.592Z" fill="#203E4D"/>
</g>
<path d="M145.083 192.851H147.818V82.4399H145.083V192.851Z" fill="#ADC6F7"/>
<path d="M123.797 192.851H126.533L126.533 82.4399H123.797L123.797 192.851Z" fill="#ADC6F7"/>
<path d="M121.088 192.851H123.823L123.823 82.4399H121.088L121.088 192.851Z" fill="#B8E6F5"/>
<path d="M97.0955 192.851H99.8307L99.8307 82.4399H97.0955L97.0955 192.851Z" fill="#B8E6F5"/>
<path d="M123.823 84.969H147.818V82.44H123.823V84.969Z" fill="#ADC6F7"/>
<path d="M97.6751 84.969H121.67V82.44H97.6751V84.969Z" fill="#B8E6F5"/>
<path d="M122.748 82.5264H140.546V78.1217H122.748V82.5264Z" fill="#ADC6F7"/>
<path d="M104.949 82.5264H122.747V78.1217H104.949V82.5264Z" fill="#E2E7EB"/>
<path style="mix-blend-mode:multiply" opacity="0.31" d="M97.0954 82.438H97.677H99.8306H104.949V78.1199H122.747H140.546V82.438H145.083H147.818V84.967V192.849V192.851H139.29H126.608H123.798H97.0954V192.849V191.242V188.589V186.062V183.41V180.881V178.229V175.699V173.049V170.52V167.86V165.339V162.679V160.157V157.499V154.978V152.318V149.796V147.136V144.615V141.957V139.435V136.775V134.254V131.594V129.072V126.415V123.893V121.233V118.711V116.052V113.53V110.872V108.343V105.691V103.162V100.509V97.9804V95.3298V92.8008V90.1484V87.6194V84.967V82.438Z" fill="url(#paint2_linear_293_4285)"/>
<path d="M156.513 110.874H136.152V192.851H156.513V110.874Z" fill="#B8E6F5"/>
<path d="M154.427 192.851H161.663H167.995V110.874H154.427V192.851Z" fill="#ADC6F7"/>
<g opacity="0.23">
<path d="M167.993 112.751H136.152V114.721H167.993V112.751Z" fill="#203E4D"/>
<path d="M167.993 116.598H136.152V118.568H167.993V116.598Z" fill="#203E4D"/>
<path d="M167.993 120.444H136.152V122.413H167.993V120.444Z" fill="#203E4D"/>
<path d="M167.993 124.291H136.152V126.26H167.993V124.291Z" fill="#203E4D"/>
<path d="M167.993 128.137H136.152V130.107H167.993V128.137Z" fill="#203E4D"/>
<path d="M167.993 131.984H136.152V133.959H167.993V131.984Z" fill="#203E4D"/>
<path d="M167.993 135.831H136.152V137.806H167.993V135.831Z" fill="#203E4D"/>
<path d="M167.993 139.676H136.152V141.651H167.993V139.676Z" fill="#203E4D"/>
<path d="M167.993 143.523H136.152V145.498H167.993V143.523Z" fill="#203E4D"/>
<path d="M167.993 147.37H136.152V149.345H167.993V147.37Z" fill="#203E4D"/>
<path d="M167.993 151.217H136.152V153.192H167.993V151.217Z" fill="#203E4D"/>
<path d="M167.993 155.064H136.152V157.039H167.993V155.064Z" fill="#203E4D"/>
<path d="M167.993 158.909H136.152V160.884H167.993V158.909Z" fill="#203E4D"/>
<path d="M167.993 162.756H136.152V164.731H167.993V162.756Z" fill="#203E4D"/>
<path d="M167.993 166.603H136.152V168.578H167.993V166.603Z" fill="#203E4D"/>
<path d="M167.993 170.45H136.152V172.425H167.993V170.45Z" fill="#203E4D"/>
<path d="M167.993 174.297H136.152V176.272H167.993V174.297Z" fill="#203E4D"/>
<path d="M167.993 178.147H136.152V180.117H167.993V178.147Z" fill="#203E4D"/>
<path d="M167.993 181.994H136.152V183.964H167.993V181.994Z" fill="#203E4D"/>
<path d="M167.993 185.841H136.152V187.811H167.993V185.841Z" fill="#203E4D"/>
<path d="M167.993 189.688H136.152V191.658H167.993V189.688Z" fill="#203E4D"/>
</g>
<path style="mix-blend-mode:multiply" opacity="0.31" d="M154.428 110.874H156.513H167.995V192.851H161.663H156.513H154.428H136.152V191.656V189.688V187.811V185.841V183.964V181.994V180.117V178.148V176.27V174.297V172.423V170.45V168.578V166.603V164.731V162.756V160.884V158.909V157.037V155.064V153.19V151.217V149.345V147.37V145.498V143.523V141.651V139.676V137.804V135.831V133.957V131.984V130.107V128.137V126.26V124.29V122.413V120.444V118.566V116.598V114.721V112.751V110.874H154.428Z" fill="url(#paint3_linear_293_4285)"/>
<path d="M156.833 192.851H201.725V150.501H156.833V192.851Z" fill="#33637B"/>
<path d="M156.833 150.501H145.322V192.851H156.833V150.501Z" fill="#4385A6"/>
<path d="M156.833 192.851H201.725V181.223H156.833V192.851Z" fill="#6E8ECE"/>
<path d="M156.835 181.223H145.32V192.85H156.835V181.223Z" fill="#E2E7EB"/>
<g opacity="0.5">
<path d="M196.208 181.223H197.134V150.499H196.208V181.223Z" fill="#203E4D"/>
<path d="M191.321 181.223H192.247V150.499H191.321V181.223Z" fill="#203E4D"/>
<path d="M186.433 181.223H187.358V150.499H186.433V181.223Z" fill="#203E4D"/>
<path d="M181.546 181.223H182.471V150.499H181.546V181.223Z" fill="#203E4D"/>
<path d="M176.655 181.223H177.581V150.499H176.655V181.223Z" fill="#203E4D"/>
<path d="M171.768 181.223H172.694V150.499H171.768V181.223Z" fill="#203E4D"/>
<path d="M166.879 181.223H167.805V150.499H166.879V181.223Z" fill="#203E4D"/>
<path d="M161.991 181.223H162.917V150.499H161.991V181.223Z" fill="#203E4D"/>
</g>
<path d="M196.208 192.852H197.134V181.225H196.208V192.852Z" fill="#ADC6F7"/>
<path d="M191.321 192.852H192.247V181.225H191.321V192.852Z" fill="#ADC6F7"/>
<path d="M186.433 192.852H187.358V181.225H186.433V192.852Z" fill="#ADC6F7"/>
<path d="M181.546 192.852H182.472V181.225H181.546V192.852Z" fill="#ADC6F7"/>
<path d="M176.655 192.852H177.581V181.225H176.655V192.852Z" fill="#ADC6F7"/>
<path d="M171.768 192.852H172.694V181.225H171.768V192.852Z" fill="#ADC6F7"/>
<path d="M166.88 192.852H167.806V181.225H166.88V192.852Z" fill="#ADC6F7"/>
<path d="M161.991 192.852H162.917V181.225H161.991V192.852Z" fill="#ADC6F7"/>
<path style="mix-blend-mode:multiply" opacity="0.31" d="M145.322 181.223V150.501H156.833H161.993H162.917H166.879H167.805H171.768H172.694H176.657H177.583H181.544H182.47H186.433H187.358H191.321H192.247H196.21H197.134H201.725V181.223V192.851H197.134H196.21H192.247H191.321H187.358H186.433H182.47H181.544H177.583H176.657H172.694H171.768H167.805H166.879H162.917H161.993H156.833H145.32V181.223H145.322Z" fill="url(#paint4_linear_293_4285)"/>
<path d="M72.6883 192.851H91.7444L91.7444 114.513H72.6883L72.6883 192.851Z" fill="#ADC6F7"/>
<path d="M80.6711 114.513H88.654V110.883H80.6711V114.513Z" fill="#ADC6F7"/>
<path d="M72.6882 114.513H80.6711V110.883H72.6882V114.513Z" fill="#E2E7EB"/>
<path d="M69.0346 192.851H83.3897L83.3897 114.513H69.0346L69.0346 192.851Z" fill="#E2E7EB"/>
<path d="M91.7462 192.853H97.0951V139.899H91.7462V192.853Z" fill="#3D424A"/>
<path style="mix-blend-mode:multiply" opacity="0.31" d="M72.6903 114.513V110.883H80.6731H88.656V114.513H91.7464V139.897H97.0953V192.851H91.7464H83.3899H72.6903H69.0348V114.513H72.6903Z" fill="url(#paint5_linear_293_4285)"/>
<g style="mix-blend-mode:multiply" opacity="0.77">
<path d="M130.656 191.794H136.152V147.37H130.656V191.794Z" fill="#4A788F"/>
</g>
<g style="mix-blend-mode:multiply" opacity="0.77">
<path d="M45.3458 192.827H69.0348V159.592H45.3458V192.827Z" fill="#4A788F"/>
</g>
<g style="mix-blend-mode:multiply" opacity="0.77">
<path d="M27.926 180.364H30.0869L30.0869 148.532H27.926L27.926 180.364Z" fill="#4A788F"/>
</g>
</g>
<g style="mix-blend-mode:difference" opacity="0.22">
<path d="M212.936 191.765H220.682V134.035H212.936V191.765Z" fill="#ADC6F7"/>
<path d="M220.682 191.765H243.988V91.0302H220.682V191.765Z" fill="#E2E7EB"/>
<path d="M243.99 191.765H261.098V91.0173H243.99V191.765Z" fill="#ADC6F7"/>
<path opacity="0.15" d="M220.683 191.763H234.543V99.151H220.683V191.763Z" fill="#4F809E"/>
<path d="M240.767 101.012H243.99V99.1511H240.767V101.012Z" fill="#4F809E"/>
<path d="M240.767 104.653H243.99V102.792H240.767V104.653Z" fill="#4F809E"/>
<path d="M240.767 108.29H243.99V106.429H240.767V108.29Z" fill="#4F809E"/>
<path d="M240.767 111.929H243.99V110.068H240.767V111.929Z" fill="#4F809E"/>
<path d="M240.767 115.568H243.99V113.707H240.767V115.568Z" fill="#4F809E"/>
<path d="M240.767 119.205H243.99V117.344H240.767V119.205Z" fill="#4F809E"/>
<path d="M240.767 122.844H243.99V120.983H240.767V122.844Z" fill="#4F809E"/>
<path d="M240.767 126.485H243.99V124.624H240.767V126.485Z" fill="#4F809E"/>
<path d="M240.767 130.122H243.99V128.261H240.767V130.122Z" fill="#4F809E"/>
<path d="M240.767 133.76H243.99V131.9H240.767V133.76Z" fill="#4F809E"/>
<path d="M240.767 137.399H243.99V135.539H240.767V137.399Z" fill="#4F809E"/>
<path d="M240.767 141.037H243.99V139.176H240.767V141.037Z" fill="#4F809E"/>
<path d="M240.767 144.676H243.99V142.815H240.767V144.676Z" fill="#4F809E"/>
<path d="M240.767 148.316H243.99V146.456H240.767V148.316Z" fill="#4F809E"/>
<path d="M240.767 151.953H243.99V150.092H240.767V151.953Z" fill="#4F809E"/>
<path d="M240.767 155.592H243.99V153.731H240.767V155.592Z" fill="#4F809E"/>
<path d="M240.767 159.231H243.99V157.37H240.767V159.231Z" fill="#4F809E"/>
<path d="M240.767 162.868H243.99V161.008H240.767V162.868Z" fill="#4F809E"/>
<path d="M240.767 166.509H243.99V164.648H240.767V166.509Z" fill="#4F809E"/>
<path d="M240.767 170.146H243.99V168.285H240.767V170.146Z" fill="#4F809E"/>
<path d="M240.767 173.785H243.99V171.924H240.767V173.785Z" fill="#4F809E"/>
<path d="M240.767 177.424H243.99V175.563H240.767V177.424Z" fill="#4F809E"/>
<path d="M240.767 181.061H243.99V179.2H240.767V181.061Z" fill="#4F809E"/>
<path d="M240.767 184.7H243.99V182.839H240.767V184.7Z" fill="#4F809E"/>
<path d="M240.767 188.341H243.99V186.48H240.767V188.341Z" fill="#4F809E"/>
<path d="M240.104 91.0173H253.454V86.0347H240.104V91.0173Z" fill="#ADC6F7"/>
<path d="M226.752 91.0173H240.102V86.0347H226.752V91.0173Z" fill="#E2E7EB"/>
<path d="M207.898 191.765H212.938V134.035H207.898V191.765Z" fill="#E2E7EB"/>
<path style="mix-blend-mode:multiply" opacity="0.31" d="M212.938 134.035H220.683V99.153V91.0284H243.988V91.0174H240.102H226.752V86.0366H240.102H253.454V91.0174H261.098V191.765H243.988H234.543H220.683H212.938H207.897V134.035H212.938Z" fill="url(#paint6_linear_293_4285)"/>
<path d="M278.406 137.23H251.109V191.765H278.406V137.23Z" fill="#515C64"/>
<g opacity="0.6">
<path d="M278.406 139.196H251.109V139.767H278.406V139.196Z" fill="#777F8D"/>
<path d="M278.406 141.734H251.109V142.305H278.406V141.734Z" fill="#777F8D"/>
<path d="M278.406 144.271H251.109V144.841H278.406V144.271Z" fill="#777F8D"/>
<path d="M278.406 146.809H251.109V147.379H278.406V146.809Z" fill="#777F8D"/>
<path d="M278.406 149.347H251.109V149.918H278.406V149.347Z" fill="#777F8D"/>
<path d="M278.406 151.884H251.109V152.454H278.406V151.884Z" fill="#777F8D"/>
<path d="M278.406 154.422H251.109V154.992H278.406V154.422Z" fill="#777F8D"/>
<path d="M278.406 156.958H251.109V157.529H278.406V156.958Z" fill="#777F8D"/>
<path d="M278.406 159.497H251.109V160.067H278.406V159.497Z" fill="#777F8D"/>
<path d="M278.406 162.033H251.109V162.604H278.406V162.033Z" fill="#777F8D"/>
<path d="M278.406 164.571H251.109V165.142H278.406V164.571Z" fill="#777F8D"/>
<path d="M278.406 167.107H251.109V167.678H278.406V167.107Z" fill="#777F8D"/>
<path d="M278.406 169.646H251.109V170.216H278.406V169.646Z" fill="#777F8D"/>
<path d="M278.406 172.182H251.109V172.753H278.406V172.182Z" fill="#777F8D"/>
<path d="M278.406 174.72H251.109V175.291H278.406V174.72Z" fill="#777F8D"/>
<path d="M278.406 177.257H251.109V177.827H278.406V177.257Z" fill="#777F8D"/>
<path d="M278.406 179.795H251.109V180.366H278.406V179.795Z" fill="#777F8D"/>
<path d="M278.406 182.333H251.109V182.904H278.406V182.333Z" fill="#777F8D"/>
<path d="M278.406 184.87H251.109V185.44H278.406V184.87Z" fill="#777F8D"/>
<path d="M278.406 187.408H251.109V187.979H278.406V187.408Z" fill="#777F8D"/>
<path d="M278.406 189.944H251.109V190.515H278.406V189.944Z" fill="#777F8D"/>
</g>
<g style="mix-blend-mode:multiply" opacity="0.36">
<path d="M278.408 137.23H265.582V191.765H278.408V137.23Z" fill="#424C52"/>
</g>
<path style="mix-blend-mode:multiply" opacity="0.31" d="M265.582 137.23H278.408V191.765H265.582H251.109V137.23H265.582Z" fill="url(#paint7_linear_293_4285)"/>
<g style="mix-blend-mode:multiply" opacity="0.77">
<path d="M251.111 175.291H272.93V163.159H251.111V175.291Z" fill="#4A788F"/>
</g>
<path d="M294.754 191.764H306.319V125.058H294.754V191.764Z" fill="#ADC6F7"/>
<path d="M294.754 125.058H291.693V191.764H294.754V125.058Z" fill="#E2E7EB"/>
<path d="M285.389 125.058H272.93V191.764H285.389V125.058Z" fill="#E2E7EB"/>
<path d="M285.389 191.764H288.45V125.058H285.389V191.764Z" fill="#ADC6F7"/>
<path d="M288.45 191.764H291.693V125.058H288.45V191.764Z" fill="#33637B"/>
<path d="M290.072 125.058H301.451V121.227H290.072V125.058Z" fill="#ADC6F7"/>
<path d="M278.693 125.058H290.072V121.227H278.693V125.058Z" fill="#E2E7EB"/>
<path style="mix-blend-mode:multiply" opacity="0.31" d="M278.693 125.058V121.228H290.072H301.45V125.058H306.319V191.764H294.754H291.693H288.45H285.387H272.93V125.058H278.693Z" fill="url(#paint8_linear_293_4285)"/>
<path d="M353.645 191.765H367.505V103.668H353.645V191.765Z" fill="#33637B"/>
<path d="M353.645 103.668H349.977V191.765H353.645V103.668Z" fill="#4385A6"/>
<path d="M342.421 103.668H313.266V191.765H342.421V103.668Z" fill="#4385A6"/>
<path d="M342.421 191.765H346.09V103.668H342.421V191.765Z" fill="#33637B"/>
<path d="M346.091 191.765H349.979V103.668H346.091V191.765Z" fill="#ADC6F7"/>
<path style="mix-blend-mode:multiply" opacity="0.31" d="M342.421 103.668H346.09H349.977H353.647H367.506V191.765H353.647H349.977H346.09H342.421H313.266V103.668H342.421Z" fill="url(#paint9_linear_293_4285)"/>
<g style="mix-blend-mode:multiply" opacity="0.77">
<path d="M330.24 191.765H367.506V174.568H330.24V191.765Z" fill="#4A788F"/>
</g>
<path d="M338.484 163.314H298.553V191.765H338.484V163.314Z" fill="#33637B"/>
<path d="M298.553 191.759H316.706V163.312H298.553V191.759Z" fill="#4385A6"/>
<path d="M299.986 163.314H319.143V160.019H299.986V163.314Z" fill="#E2E7EB"/>
<path d="M334.893 160.017H319.143V163.312H334.893V160.017Z" fill="#ADC6F7"/>
<path style="mix-blend-mode:multiply" opacity="0.31" d="M299.987 163.314V160.017H319.143H334.893V163.314H338.484V191.765H298.553V191.759V163.314H299.987Z" fill="url(#paint10_linear_293_4285)"/>
</g>
<path d="M256.891 109.716L258.862 112.818L261.66 111.34C263.029 110.616 263.576 109.116 262.873 108.01L260.329 104.007L258.648 104.896C256.666 105.943 255.875 108.117 256.892 109.718L256.891 109.716Z" fill="#B57070"/>
<path d="M269.974 122.352L262.637 110.484L258.86 112.818L262.442 121.414C263.414 123.748 266.245 124.657 268.394 123.328L269.974 122.352Z" fill="white"/>
<path d="M272.067 103.76L266.283 116.381L271.441 125.721L276.147 114.673L272.067 103.76Z" fill="#332938"/>
<path d="M273.51 143.369L287.903 143.367L282.707 181.566L273.856 182.267L273.51 143.369Z" fill="#4D4D61"/>
<path d="M282.926 202.507L273.856 182.267L282.172 178.981L287.889 200.353L282.926 202.507Z" fill="#4D4D61"/>
<path d="M289.617 206.068L285.352 207.92L282.926 202.507L287.889 200.353L289.617 206.068Z" fill="#B57070"/>
<path d="M284.003 143.367L300.578 143.365L298.268 203.742H292.82L284.003 143.367Z" fill="#4D4D61"/>
<path d="M294.839 211.874L293.317 203.742H298.268L298.292 211.874H294.839Z" fill="#B57070"/>
<path d="M273.392 151.346H301.861V148.048H273.392V151.346Z" fill="#332938"/>
<path d="M272.54 148.605L302.619 148.6C303.58 148.6 304.351 147.806 304.324 146.846L303.085 104.095L294.624 100.079L292.833 99.2246L282.275 99.1528L280.495 99.9554L272.067 103.76L270.833 146.849C270.806 147.81 271.577 148.603 272.538 148.603L272.54 148.605Z" fill="#332938"/>
<path d="M280.497 99.9554C280.948 101.568 283.95 103.375 287.579 103.375C291.209 103.375 294.06 101.628 294.624 100.079L292.833 99.2246L282.275 99.1528L280.495 99.9554H280.497Z" fill="white"/>
<path d="M295.651 207.548C297.108 207.548 298.29 208.73 298.292 210.188V212.168H293.011V210.189C293.011 208.732 294.193 207.55 295.651 207.548Z" fill="white"/>
<path d="M284.43 205.864L288.96 203.896L290.383 208.454L281.831 212.166C280.858 209.716 281.995 206.92 284.43 205.862V205.864Z" fill="white"/>
<path d="M282.273 99.2265C282.273 99.2265 283.661 101.303 287.554 101.303C291.447 101.303 292.835 99.2265 292.835 99.2265V85.7954H282.273V99.2265Z" fill="#B57070"/>
<path d="M292.317 205.509H298.964V202.446H292.317V205.509Z" fill="#757594"/>
<path d="M288.031 198.878L281.794 201.586L283.014 204.395L289.251 201.687L288.031 198.878Z" fill="#757594"/>
<path d="M301.861 151.335H273.392V161.701H301.861V151.335Z" fill="white"/>
<path d="M303.085 104.119L310.333 126.597L303.085 131.082V104.119Z" fill="#332938"/>
<path d="M292.706 131.083L296.38 131.037L296.593 127.88C296.698 126.336 295.71 125.082 294.399 125.097L289.656 125.156L289.527 127.053C289.376 129.29 290.808 131.106 292.704 131.083H292.706Z" fill="#B57070"/>
<path d="M310.333 126.597H296.38V131.037L305.575 132.509C308.071 132.908 310.333 130.981 310.333 128.452V126.597Z" fill="white"/>
<path d="M293.216 82.3682L293.197 85.5267H292.858L292.811 93.9845C292.811 93.9845 288.838 97.2921 283.147 96.6957C280.311 96.3957 278.168 93.9789 278.185 91.1278L278.235 82.2835C278.24 81.2123 278.478 80.1962 278.893 79.287C279.263 78.4716 279.779 77.7371 280.407 77.1168C281.737 75.7971 283.576 74.9891 285.597 75.0001H285.932C289.976 75.024 293.239 78.3243 293.216 82.3682Z" fill="#B57070"/>
<path d="M293.403 84.8087C294.289 84.8143 295.003 85.5358 294.999 86.4211L294.981 89.7361C294.975 90.6215 294.254 91.3356 293.368 91.3301L291.747 91.3209L291.774 86.4211C291.78 85.5247 292.511 84.8032 293.405 84.8069L293.403 84.8087Z" fill="#B57070"/>
<path d="M280.139 87.8552L280.125 88.2786C280.11 88.6725 280.254 89.048 280.526 89.3333C280.798 89.6186 281.168 89.7769 281.562 89.7787L281.566 89.0977C281.356 89.0977 281.161 89.013 281.017 88.8621C280.872 88.7111 280.797 88.5123 280.806 88.3043L280.822 87.8607L280.141 87.8571L280.139 87.8552Z" fill="#B57070"/>
<path d="M278.595 91.1057L284.301 91.137C284.301 91.137 284.007 93.8262 281.294 93.8115C278.58 93.7967 278.595 91.1057 278.595 91.1057Z" fill="white"/>
<path d="M285.597 92.3941V92.4125L283.478 92.4015C281.94 92.3923 280.699 91.2511 280.706 89.8503L282.845 89.8614C284.373 89.8706 285.604 91.0044 285.597 92.3941Z" fill="#332938"/>
<path d="M280.447 89.8484L281.689 89.8558V90.038C281.682 91.3375 280.519 92.3867 279.09 92.3775L278.058 92.3719V91.9983C278.067 90.8037 279.135 89.8411 280.447 89.8484Z" fill="#332938"/>
<path d="M279.096 91.8013C279.208 91.9338 279.54 93.5831 281.526 93.5941C283.513 93.6051 283.828 91.8657 283.828 91.8657C283.828 91.8657 287.395 92.9094 288.776 89.784C290.156 86.6586 290.239 85.6021 290.239 85.6021L292.082 85.7695L292.049 93.7414C292.049 93.7414 290.696 98.3669 283.484 98.3264C279.061 98.3025 277.929 96.5759 277.929 96.5759L278.211 86.515C278.211 86.515 278.216 90.7632 279.096 91.8013Z" fill="#332938"/>
</g>
<g clip-path="url(#clip1_293_4285)">
<path d="M199.326 0H117.858C109.363 0 102.476 6.88652 102.476 15.3815V212.499C102.476 220.993 109.363 227.88 117.858 227.88H199.326C207.82 227.88 214.707 220.993 214.707 212.499V15.3815C214.707 6.88652 207.82 0 199.326 0Z" fill="white"/>
<path d="M199.326 0H117.858C109.363 0 102.476 6.88652 102.476 15.3815V212.499C102.476 220.993 109.363 227.88 117.858 227.88H199.326C207.82 227.88 214.707 220.993 214.707 212.499V15.3815C214.707 6.88652 207.82 0 199.326 0Z" fill="#40373A"/>
<path d="M198.395 1.50073H118.618C110.277 1.50073 103.515 8.26272 103.515 16.604V211.274C103.515 219.615 110.277 226.377 118.618 226.377H198.395C206.736 226.377 213.498 219.615 213.498 211.274V16.604C213.498 8.26272 206.736 1.50073 198.395 1.50073Z" fill="white"/>
<path d="M118.138 2.55493H198.816C205.427 2.55493 210.784 7.91389 210.784 14.5223V25.4354H106.169V14.5223C106.169 7.91164 111.528 2.55493 118.136 2.55493H118.138Z" fill="white"/>
<path d="M212.572 211.673C212.572 219.006 206.623 224.95 199.29 224.95H117.645C110.312 224.95 104.367 219.006 104.367 211.673V205.307H212.572V211.673Z" fill="white"/>
<path d="M118.618 1.50078H198.395C206.739 1.50078 213.5 8.2662 213.5 16.6063V211.276C213.5 219.621 206.739 226.382 198.395 226.382H118.618C110.28 226.382 103.513 219.621 103.513 211.276V16.6041C103.513 8.2662 110.278 1.49854 118.618 1.49854V1.50078ZM106.234 211.276C106.234 218.104 111.788 223.661 118.618 223.661H198.395C205.223 223.661 210.784 218.107 210.784 211.276V16.6041C210.784 9.77586 205.223 4.22175 198.395 4.22175H118.618C111.79 4.22175 106.234 9.77586 106.234 16.6041V211.274V211.276Z" fill="#54474C"/>
<path d="M179.776 13.394L182.156 15.7741L179.776 18.1541L179.276 17.6538L181.154 15.7741L179.276 13.8943L179.776 13.394Z" fill="#40373A"/>
<path d="M126.709 13.3828C127.01 13.3828 127.254 13.6273 127.254 13.9279C127.254 14.2285 127.01 14.473 126.709 14.473C126.409 14.473 126.164 14.2285 126.164 13.9279C126.164 13.6273 126.409 13.3828 126.709 13.3828Z" fill="#40373A"/>
<path d="M126.709 15.2424C127.01 15.2424 127.255 15.4869 127.255 15.7875C127.255 16.0881 127.01 16.3326 126.709 16.3326C126.409 16.3326 126.164 16.0881 126.164 15.7875C126.164 15.4869 126.409 15.2424 126.709 15.2424Z" fill="#40373A"/>
<path d="M126.709 17.1021C127.01 17.1021 127.255 17.3466 127.255 17.6471C127.255 17.9477 127.01 18.1922 126.709 18.1922C126.409 18.1922 126.164 17.9477 126.164 17.6471C126.164 17.3466 126.409 17.1021 126.709 17.1021Z" fill="#40373A"/>
<path d="M152.261 12.7346C153.778 12.7346 155.007 13.9639 155.007 15.4803C155.007 16.9967 153.778 18.2259 152.261 18.2259C150.745 18.2259 149.516 16.9967 149.516 15.4803C149.516 13.9639 150.745 12.7346 152.261 12.7346Z" fill="#40373A"/>
<path d="M159.922 12.7346C161.438 12.7346 162.667 13.9639 162.667 15.4803C162.667 16.9967 161.438 18.2259 159.922 18.2259C158.405 18.2259 157.176 16.9967 157.176 15.4803C157.176 13.9639 158.405 12.7346 159.922 12.7346Z" fill="#40373A"/>
<path d="M121.034 29.7087C117.36 44.4487 121.27 60.7095 132.773 72.2125L140.281 79.5454L106.256 113.57V121.313L144.197 83.3723L157.252 96.127L118.636 134.743L106.254 122.363V130.107L114.764 138.617L106.254 147.128V154.871L118.636 142.489L138.316 162.168L106.254 194.23V194.793H106.227V29.7087H121.034Z" fill="#D1CCCB"/>
<path d="M170.579 194.43L170.216 194.793H113.434L142.187 166.038L170.579 194.43Z" fill="#C8C4C3"/>
<path d="M184.951 115.533L165.041 96.0821L199.357 61.766L210.748 73.1546V65.4112L203.229 57.8943L210.748 50.3751V42.6317L199.357 54.0226L186.452 41.1175L197.861 29.7087H210.748H210.784V194.793H210.748H178.686L178.323 194.43L195.685 177.068L210.748 192.128V184.385L199.556 173.196L210.748 162.005V154.261L195.685 169.324L167.295 140.932L210.748 97.4796V89.7362L184.951 115.533Z" fill="#D1CCCB"/>
<path d="M163.422 144.804L146.059 162.166L174.45 190.557L191.812 173.194L163.422 144.804Z" fill="#D1CCCB"/>
<path d="M167.302 29.7087L178.711 41.1175L144.152 75.6759L136.622 68.3206C126.196 57.8943 122.891 42.9884 126.705 29.711H167.302V29.7087Z" fill="#D1CCCB"/>
<path d="M181.079 119.404L142.187 158.294L122.508 138.615L161.169 99.9539L181.079 119.404Z" fill="#D1CCCB"/>
<path d="M195.485 57.8943L161.124 92.2553L148.069 79.5006L182.58 44.9893L195.485 57.8943Z" fill="#D1CCCB"/>
<path d="M182.58 37.2458L175.043 29.7087H190.117L182.58 37.2458Z" fill="#D1CCCB"/>
<path opacity="0.32" d="M149.305 177.357C172.419 177.357 191.156 158.62 191.156 135.506C191.156 112.392 172.419 93.655 149.305 93.655C126.191 93.655 107.454 112.392 107.454 135.506C107.454 158.62 126.191 177.357 149.305 177.357Z" fill="#FBB766"/>
<path d="M196.86 104.272H196.863C198.173 105.636 198.132 107.803 196.771 109.113C195.411 110.42 193.247 110.378 191.937 109.016H191.934C190.631 107.652 190.671 105.492 192.031 104.184C193.392 102.874 195.553 102.915 196.863 104.27L196.86 104.272Z" fill="#181B21"/>
<path d="M180.016 120.49L180.03 120.504C181.328 121.865 181.284 124.021 179.924 125.329C178.569 126.632 176.414 126.596 175.101 125.246L175.088 125.232C173.78 123.873 173.823 121.708 175.18 120.4C176.542 119.09 178.706 119.131 180.014 120.49H180.016Z" fill="#181B21"/>
<path d="M188.637 112.186H188.639C189.949 113.55 189.909 115.717 188.547 117.027C187.188 118.334 185.023 118.292 183.713 116.93H183.711C182.408 115.566 182.448 113.406 183.807 112.098C185.167 110.79 187.329 110.829 188.639 112.183L188.637 112.186Z" fill="#181B21"/>
<path d="M171.622 128.568L171.636 128.581C172.935 129.943 172.89 132.098 171.53 133.406C170.175 134.71 168.02 134.674 166.707 133.323L166.694 133.31C165.386 131.95 165.429 129.786 166.786 128.478C168.148 127.168 170.312 127.208 171.62 128.568H171.622Z" fill="#181B21"/>
<path d="M198.529 103.336L199.014 103.839C199.166 103.996 199.162 104.249 199.003 104.402L198.758 104.637L197.722 103.561L197.966 103.325C198.067 103.229 198.206 103.193 198.336 103.224C198.408 103.242 198.475 103.278 198.531 103.336H198.529Z" fill="#FFB080"/>
<path d="M185.344 101.327L185.75 100.936C185.927 100.766 186.207 100.773 186.378 100.947L186.941 101.533L185.31 103.101C184.83 102.601 184.844 101.807 185.344 101.324V101.327Z" fill="#D1CCCB"/>
<path d="M195.579 102.148L198.758 104.64L197.526 105.826C197.874 107.008 197.574 108.341 196.622 109.258C195.671 110.174 194.323 110.427 193.154 110.035L192.625 110.544L182.93 119.882H182.928L180.512 122.206C180.86 123.388 180.555 124.725 179.603 125.64C178.655 126.553 177.306 126.807 176.14 126.414L174.516 127.975L171.149 124.478C170.59 123.897 170.249 123.319 170.83 122.758C170.83 122.758 170.453 122.385 169.947 121.82L169.938 121.811C169.938 121.811 169.915 121.789 169.911 121.775C169.787 121.641 169.659 121.495 169.527 121.338L169.496 121.307C169.372 121.158 169.242 121.004 169.114 120.847C169.09 120.82 169.067 120.793 169.043 120.766C169.034 120.75 169.025 120.741 169.016 120.723C168.814 120.477 168.614 120.214 168.423 119.945C168.127 119.541 167.856 119.124 167.643 118.727C167.593 118.63 167.54 118.523 167.484 118.395C166.972 117.271 166.254 114.94 166.191 113.435C166.185 113.343 166.185 113.254 166.185 113.168C165.911 113.265 165.572 113.359 165.512 113.283C165.44 113.195 163.531 114.537 163.767 114.279C164.686 113.276 166.833 111.214 169.043 109.189C171.434 107 173.892 104.851 174.929 104.139C174.96 104.115 174.996 104.092 175.027 104.068C175.056 104.052 175.081 104.034 175.104 104.018C175.148 103.987 175.193 103.958 175.238 103.926C175.335 103.866 175.431 103.803 175.516 103.751C175.568 103.72 175.626 103.691 175.682 103.659C175.734 103.635 175.786 103.61 175.839 103.59C175.871 103.572 175.904 103.558 175.938 103.545C176.037 103.505 176.135 103.467 176.239 103.431C176.27 103.419 176.299 103.41 176.328 103.401C176.436 103.366 176.548 103.332 176.667 103.301C176.667 103.301 176.681 103.294 176.683 103.298C176.705 103.289 176.728 103.287 176.746 103.28C176.784 103.269 176.822 103.262 176.86 103.251C176.867 103.251 176.876 103.249 176.885 103.244C176.954 103.227 177.024 103.209 177.1 103.191C177.313 103.141 177.605 103.076 177.959 103.004C178.249 102.944 178.585 102.874 178.957 102.807C179.985 102.621 181.286 102.423 182.715 102.305C183.258 102.255 183.825 102.217 184.395 102.197C185.469 102.157 186.017 102.152 186.29 102.157C186.438 102.026 186.6 101.896 186.777 101.757H186.779C186.84 101.708 186.892 101.665 186.957 101.62C186.963 101.614 186.977 101.609 186.981 101.602C186.99 101.593 187.001 101.584 187.013 101.578C187.071 101.535 187.132 101.488 187.192 101.441C187.215 101.425 187.235 101.414 187.253 101.401C187.306 101.36 187.363 101.32 187.423 101.279C187.448 101.261 187.475 101.244 187.499 101.223C187.551 101.192 187.603 101.156 187.656 101.122C187.688 101.098 187.724 101.075 187.76 101.055C187.804 101.024 187.849 100.995 187.901 100.963C187.939 100.938 187.984 100.914 188.027 100.887C188.069 100.86 188.11 100.838 188.152 100.811C188.199 100.784 188.251 100.752 188.3 100.725C188.338 100.707 188.374 100.685 188.412 100.66C188.466 100.633 188.525 100.602 188.583 100.573C188.614 100.555 188.643 100.539 188.675 100.521C188.735 100.488 188.796 100.461 188.861 100.429C188.89 100.414 188.919 100.398 188.948 100.384C189.011 100.353 189.079 100.326 189.144 100.297C189.173 100.281 189.197 100.27 189.224 100.257C189.294 100.225 189.361 100.198 189.435 100.171C189.458 100.162 189.48 100.153 189.505 100.14C189.574 100.108 189.646 100.086 189.718 100.059C189.743 100.052 189.765 100.043 189.787 100.034C189.857 100.01 189.933 99.9874 190.005 99.9627C190.03 99.9559 190.05 99.9515 190.072 99.9425C190.146 99.9223 190.225 99.9021 190.299 99.8797C190.319 99.873 190.337 99.8685 190.359 99.864C190.436 99.846 190.516 99.8258 190.595 99.8124C190.611 99.8101 190.626 99.8057 190.647 99.8012C190.725 99.7877 190.801 99.7765 190.882 99.7675C190.902 99.7608 190.918 99.7585 190.934 99.7563C191.012 99.7473 191.093 99.7406 191.169 99.7361C191.187 99.7361 191.207 99.7316 191.223 99.7271C191.302 99.7271 191.376 99.7227 191.452 99.7271C191.47 99.7271 191.492 99.7249 191.508 99.7227C191.584 99.7227 191.656 99.7294 191.732 99.7361C191.75 99.7361 191.77 99.7361 191.788 99.7361C191.865 99.7428 191.934 99.7518 192.006 99.763C192.028 99.7675 192.051 99.7698 192.073 99.7743C192.143 99.781 192.212 99.8012 192.282 99.8169C192.304 99.8214 192.327 99.8236 192.351 99.8303C192.419 99.8483 192.486 99.8752 192.556 99.8954C192.573 99.9021 192.6 99.9088 192.621 99.9178C192.683 99.938 192.748 99.9672 192.811 99.9941C192.834 100.003 192.861 100.014 192.888 100.028C192.95 100.055 193.011 100.091 193.069 100.12C193.098 100.135 193.123 100.149 193.148 100.162C193.208 100.198 193.264 100.236 193.327 100.277C193.35 100.292 193.377 100.31 193.401 100.328C193.46 100.371 193.516 100.416 193.576 100.465L193.65 100.523C193.731 100.595 193.809 100.669 193.886 100.75L193.922 100.716C194.476 100.183 194.738 101.273 195.586 102.152L195.579 102.148Z" fill="#181B21"/>
<g style="mix-blend-mode:screen" opacity="0.17">
<path d="M177.955 103L179.897 112.897L179.119 113.379L177.194 111.378L175.678 103.657C175.73 103.632 175.781 103.608 175.835 103.587C175.866 103.57 175.9 103.556 175.934 103.543C176.032 103.502 176.131 103.464 176.234 103.428C176.266 103.417 176.295 103.408 176.324 103.399C176.432 103.363 176.544 103.33 176.663 103.298C176.663 103.298 176.676 103.291 176.678 103.296C176.701 103.287 176.723 103.285 176.741 103.278C176.779 103.267 176.818 103.26 176.856 103.249C176.862 103.249 176.871 103.247 176.88 103.242C176.95 103.224 177.019 103.206 177.096 103.188C177.309 103.139 177.6 103.074 177.955 103.002V103Z" fill="url(#paint11_linear_293_4285)"/>
<path d="M182.71 102.302L184.258 110.187L183.435 110.701L181.389 111.973L180.826 112.323L178.955 102.805C179.983 102.619 181.284 102.421 182.713 102.302H182.71Z" fill="url(#paint12_linear_293_4285)"/>
</g>
<path d="M159.897 118.09C159.897 118.09 159.908 118.083 159.913 118.074C161.165 116.999 165.438 113.209 165.505 113.278C165.566 113.354 165.904 113.258 166.178 113.166C166.178 113.253 166.178 113.336 166.185 113.428L176.739 103.271C176.728 103.278 176.712 103.28 176.694 103.285C176.687 103.285 176.683 103.291 176.676 103.291C176.674 103.289 176.66 103.294 176.66 103.294C176.539 103.327 176.429 103.359 176.324 103.395C176.295 103.406 176.263 103.41 176.234 103.424C176.131 103.464 176.032 103.5 175.936 103.54C175.898 103.554 175.866 103.565 175.837 103.583L175.831 103.59C175.81 103.599 175.788 103.608 175.768 103.614C175.68 103.657 175.595 103.697 175.521 103.742L175.514 103.749C175.427 103.798 175.33 103.861 175.236 103.924C175.191 103.955 175.144 103.989 175.104 104.018C175.079 104.036 175.052 104.05 175.025 104.065C174.992 104.092 174.958 104.112 174.924 104.137C174.875 104.173 174.821 104.213 174.763 104.252C174.642 104.339 174.503 104.444 174.352 104.563C174.301 104.601 174.251 104.642 174.197 104.682C174.092 104.767 173.975 104.862 173.854 104.954C173.639 105.133 173.401 105.326 173.145 105.541C172.984 105.674 172.82 105.813 172.65 105.961C172.394 106.178 172.12 106.412 171.833 106.658C171.741 106.741 171.645 106.822 171.544 106.907C171.407 107.029 171.266 107.15 171.124 107.278C171.005 107.381 170.889 107.486 170.772 107.587C170.626 107.715 170.476 107.847 170.324 107.982C170.113 108.173 169.897 108.363 169.677 108.556C169.352 108.852 169.013 109.155 168.673 109.465C168.56 109.568 168.448 109.669 168.332 109.776C168.076 110.012 167.816 110.248 167.555 110.49C167.351 110.68 167.147 110.871 166.936 111.062C166.64 111.34 166.34 111.618 166.037 111.903C165.916 112.02 165.79 112.134 165.669 112.253C165.072 112.816 164.48 113.386 163.897 113.953C163.704 114.137 163.513 114.323 163.323 114.512C162.926 114.9 162.533 115.29 162.154 115.672C161.995 115.831 161.84 115.992 161.683 116.147C161.333 116.502 160.992 116.851 160.669 117.192L160.658 117.204C160.478 117.394 160.301 117.583 160.126 117.769L160.104 117.789C159.926 117.984 159.751 118.168 159.583 118.354C159.547 118.395 159.668 118.296 159.897 118.094V118.09Z" fill="#D1CCCB"/>
<path d="M195.579 102.148L198.758 104.64L191.01 112.096L185.806 108.516L177.143 110.925L186.286 102.157C186.434 102.026 186.596 101.896 186.773 101.757H186.775C186.842 101.701 186.907 101.652 186.977 101.602C186.986 101.593 186.997 101.584 187.008 101.578C187.067 101.535 187.127 101.488 187.188 101.441C187.21 101.425 187.23 101.414 187.248 101.401C187.302 101.36 187.358 101.32 187.419 101.279C187.443 101.261 187.47 101.244 187.495 101.223C187.547 101.192 187.598 101.156 187.652 101.122C187.683 101.098 187.719 101.075 187.755 101.055C187.8 101.024 187.845 100.995 187.897 100.963C187.935 100.938 187.98 100.914 188.022 100.887C188.065 100.86 188.105 100.838 188.148 100.811C188.195 100.784 188.247 100.752 188.296 100.725C188.334 100.707 188.37 100.685 188.408 100.66C188.462 100.633 188.52 100.602 188.579 100.573C188.61 100.555 188.639 100.539 188.67 100.521C188.731 100.488 188.792 100.461 188.857 100.429C188.886 100.414 188.915 100.398 188.944 100.384C189.007 100.353 189.074 100.326 189.139 100.297C189.168 100.281 189.193 100.27 189.22 100.257C189.29 100.225 189.357 100.198 189.431 100.171C189.453 100.162 189.476 100.153 189.5 100.14C189.57 100.108 189.642 100.086 189.714 100.059C189.738 100.052 189.761 100.043 189.783 100.034C189.853 100.01 189.929 99.9874 190.001 99.9627C190.025 99.9559 190.046 99.9515 190.068 99.9425C190.142 99.9223 190.221 99.9021 190.295 99.8797C190.315 99.873 190.333 99.8685 190.355 99.864C190.431 99.846 190.512 99.8258 190.591 99.8124C190.606 99.8101 190.622 99.8057 190.642 99.8012C190.721 99.7877 190.797 99.7765 190.878 99.7675C190.898 99.7608 190.914 99.7585 190.929 99.7563C191.008 99.7473 191.089 99.7406 191.165 99.7361C191.183 99.7361 191.203 99.7316 191.219 99.7271C191.297 99.7271 191.371 99.7227 191.448 99.7271C191.465 99.7271 191.488 99.7249 191.504 99.7227C191.58 99.7227 191.652 99.7294 191.728 99.7361C191.746 99.7361 191.766 99.7361 191.784 99.7361C191.831 99.7406 191.871 99.7451 191.916 99.7518C191.946 99.7563 191.972 99.7585 192.002 99.763C192.024 99.7675 192.046 99.7698 192.069 99.7743C192.138 99.781 192.208 99.8012 192.278 99.8169C192.3 99.8214 192.322 99.8236 192.347 99.8303C192.414 99.8483 192.482 99.8752 192.551 99.8954C192.569 99.9021 192.596 99.9088 192.616 99.9178C192.679 99.938 192.744 99.9672 192.807 99.9941C192.829 100.003 192.856 100.014 192.883 100.028C192.946 100.055 193.007 100.091 193.065 100.12C193.094 100.135 193.119 100.149 193.143 100.162C193.204 100.198 193.26 100.236 193.323 100.277C193.345 100.292 193.372 100.31 193.397 100.328C193.455 100.371 193.511 100.416 193.572 100.465L193.646 100.523C193.727 100.595 193.801 100.665 193.879 100.746H193.881L193.917 100.714C194.55 100.106 194.734 101.27 195.582 102.15L195.579 102.148Z" fill="#F1F2F2"/>
<path d="M198.529 103.336L198.57 103.379L190.613 111.037L190.297 110.707L197.966 103.325C198.067 103.229 198.206 103.193 198.336 103.224C198.408 103.242 198.475 103.278 198.531 103.336H198.529Z" fill="#F1F2F2"/>
<path d="M194.781 100.625L186.869 108.238L189.74 111.224L189.752 111.233L189.754 111.23L197.719 103.561L195.579 102.148L195.288 101.035L194.781 100.625Z" fill="#E6E0DF"/>
<path d="M198.529 103.337L199.014 103.839C199.166 103.996 199.162 104.249 199.002 104.402L191.113 111.995L190.203 111.051L198.334 103.224C198.406 103.242 198.473 103.278 198.529 103.337Z" fill="#E6E0DF"/>
<path d="M190.294 110.694L190.667 110.334C190.754 110.25 190.895 110.251 190.981 110.34L191.712 111.1C191.796 111.187 191.795 111.328 191.706 111.414L191.333 111.773L190.295 110.695L190.294 110.694Z" fill="#BEBEBE"/>
<path d="M175.35 110.894C171.245 111.039 167.623 111.995 167.623 111.995L175.162 112.917L177.428 110.905C177.428 110.905 178.083 110.797 175.353 110.894H175.35Z" fill="#181B21"/>
<path d="M162.753 132.556L166.12 136.053L191.331 111.787L188.574 108.924C187.726 108.043 187.042 107.327 186.167 108.168L186.131 108.204H186.129C185.541 107.592 184.835 107.327 184.074 107.293C181.607 107.184 178.601 109.555 177.463 110.618H177.457C177.163 110.636 176.835 110.652 176.476 110.667C174.121 110.766 170.53 110.782 168.345 111.349C167.854 111.482 167.432 111.634 167.118 111.825C167.024 111.881 166.934 111.937 166.835 112.002C165.047 113.171 161.968 115.934 159.911 118.074C159.908 118.083 159.904 118.085 159.895 118.09C159.702 118.292 159.518 118.487 159.345 118.678C158.612 119.478 158.076 120.147 157.887 120.539C157.869 120.575 157.856 120.616 157.849 120.665C157.847 120.674 157.842 120.683 157.84 120.685C157.676 121.706 159.267 124.992 160.624 127.552C161.586 129.382 162.43 130.838 162.43 130.838C161.851 131.396 162.192 131.977 162.75 132.556H162.753Z" fill="#D1CCCB"/>
<path d="M183.984 107.358L191.901 99.7363L193.348 101.239L185.88 108.428C185.633 108.666 185.236 108.659 184.998 108.411L183.984 107.358Z" fill="#E6E0DF"/>
<path d="M187.473 105.611L188.119 106.282L186.129 108.197C185.541 107.587 184.835 107.325 184.074 107.291L185.853 105.58C186.308 105.142 187.033 105.153 187.475 105.611H187.473Z" fill="white"/>
<path d="M186.129 108.2L185.943 108.379C185.29 109.007 184.251 108.987 183.626 108.334L183.32 108.018L184.076 107.291C184.837 107.325 185.543 107.59 186.131 108.198L186.129 108.2Z" fill="#DEDEDE"/>
<path d="M193.875 100.743L192.435 102.127L191.788 101.457C191.351 101.001 191.362 100.277 191.82 99.8348L191.91 99.7473C191.939 99.7518 191.966 99.754 191.995 99.7585C192.017 99.763 192.04 99.7653 192.062 99.7697C192.132 99.7765 192.201 99.7967 192.271 99.8124C192.293 99.8168 192.316 99.8191 192.34 99.8258C192.408 99.8438 192.475 99.8707 192.544 99.8909C192.562 99.8976 192.589 99.9043 192.609 99.9133C192.672 99.9335 192.737 99.9627 192.8 99.9896C192.823 99.9985 192.85 100.01 192.876 100.023C192.939 100.05 193 100.086 193.058 100.115C193.087 100.131 193.112 100.144 193.137 100.158C193.197 100.194 193.253 100.232 193.316 100.272C193.339 100.288 193.365 100.306 193.39 100.324C193.448 100.366 193.505 100.411 193.565 100.461L193.639 100.519C193.72 100.591 193.794 100.66 193.872 100.741L193.875 100.743Z" fill="white"/>
<path d="M173.601 110.77C171.086 110.876 168.352 111.089 167.12 111.829C167.031 111.883 166.939 111.941 166.842 112.004C166.797 112.033 166.75 112.065 166.703 112.096C164.736 113.408 161.337 116.416 159.37 118.563C158.596 119.407 158.047 120.118 157.89 120.542C157.876 120.582 157.863 120.622 157.849 120.667C157.849 120.676 157.847 120.683 157.845 120.69C157.537 121.966 158.468 125.106 159.083 126.475C159.139 126.6 159.193 126.71 159.242 126.802C159.458 127.204 159.729 127.619 160.023 128.027C161.084 129.499 162.434 130.84 162.434 130.84C161.853 131.399 162.194 131.977 162.753 132.556L166.118 136.051L184.325 118.525L183.231 117.388L172.928 127.305L165.743 123.534L164.004 122.612L177.464 110.613C176.486 110.685 175.079 110.71 173.599 110.77H173.601Z" fill="#D1CCCB"/>
<path d="M161.665 124.297L173.316 126.935L181.759 118.808L181.338 118.368L173.569 125.53L164.007 122.612L175.546 112.352L177.459 110.615C177.165 110.633 176.838 110.649 176.479 110.665C174.123 110.763 170.532 110.779 168.347 111.347L176.593 103.41L176.694 103.282C176.694 103.282 176.683 103.289 176.676 103.289C176.674 103.287 176.66 103.291 176.66 103.291C176.539 103.325 176.429 103.357 176.324 103.392C176.295 103.404 176.263 103.408 176.234 103.422C176.131 103.462 176.032 103.498 175.936 103.538C175.898 103.552 175.866 103.563 175.837 103.581L175.831 103.588C175.81 103.597 175.788 103.605 175.768 103.612C175.734 103.626 175.705 103.637 175.678 103.653C175.624 103.682 175.568 103.711 175.521 103.74L175.514 103.747C175.427 103.796 175.33 103.859 175.236 103.922C175.191 103.953 175.144 103.987 175.104 104.016C175.079 104.034 175.052 104.047 175.025 104.063C174.992 104.09 174.958 104.11 174.924 104.135C174.875 104.171 174.821 104.211 174.763 104.249C174.642 104.337 174.503 104.442 174.352 104.561C174.301 104.599 174.251 104.64 174.197 104.68C174.092 104.765 173.975 104.859 173.854 104.951C173.639 105.131 173.401 105.324 173.145 105.539C172.984 105.671 172.82 105.811 172.65 105.959C172.394 106.176 172.12 106.409 171.833 106.656C171.739 106.735 171.645 106.82 171.544 106.905C171.407 107.026 171.266 107.147 171.124 107.275C171.005 107.379 170.889 107.484 170.772 107.585C170.626 107.713 170.476 107.845 170.324 107.98C170.11 108.168 169.897 108.361 169.677 108.554C169.352 108.85 169.013 109.153 168.673 109.462C168.56 109.566 168.444 109.671 168.332 109.774C168.076 110.01 167.816 110.245 167.555 110.488C167.351 110.678 167.145 110.867 166.936 111.06C166.64 111.338 166.34 111.616 166.037 111.901C165.916 112.017 165.79 112.132 165.669 112.251C165.072 112.814 164.48 113.384 163.897 113.951C163.704 114.135 163.513 114.321 163.323 114.51C162.926 114.898 162.533 115.288 162.154 115.669C161.995 115.829 161.84 115.99 161.683 116.145C161.335 116.504 160.996 116.854 160.669 117.19L160.658 117.201C160.498 117.372 160.344 117.533 160.193 117.695C160.169 117.717 160.144 117.742 160.126 117.764L160.104 117.785C159.843 118.052 159.597 118.314 159.368 118.559C159.35 118.576 159.334 118.597 159.318 118.612L159.348 118.68L161.665 124.299V124.297Z" fill="url(#paint13_linear_293_4285)"/>
<path opacity="0.15" d="M182.645 114.938L184.606 118.254L173.022 129.405C173.022 129.405 172.365 128.882 172.042 128.577C171.203 127.776 170.171 127.009 169.787 127.004C169.404 126.993 166.941 127.305 165.909 127.83C164.628 128.48 162.434 130.84 162.434 130.84C162.434 130.84 162.064 130.468 161.555 129.902L161.541 129.889C161.268 129.586 160.958 129.225 160.646 128.844C160.436 128.579 160.222 128.308 160.023 128.027L163.24 125.279L165.747 123.539L176.896 114.786C178.105 113.839 179.734 113.639 181.131 114.265L182.647 114.943L182.645 114.938Z" fill="#171314"/>
<path d="M171.717 124.965L173.711 125.573L181.338 118.368L180.761 117.771L171.717 124.965Z" fill="#D1CCCB"/>
<path d="M188.632 111.322C188.632 111.322 188.619 111.311 188.612 111.304L188.561 111.25H188.558C187.067 109.795 184.355 109.862 182.607 111.544C180.86 113.227 180.725 115.898 182.127 117.444L182.123 117.448L182.194 117.522L183.172 118.538L183.72 119.108L184.097 118.745L183.549 118.175L183.967 117.774L182.989 116.757C181.874 115.6 182.055 113.61 183.392 112.323C184.729 111.035 186.723 110.93 187.838 112.089L188.816 113.105L189.144 112.791L189.691 113.361L190.158 112.913L189.61 112.343L188.632 111.324V111.322Z" fill="#F1F2F2"/>
<path d="M182.894 111.843C181.205 113.469 181.154 116.167 182.78 117.859L183.857 118.976L184.613 118.247L183.536 117.13C182.311 115.858 182.349 113.826 183.623 112.599C184.895 111.374 186.928 111.412 188.155 112.686L189.231 113.803L189.657 113.393L189.987 113.074L188.91 111.957C187.284 110.268 184.586 110.216 182.894 111.843Z" fill="#E6E0DF"/>
<path d="M190.283 110.681L188.62 112.282L189.67 113.373L191.333 111.772L190.283 110.681Z" fill="#BEBEBE"/>
<path d="M171.629 127.637C171.629 127.637 171.616 127.626 171.609 127.619L171.555 127.563H171.553C170.032 126.078 167.405 126.228 165.64 127.928C163.874 129.629 163.623 132.249 165.052 133.823L165.048 133.828L165.119 133.902L166.118 134.938L166.676 135.519L167.057 135.154L166.499 134.573L166.923 134.167L165.925 133.13C164.79 131.95 164.965 129.932 166.317 128.63C167.67 127.329 169.693 127.231 170.828 128.411L171.826 129.447L172.156 129.128L172.715 129.709L173.186 129.256L172.627 128.675L171.629 127.639V127.637Z" fill="#F1F2F2"/>
<path d="M165.943 128.166C164.253 129.79 164.204 132.489 165.83 134.178L166.907 135.295L167.663 134.568L166.586 133.451C165.362 132.179 165.4 130.147 166.669 128.924C167.941 127.699 169.971 127.74 171.196 129.014L172.273 130.131L172.699 129.721L173.029 129.402L171.952 128.285C170.326 126.596 167.627 126.542 165.94 128.166H165.943Z" fill="#E6E0DF"/>
<path d="M183.154 112.076C181.638 113.534 181.593 115.945 183.051 117.462L184.2 118.653L189.687 113.37L188.538 112.179C187.08 110.663 184.669 110.618 183.152 112.076H183.154Z" fill="#181B21"/>
<path d="M188.314 112.498H188.316C189.626 113.861 189.586 116.028 188.224 117.338C186.865 118.646 184.7 118.604 183.39 117.242H183.388C182.084 115.878 182.125 113.718 183.484 112.41C184.846 111.1 187.006 111.141 188.316 112.495L188.314 112.498Z" fill="#515963"/>
<path d="M188.314 112.498H188.316C189.626 113.861 189.586 116.028 188.224 117.338C186.865 118.646 184.7 118.603 183.39 117.242H183.388L188.314 112.498Z" fill="#181B21"/>
<path d="M183.682 112.614C182.434 113.814 182.396 115.8 183.596 117.047C184.797 118.294 186.782 118.332 188.029 117.132C189.276 115.932 189.314 113.947 188.114 112.699C186.914 111.452 184.929 111.414 183.682 112.614Z" fill="#181B21"/>
<path d="M184.097 113.047C183.083 114.023 183.051 115.636 184.027 116.65C185.003 117.664 186.616 117.695 187.63 116.719C188.643 115.743 188.675 114.131 187.699 113.117C186.723 112.103 185.11 112.071 184.097 113.047Z" fill="#D1CCCB"/>
<path d="M186.241 112.729C186.017 112.688 185.786 112.684 185.561 112.713C185.337 112.742 185.117 112.809 184.909 112.908C184.709 113.004 184.518 113.135 184.35 113.296L184.346 113.301C184.177 113.462 184.041 113.644 183.937 113.839C183.827 114.043 183.753 114.261 183.713 114.483C183.673 114.707 183.666 114.936 183.697 115.162C183.726 115.387 183.792 115.609 183.892 115.817C183.989 116.019 184.119 116.21 184.283 116.38L184.287 116.385C184.451 116.555 184.635 116.692 184.83 116.795C185.034 116.905 185.252 116.979 185.476 117.018C185.7 117.058 185.929 117.062 186.156 117.031C186.38 117 186.6 116.935 186.809 116.834C187.008 116.737 187.197 116.607 187.367 116.443C187.535 116.28 187.672 116.096 187.778 115.9C187.888 115.696 187.962 115.479 188.002 115.257C188.042 115.032 188.047 114.804 188.015 114.577C187.986 114.353 187.919 114.131 187.818 113.924C187.722 113.722 187.591 113.534 187.428 113.363C187.266 113.193 187.085 113.056 186.889 112.951C186.685 112.841 186.468 112.767 186.246 112.726L186.241 112.729Z" fill="#3D424C"/>
<path d="M184.648 113.619C183.955 114.285 183.935 115.387 184.601 116.08C185.268 116.773 186.369 116.793 187.062 116.127C187.755 115.461 187.775 114.359 187.109 113.666C186.443 112.973 185.342 112.953 184.648 113.619Z" fill="#D1CCCB"/>
<path d="M184.367 113.078L184.133 113.304L187.352 116.647L187.586 116.422L184.367 113.078Z" fill="#D1CCCB"/>
<path d="M187.418 113.136L184.075 116.355L184.3 116.589L187.644 113.371L187.418 113.136Z" fill="#D1CCCB"/>
<path d="M183.533 114.66L183.527 114.985L188.167 115.073L188.173 114.748L183.533 114.66Z" fill="#D1CCCB"/>
<path d="M185.747 112.559L185.659 117.199L185.984 117.206L186.072 112.565L185.747 112.559Z" fill="#D1CCCB"/>
<path d="M185.272 114.265C184.931 114.593 184.92 115.135 185.25 115.476C185.577 115.817 186.12 115.829 186.461 115.499C186.802 115.171 186.813 114.629 186.483 114.288C186.154 113.947 185.613 113.935 185.272 114.265Z" fill="#D1CCCB"/>
<path d="M171.427 128.691C169.958 127.164 167.573 127.076 166.1 128.494C164.626 129.911 164.624 132.298 166.093 133.826L167.219 134.997L172.553 129.862L171.427 128.691Z" fill="#181B21"/>
<path d="M171.302 128.879L171.315 128.893C172.614 130.255 172.569 132.41 171.21 133.718C169.855 135.021 167.699 134.985 166.387 133.635L166.373 133.622C165.065 132.262 165.108 130.098 166.465 128.79C167.827 127.48 169.992 127.52 171.299 128.879H171.302Z" fill="#515963"/>
<path d="M171.313 128.893C172.612 130.254 172.567 132.41 171.207 133.718C169.852 135.021 167.697 134.985 166.384 133.635L171.311 128.893H171.313Z" fill="#181B21"/>
<path d="M166.663 128.994C165.415 130.194 165.377 132.179 166.577 133.426C167.778 134.674 169.763 134.712 171.01 133.512C172.257 132.312 172.295 130.326 171.095 129.079C169.895 127.832 167.91 127.794 166.663 128.994Z" fill="#181B21"/>
<path d="M167.08 129.427C166.066 130.403 166.035 132.016 167.01 133.029C167.986 134.043 169.599 134.075 170.613 133.099C171.627 132.123 171.658 130.51 170.682 129.496C169.707 128.483 168.094 128.451 167.08 129.427Z" fill="#D1CCCB"/>
<path d="M169.224 129.108C169 129.068 168.769 129.063 168.545 129.093C168.32 129.122 168.101 129.189 167.892 129.288C167.692 129.384 167.502 129.514 167.333 129.676L167.329 129.68C167.161 129.842 167.024 130.023 166.921 130.219C166.811 130.423 166.737 130.64 166.696 130.862C166.656 131.087 166.649 131.315 166.681 131.542C166.71 131.766 166.775 131.988 166.876 132.197C166.972 132.399 167.102 132.59 167.266 132.76L167.271 132.765C167.434 132.935 167.618 133.072 167.814 133.175C168.018 133.285 168.235 133.359 168.46 133.397C168.684 133.438 168.913 133.442 169.139 133.411C169.364 133.379 169.583 133.314 169.792 133.213C169.992 133.117 170.18 132.987 170.351 132.823C170.519 132.659 170.656 132.475 170.761 132.28C170.871 132.076 170.945 131.858 170.985 131.636C171.026 131.412 171.03 131.183 170.999 130.957C170.97 130.732 170.902 130.51 170.801 130.304C170.705 130.102 170.575 129.914 170.411 129.743C170.25 129.573 170.068 129.436 169.873 129.33C169.669 129.22 169.451 129.146 169.229 129.106L169.224 129.108Z" fill="#3D424C"/>
<path d="M167.632 129.999C166.939 130.665 166.918 131.766 167.585 132.459C168.251 133.153 169.352 133.173 170.045 132.507C170.738 131.84 170.759 130.739 170.092 130.046C169.426 129.353 168.325 129.333 167.632 129.999Z" fill="#D1CCCB"/>
<path d="M167.353 129.457L167.118 129.683L170.337 133.026L170.571 132.801L167.353 129.457Z" fill="#D1CCCB"/>
<path d="M170.402 129.517L167.059 132.735L167.284 132.97L170.628 129.751L170.402 129.517Z" fill="#D1CCCB"/>
<path d="M166.517 131.039L166.511 131.364L171.151 131.452L171.157 131.127L166.517 131.039Z" fill="#D1CCCB"/>
<path d="M168.715 128.924L168.627 133.565L168.952 133.571L169.041 128.931L168.715 128.924Z" fill="#D1CCCB"/>
<path d="M168.255 130.645C167.914 130.972 167.903 131.515 168.233 131.856C168.56 132.197 169.103 132.208 169.444 131.878C169.785 131.549 169.796 131.008 169.467 130.667C169.137 130.326 168.596 130.315 168.255 130.645Z" fill="#D1CCCB"/>
<path d="M168.466 130.869C168.251 131.076 168.244 131.419 168.45 131.632C168.657 131.847 169 131.854 169.213 131.645C169.426 131.437 169.435 131.096 169.229 130.883C169.022 130.667 168.679 130.661 168.466 130.867V130.869Z" fill="#2D3238"/>
<path d="M185.472 114.483C185.256 114.689 185.25 115.032 185.456 115.245C185.662 115.459 186.005 115.467 186.219 115.259C186.432 115.05 186.441 114.709 186.234 114.496C186.028 114.281 185.685 114.274 185.472 114.48V114.483Z" fill="#2D3238"/>
<path d="M175.967 111.95L173.412 114.229L170.032 117.24L169.411 117.794L169.285 117.908L167.255 119.712L166.746 120.165L166.481 120.4L166.268 120.593L166.03 120.804L164.399 122.255L164.007 122.61L161.47 117.63C161.492 117.601 161.903 117.195 162.472 116.652L162.681 116.457C162.827 116.318 162.977 116.172 163.139 116.022C163.684 115.51 164.276 114.963 164.792 114.516C164.978 114.355 165.153 114.207 165.312 114.077C165.38 114.025 165.447 113.965 165.514 113.913C166.494 113.144 167.403 112.536 167.894 112.466C168.044 112.446 168.192 112.428 168.347 112.408C171.627 112.004 175.961 111.948 175.961 111.948L175.967 111.95Z" fill="#181B21"/>
<g style="mix-blend-mode:screen" opacity="0.17">
<path d="M164.794 114.519L166.03 120.806L164.399 122.258L164.352 122.208L163.141 116.022C163.686 115.51 164.278 114.963 164.794 114.516V114.519Z" fill="url(#paint14_linear_293_4285)"/>
<path d="M168.354 112.41L169.411 117.796L169.285 117.91L167.255 119.714L166.746 120.167L165.519 113.913C166.499 113.143 167.407 112.536 167.899 112.466C168.049 112.446 168.197 112.428 168.352 112.408L168.354 112.41Z" fill="url(#paint15_linear_293_4285)"/>
</g>
<path d="M175.955 111.946L175.75 112.144L181.963 118.598L182.168 118.4L175.955 111.946Z" fill="#B3AFAE"/>
<path d="M175.75 112.144L175.544 112.342L181.758 118.797L181.963 118.599L175.75 112.144Z" fill="#E6E0DF"/>
<path d="M173.551 127.538L182.385 119.036C182.623 118.808 182.63 118.428 182.401 118.191L172.706 127.522C172.935 127.76 173.314 127.767 173.551 127.538Z" fill="#181B21"/>
<path d="M162.683 116.457L166.481 120.403L166.27 120.595L162.475 116.652L162.683 116.457Z" fill="#5E6673"/>
<path d="M163.897 127.655C163.928 127.688 163.962 127.72 164 127.744C164.069 127.8 164.146 127.845 164.229 127.879C164.31 127.915 164.395 127.939 164.487 127.951C164.882 128.014 165.332 127.872 165.68 127.536L163.311 125.075L162.327 126.022L163.897 127.652V127.655Z" fill="#DEDEDE"/>
<path d="M163.989 127.193C164.016 127.222 164.045 127.249 164.074 127.271C164.132 127.321 164.195 127.361 164.262 127.392C164.327 127.426 164.397 127.451 164.469 127.466C164.781 127.543 165.126 127.46 165.375 127.22L163.361 125.127L162.654 125.806L163.989 127.193Z" fill="#181B21"/>
<path d="M163.727 125.035L162.791 125.935L162.928 126.078L163.864 125.177L163.727 125.035Z" fill="#7E6464"/>
<path d="M164.013 125.332L163.078 126.233L163.213 126.374L164.149 125.473L164.013 125.332Z" fill="#7E6464"/>
<path d="M164.3 125.629L163.364 126.53L163.499 126.671L164.435 125.77L164.3 125.629Z" fill="#7E6464"/>
<path d="M164.582 125.925L163.647 126.826L163.784 126.968L164.719 126.068L164.582 125.925Z" fill="#7E6464"/>
<path d="M163.989 127.193C164.016 127.222 164.045 127.249 164.074 127.271L165.005 126.376L164.87 126.235L163.935 127.134L163.989 127.19V127.193Z" fill="#7E6464"/>
<path d="M164.469 127.466L165.292 126.675L165.155 126.533L164.262 127.392C164.327 127.426 164.397 127.451 164.469 127.466Z" fill="#7E6464"/>
<path d="M157.849 120.665C157.849 120.665 157.847 120.681 157.845 120.687C157.537 121.964 158.468 125.104 159.083 126.472L161.663 124.297L159.368 118.561C158.594 119.404 158.044 120.115 157.887 120.539C157.874 120.58 157.86 120.62 157.847 120.665H157.849Z" fill="#181B21"/>
<path d="M157.789 121.461L159.769 119.555L159.372 118.561C159.372 118.561 157.008 121.226 157.116 121.36C157.223 121.495 157.791 121.461 157.791 121.461H157.789Z" fill="#D1CCCB"/>
<path d="M173.345 112.661L172.939 113.052C172.762 113.222 172.757 113.503 172.928 113.68L173.491 114.265L175.122 112.697C174.642 112.197 173.845 112.181 173.345 112.664V112.661Z" fill="#D1CCCB"/>
<path d="M161.521 127.998L160.646 128.839C160.958 129.225 161.268 129.582 161.541 129.887L161.553 129.898L162.486 129.001C162.762 128.734 162.771 128.294 162.504 128.018C162.371 127.881 162.194 127.809 162.015 127.805C161.837 127.8 161.658 127.865 161.519 127.998H161.521Z" fill="#BF343F"/>
<path d="M161.541 129.887L161.553 129.898L161.947 129.519L160.983 128.516L160.649 128.839C160.96 129.225 161.27 129.582 161.544 129.887H161.541Z" fill="#A2232A"/>
<path d="M187.75 104.742L191.023 101.592C191.185 101.436 191.441 101.441 191.597 101.603L192.257 102.288L188.399 106.002L187.74 105.316C187.584 105.155 187.589 104.898 187.75 104.742Z" fill="#181B21"/>
<path d="M187.905 105.043L190.976 102.087C191.099 101.969 191.295 101.973 191.413 102.095L191.916 102.617L188.401 106.001L187.898 105.479C187.78 105.356 187.784 105.16 187.907 105.041L187.905 105.043Z" fill="#2D3238"/>
<path d="M196.288 103.2L197.159 104.104L191.683 109.373L190.813 108.469C190.775 108.431 190.745 108.393 190.71 108.35C190.669 108.296 190.633 108.238 190.602 108.18C190.568 108.112 190.539 108.043 190.521 107.966C190.494 107.892 190.476 107.816 190.474 107.738C190.431 107.37 190.555 106.982 190.846 106.704L194.518 103.168C195.019 102.686 195.81 102.702 196.288 103.2Z" fill="#181B21"/>
<path d="M195.485 103.054C195.523 103.092 195.526 103.153 195.483 103.193L190.523 107.966C190.496 107.892 190.478 107.816 190.476 107.738L195.344 103.052C195.386 103.011 195.445 103.016 195.483 103.054H195.485Z" fill="#7E6464"/>
<path d="M195.768 103.348C195.806 103.386 195.808 103.446 195.766 103.487L190.714 108.35C190.674 108.296 190.638 108.238 190.606 108.179L195.631 103.343C195.674 103.303 195.732 103.307 195.77 103.345L195.768 103.348Z" fill="#7E6464"/>
<path d="M196.051 103.641C196.089 103.68 196.091 103.74 196.048 103.781L190.99 108.65L190.853 108.509L195.911 103.639C195.954 103.599 196.012 103.603 196.051 103.641Z" fill="#7E6464"/>
<path d="M196.333 103.935C196.371 103.974 196.373 104.034 196.331 104.074L191.272 108.944L191.136 108.803L196.194 103.933C196.237 103.893 196.295 103.897 196.333 103.935Z" fill="#7E6464"/>
<path d="M196.616 104.227C196.654 104.265 196.656 104.326 196.614 104.366L191.555 109.236L191.418 109.095L196.477 104.225C196.519 104.184 196.578 104.189 196.616 104.227Z" fill="#7E6464"/>
<path d="M195.344 104.115L192.769 106.593C192.695 106.664 192.693 106.782 192.764 106.856L193.365 107.48C193.436 107.554 193.554 107.556 193.628 107.485L196.202 105.007C196.276 104.935 196.279 104.817 196.207 104.743L195.607 104.12C195.535 104.045 195.418 104.043 195.344 104.115Z" fill="white"/>
<path d="M183.104 117.5L182.761 117.829L183.858 118.969L184.201 118.639L183.104 117.5Z" fill="#BEBEBE"/>
<path d="M182.762 117.83L182.626 117.96L183.72 119.096L183.855 118.966L182.762 117.83Z" fill="#F1F2F2"/>
<path d="M189.113 111.812L188.94 111.978L189.984 113.062L190.157 112.896L189.113 111.812Z" fill="#F1F2F2"/>
<path d="M168.066 120.983L167.016 121.994C166.896 122.11 166.892 122.3 167.008 122.419L167.292 122.715C167.407 122.835 167.598 122.838 167.717 122.723L168.768 121.712C168.887 121.597 168.891 121.407 168.776 121.287L168.491 120.991C168.376 120.872 168.186 120.868 168.066 120.983Z" fill="#E6E0DF"/>
<path d="M168.634 121.154L168.778 121.302C168.892 121.421 168.89 121.611 168.769 121.726L167.717 122.738C167.598 122.852 167.407 122.85 167.293 122.729L167.149 122.581L168.634 121.152V121.154Z" fill="#D1CCCB"/>
<path d="M105.26 16.6152H65.7016C63.2902 16.6152 61.3364 18.569 61.3364 20.9805V45.1574C61.3364 47.5688 63.2902 49.5227 65.7016 49.5227H89.9504L103.187 57.0351L101.352 49.5227H105.262C107.674 49.5227 109.628 47.5688 109.628 45.1574V20.9805C109.628 18.569 107.674 16.6152 105.262 16.6152H105.26Z" fill="#FFF5FA"/>
<path d="M103.405 14.3877H63.8465C61.4351 14.3877 59.4813 16.3415 59.4813 18.7529V42.9299C59.4813 45.3413 61.4351 47.2951 63.8465 47.2951H88.0953L101.332 54.8075L99.4974 47.2951H103.407C105.819 47.2951 107.772 45.3413 107.772 42.9299V18.7529C107.772 16.3415 105.819 14.3877 103.407 14.3877H103.405Z" fill="#660033"/>
<path d="M68.7927 36.9272C67.0834 35.0317 66.2018 32.5284 66.3611 29.9801C66.5136 27.562 67.6329 25.3165 69.4006 23.6723C69.838 23.264 69.1807 22.6113 68.7456 23.0173C66.7962 24.8298 65.6006 27.3197 65.4346 29.9801C65.2597 32.7751 66.2691 35.5118 68.1376 37.5845C68.5392 38.0286 69.1919 37.3714 68.7927 36.9295V36.9272Z" fill="white"/>
<path d="M70.9708 34.9309C68.6065 32.2907 68.8218 28.2574 71.397 25.8482C71.8344 25.44 71.1771 24.785 70.742 25.1932C67.7854 27.9591 67.6262 32.5823 70.3158 35.5881C70.715 36.0345 71.3678 35.375 70.9708 34.9331V34.9309Z" fill="white"/>
<path d="M73.1825 32.9052C71.9196 31.492 72.052 29.343 73.4226 28.0599C73.86 27.6517 73.2027 26.9966 72.7676 27.4049C71.0156 29.0469 70.9371 31.7836 72.5275 33.5624C72.9268 34.0088 73.5796 33.3516 73.1825 32.9074V32.9052Z" fill="white"/>
<path d="M99.1653 37.5799C101.016 35.4937 102.007 32.7503 101.81 29.9553C101.622 27.2971 100.413 24.8162 98.4475 23.0172C98.0078 22.6156 97.3506 23.2684 97.7925 23.6722C99.5713 25.3007 100.713 27.5372 100.884 29.9553C101.063 32.5036 100.204 35.0137 98.5103 36.9226C98.1155 37.3668 98.7683 38.0263 99.1653 37.5776V37.5799Z" fill="white"/>
<path d="M96.9737 35.6013C99.6386 32.5775 99.4502 27.9543 96.4712 25.2109C96.0338 24.8072 95.3743 25.4622 95.8162 25.8659C98.4071 28.2527 98.6606 32.2859 96.3187 34.9441C95.9261 35.3905 96.5789 36.0477 96.9737 35.5991V35.6013Z" fill="white"/>
<path d="M94.7462 33.5916C96.321 31.8015 96.229 29.0648 94.4636 27.4363C94.0262 27.0325 93.3689 27.6875 93.8086 28.0913C95.1882 29.3632 95.3452 31.5099 94.0912 32.9343C93.6987 33.3807 94.3514 34.0402 94.7462 33.5893V33.5916Z" fill="white"/>
<path d="M85.3046 20.9064C85.3651 21.1599 85.3674 21.4111 85.3225 21.6444C84.2727 21.4156 83.1556 21.4133 82.0452 21.6758C81.9847 21.6893 81.9219 21.705 81.8658 21.7229V21.7184C81.6415 20.7695 82.2292 19.8184 83.178 19.5941C84.1269 19.3698 85.0825 19.9575 85.3068 20.9064H85.3046Z" fill="white"/>
<path d="M92.5231 36.9473C92.9919 37.6561 93.3441 38.4569 93.5504 39.3318C93.5975 39.5314 93.6357 39.7266 93.6626 39.9217L89.2278 39.9172L85.1071 39.9105H81.5853L78.9586 39.906L74.3825 39.8993C74.4632 38.6386 74.8603 37.4385 75.5175 36.3955C76.5471 34.814 76.9778 32.8445 76.5718 30.8638V30.8526C76.5584 30.7785 76.5427 30.7023 76.5247 30.626C76.5113 30.5654 76.4956 30.5004 76.4731 30.4398C75.6588 26.5658 78.0299 22.7233 81.8635 21.7206C81.9196 21.7026 81.9824 21.6892 82.0429 21.6735C83.1555 21.411 84.2727 21.4133 85.3202 21.6421C88.0345 22.2275 90.309 24.3227 90.9887 27.2029C91.2467 28.2931 91.2512 29.381 91.0403 30.4084C91.0112 30.5071 90.9887 30.6081 90.9708 30.7068C90.7554 31.7341 90.7622 32.8221 91.0179 33.9123C91.2243 34.7849 91.5787 35.5902 92.0453 36.299C92.0453 36.3035 92.052 36.308 92.0565 36.3147C92.2 36.5323 92.3548 36.7387 92.5208 36.9405V36.945L92.5231 36.9473Z" fill="white"/>
<path d="M85.8765 41.169C85.7464 42.5687 84.3489 43.6836 82.6822 43.1318C81.8545 42.8581 81.3071 42.0685 81.2488 41.2004V41.1622C81.2443 41.1398 81.2645 41.1196 81.2869 41.1196L85.8339 41.1241C85.8563 41.1241 85.8765 41.1443 85.8742 41.169H85.8765Z" fill="white"/>
<path d="M61.4261 12.9499C61.3924 12.8288 61.4508 12.6987 61.5674 12.6404C61.6841 12.582 61.794 12.6314 61.8299 12.7525C61.868 12.8781 61.8052 13.006 61.6885 13.0621C61.5719 13.1182 61.4642 13.0733 61.4261 12.9477V12.9499ZM60.4974 10.2357L61.139 9.92163L61.5046 12.36L61.4508 12.3869L60.4952 10.2357H60.4974Z" fill="#660033"/>
<path d="M58.676 15.5138C58.5773 15.4353 58.5504 15.294 58.6109 15.1796C58.6715 15.0652 58.7904 15.0405 58.8891 15.119C58.9923 15.1998 59.0169 15.3388 58.9541 15.4532C58.8913 15.5676 58.7769 15.5923 58.676 15.5138ZM56.3408 13.8449L56.6818 13.2168L58.3978 14.9889L58.3687 15.0405L56.3408 13.8449Z" fill="#660033"/>
<path d="M59.5979 13.6813C59.5194 13.5826 59.5194 13.4412 59.6046 13.3425C59.6899 13.2438 59.8088 13.2438 59.8895 13.3425C59.9725 13.4412 59.968 13.5848 59.8828 13.6835C59.7975 13.7822 59.6809 13.7844 59.5979 13.6835V13.6813ZM57.6643 11.5592L58.1286 11.0164L59.4341 13.107L59.396 13.1519L57.6643 11.5592Z" fill="#660033"/>
</g>
<defs>
<linearGradient id="paint0_linear_293_4285" x1="18.178" y1="151.626" x2="18.178" y2="185.028" gradientUnits="userSpaceOnUse">
<stop stop-color="white"/>
<stop offset="1" stop-color="#231F20"/>
</linearGradient>
<linearGradient id="paint1_linear_293_4285" x1="51.6021" y1="105.656" x2="51.6021" y2="189.098" gradientUnits="userSpaceOnUse">
<stop stop-color="white"/>
<stop offset="1" stop-color="#231F20"/>
</linearGradient>
<linearGradient id="paint2_linear_293_4285" x1="122.458" y1="98.6062" x2="122.458" y2="189.524" gradientUnits="userSpaceOnUse">
<stop stop-color="white"/>
<stop offset="1" stop-color="#231F20"/>
</linearGradient>
<linearGradient id="paint3_linear_293_4285" x1="152.073" y1="133.194" x2="152.073" y2="185.637" gradientUnits="userSpaceOnUse">
<stop stop-color="white"/>
<stop offset="1" stop-color="#231F20"/>
</linearGradient>
<linearGradient id="paint4_linear_293_4285" x1="173.522" y1="157.428" x2="173.522" y2="189.591" gradientUnits="userSpaceOnUse">
<stop stop-color="white"/>
<stop offset="1" stop-color="#231F20"/>
</linearGradient>
<linearGradient id="paint5_linear_293_4285" x1="83.066" y1="124.162" x2="83.066" y2="202.508" gradientUnits="userSpaceOnUse">
<stop stop-color="white"/>
<stop offset="1" stop-color="#231F20"/>
</linearGradient>
<linearGradient id="paint6_linear_293_4285" x1="234.497" y1="124.016" x2="234.497" y2="197.581" gradientUnits="userSpaceOnUse">
<stop stop-color="white"/>
<stop offset="1" stop-color="#231F20"/>
</linearGradient>
<linearGradient id="paint7_linear_293_4285" x1="264.757" y1="145.316" x2="264.757" y2="184.675" gradientUnits="userSpaceOnUse">
<stop stop-color="white"/>
<stop offset="1" stop-color="#231F20"/>
</linearGradient>
<linearGradient id="paint8_linear_293_4285" x1="289.623" y1="130.429" x2="289.623" y2="176.951" gradientUnits="userSpaceOnUse">
<stop stop-color="white"/>
<stop offset="1" stop-color="#231F20"/>
</linearGradient>
<linearGradient id="paint9_linear_293_4285" x1="340.386" y1="115.772" x2="340.386" y2="186.072" gradientUnits="userSpaceOnUse">
<stop stop-color="white"/>
<stop offset="1" stop-color="#231F20"/>
</linearGradient>
<linearGradient id="paint10_linear_293_4285" x1="318.517" y1="165.243" x2="318.517" y2="193.344" gradientUnits="userSpaceOnUse">
<stop stop-color="white"/>
<stop offset="1" stop-color="#231F20"/>
</linearGradient>
<linearGradient id="paint11_linear_293_4285" x1="176.23" y1="102.182" x2="178.495" y2="110.671" gradientUnits="userSpaceOnUse">
<stop stop-color="white"/>
<stop offset="1"/>
</linearGradient>
<linearGradient id="paint12_linear_293_4285" x1="180.111" y1="101.145" x2="182.378" y2="109.633" gradientUnits="userSpaceOnUse">
<stop stop-color="white"/>
<stop offset="1"/>
</linearGradient>
<linearGradient id="paint13_linear_293_4285" x1="181.383" y1="108.145" x2="163.085" y2="125.761" gradientUnits="userSpaceOnUse">
<stop stop-color="#FBB766"/>
<stop offset="1" stop-color="#F16735"/>
</linearGradient>
<linearGradient id="paint14_linear_293_4285" x1="162.176" y1="111.532" x2="166.081" y2="122.69" gradientUnits="userSpaceOnUse">
<stop stop-color="white"/>
<stop offset="1"/>
</linearGradient>
<linearGradient id="paint15_linear_293_4285" x1="165.475" y1="110.377" x2="169.379" y2="121.536" gradientUnits="userSpaceOnUse">
<stop stop-color="white"/>
<stop offset="1"/>
</linearGradient>
<clipPath id="clip0_293_4285">
<rect width="367.505" height="138" fill="white" transform="translate(0 75)"/>
</clipPath>
<clipPath id="clip1_293_4285">
<rect width="158.366" height="227.88" fill="white" transform="translate(56.3408)"/>
</clipPath>
</defs>
</svg>
