<svg width="20" height="20" viewBox="0 0 20 20" fill="none" xmlns="http://www.w3.org/2000/svg">
<path d="M18.75 10C18.06 10 17.5 10.56 17.5 11.25V11.6667H12.9483L9.16667 8.2V2.5H9.58333C10.2742 2.5 10.8333 1.94 10.8333 1.25C10.8333 0.56 10.2742 0 9.58333 0H4.58333C2.05583 0 0 2.05667 0 4.58333V15.4167C0 17.9433 2.05583 20 4.58333 20H15.4167C17.9433 20 20 17.9433 20 15.4167V11.25C20 10.56 19.44 10 18.75 10ZM4.58333 2.5H6.66667V7.9775L2.5 10.0608V4.58333C2.5 3.43417 3.435 2.5 4.58333 2.5ZM2.5 15.4167V12.8558L7.70667 10.2525L11.2825 13.5308L8.63667 17.5H4.58333C3.435 17.5 2.5 16.5658 2.5 15.4167ZM15.4167 17.5H11.6408L13.8633 14.1667H17.5V15.4167C17.5 16.5658 16.5658 17.5 15.4167 17.5ZM15.0942 9.27167C15.505 9.67333 16.1617 9.67333 16.5725 9.27167L18.7792 7.11333C20.4067 5.48583 20.4067 2.84833 18.7792 1.22083C17.9658 0.406667 16.9 0 15.8333 0C14.7667 0 13.7008 0.406667 12.8867 1.22C11.2592 2.8475 11.2592 5.485 12.8867 7.1125L15.0933 9.27083L15.0942 9.27167ZM15.8333 2.96167C16.5233 2.96167 17.0833 3.52167 17.0833 4.21167C17.0833 4.90167 16.5233 5.46167 15.8333 5.46167C15.1433 5.46167 14.5833 4.90167 14.5833 4.21167C14.5833 3.52167 15.1433 2.96167 15.8333 2.96167Z" fill="#444746"/>
</svg>
