<svg width="20" height="20" viewBox="0 0 20 20" fill="none" xmlns="http://www.w3.org/2000/svg">
<path d="M11.2495 4.99979V9.21212L14.3086 11.1279L12.9811 13.2469L8.7488 10.5954V4.99979H11.2487H11.2495ZM15.9785 14.5269L17.9701 16.0377C18.4942 15.3469 18.9259 14.5911 19.255 13.7911L16.9426 12.842C16.6968 13.4419 16.3727 14.0086 15.9793 14.5261L15.9785 14.5269ZM9.99958 17.4993C9.68126 17.4993 9.36211 17.4718 9.04796 17.4318C5.36144 16.9618 2.4999 13.8119 2.4999 9.99958C2.4999 5.86392 5.86392 2.4999 9.99958 2.4999C12.0303 2.4999 13.9128 3.31653 15.296 4.70314L13.3328 6.66639H18.2567C18.7584 6.66639 19.1659 6.25974 19.1659 5.75726V0.833299L17.0701 2.92904C15.226 1.07995 12.7078 0 9.99958 0C4.48565 0 0 4.48565 0 9.99958C0 15.0294 3.95817 19.9992 9.99958 19.9992C10.4762 19.9992 10.9554 19.965 11.4237 19.8983L11.0704 17.4234C10.7187 17.4734 10.3587 17.4993 9.99958 17.4993ZM19.9158 8.7038L17.4359 9.02379C17.4776 9.34461 17.4984 9.67376 17.4993 10.0004C17.4993 10.3237 17.4784 10.6504 17.4376 10.9679L19.9175 11.2879C19.9717 10.8637 20 10.4304 20 9.99958C20 9.56543 19.9708 9.12962 19.9158 8.7038ZM12.9445 16.8985L13.9278 19.1975C14.7227 18.8575 15.4719 18.4142 16.1552 17.8793L14.6144 15.911C14.1019 16.3118 13.5403 16.6435 12.9445 16.8985Z" fill="#660033"/>
</svg>
