<svg width="26" height="30" viewBox="0 0 26 30" fill="none" xmlns="http://www.w3.org/2000/svg">
<path d="M18.6239 10.0013H7.99952V9.03511C8.00004 6.11645 10.3665 3.75088 13.2852 3.7514C15.2068 3.75176 16.9769 4.79524 17.9076 6.47648C18.4101 7.38181 19.5515 7.70834 20.4568 7.20581C21.3621 6.70328 21.6887 5.56195 21.1861 4.65662C18.7675 0.292486 13.2689 -1.28458 8.90479 1.13407C6.03248 2.72596 4.25011 5.75114 4.24976 9.03511V10.76C1.95092 11.9331 0.502812 14.295 0.5 16.8759V23.1255C0.50416 26.9205 3.57955 29.9959 7.37454 30H18.6238C22.4188 29.9958 25.4942 26.9205 25.4984 23.1255V16.8759C25.4943 13.0809 22.4189 10.0055 18.6239 10.0013ZM21.7486 23.1255C21.7486 24.8512 20.3496 26.2502 18.6239 26.2502H7.3746C5.64883 26.2502 4.24982 24.8512 4.24982 23.1255V16.8759C4.24982 15.1501 5.64883 13.7511 7.3746 13.7511H18.6239C20.3496 13.7511 21.7486 15.1501 21.7486 16.8759V23.1255Z" fill="url(#paint0_linear_763_3074)"/>
<path d="M12.3742 17.501H13.6241C14.6596 17.501 15.499 18.3404 15.499 19.3759C15.499 20.4113 14.6596 21.2507 13.6241 21.2507H12.3742C11.3387 21.2507 10.4993 20.4113 10.4993 19.3759C10.4993 18.3404 11.3387 17.501 12.3742 17.501Z" fill="url(#paint1_linear_763_3074)"/>
<defs>
<linearGradient id="paint0_linear_763_3074" x1="12.5978" y1="-5.19758e-08" x2="15.7045" y2="29.6869" gradientUnits="userSpaceOnUse">
<stop stop-color="#A60D4F"/>
<stop offset="1" stop-color="#660033"/>
</linearGradient>
<linearGradient id="paint1_linear_763_3074" x1="12.9189" y1="17.501" x2="13.1632" y2="21.2363" gradientUnits="userSpaceOnUse">
<stop stop-color="#A60D4F"/>
<stop offset="1" stop-color="#660033"/>
</linearGradient>
</defs>
</svg>
