<svg width="22" height="22" viewBox="0 0 22 22" fill="none" xmlns="http://www.w3.org/2000/svg">
<path d="M1.81818 11.9091L4.1309 4.97094C4.37818 4.22821 5.07363 3.7273 5.85545 3.7273H15.9627C16.7445 3.7273 17.44 4.22821 17.6873 4.97094L20 11.9091" stroke="#660033" stroke-width="1.81818" stroke-miterlimit="10"/>
<path d="M6.36366 17.3637V21H2.72729V17.3637" stroke="#660033" stroke-width="1.81818" stroke-miterlimit="10"/>
<path d="M14.5454 3.72729L14.0509 2.24366C13.8036 1.50093 13.1082 1.00002 12.3263 1.00002H9.4918C8.70998 1.00002 8.01452 1.50093 7.76725 2.24366L7.27271 3.72729" stroke="#660033" stroke-width="1.81818" stroke-miterlimit="10"/>
<path d="M19.0909 17.3637V21H15.4545V17.3637" stroke="#660033" stroke-width="1.81818" stroke-miterlimit="10"/>
<path d="M20.9091 17.3637H0.909119V13.7273C0.909119 12.7237 1.72366 11.9091 2.7273 11.9091H19.0909C20.0946 11.9091 20.9091 12.7237 20.9091 13.7273V17.3637Z" stroke="#660033" stroke-width="1.81818" stroke-miterlimit="10"/>
<path d="M4.54547 11.9091V13.7273" stroke="#660033" stroke-width="1.81818" stroke-miterlimit="10" stroke-linecap="round"/>
<path d="M17.2727 13.7273V11.9091" stroke="#660033" stroke-width="1.81818" stroke-miterlimit="10" stroke-linecap="round"/>
<path d="M21.8182 9.18185H19.0909" stroke="#660033" stroke-width="1.81818" stroke-miterlimit="10"/>
<path d="M2.72727 9.18185H0" stroke="#660033" stroke-width="1.81818" stroke-miterlimit="10"/>
</svg>
