<svg width="20" height="17" viewBox="0 0 20 17" fill="none" xmlns="http://www.w3.org/2000/svg">
<path d="M0 3.5293H20V5.88224H0V3.5293Z" fill="#2ECC71"/>
<path d="M1.17647 16.4708H18.8235V7.05908H1.17647V16.4708ZM12.9412 10.0003H16.4706V11.1767H12.9412V10.0003ZM10.7605 8.99614L11.5924 9.82802L10.2436 11.1767L12.0084 12.9414L9.82772 15.1221L8.99584 14.2903L10.3446 12.9414L8.57988 11.1767L10.7605 8.99614ZM3.52941 10.0003H4.70588V8.82379H5.88235V10.0003H7.05882V11.1767H5.88235V12.3532H4.70588V11.1767H3.52941V10.0003Z" fill="#2ECC71"/>
<path d="M1.76469 0.588379H5.29411V2.35308H1.76469V0.588379Z" fill="#2ECC71"/>
<path d="M14.7059 0.588379H18.2353V2.35308H14.7059V0.588379Z" fill="#2ECC71"/>
<path d="M7.64705 0H12.3529V2.35294H7.64705V0Z" fill="#2ECC71"/>
</svg>
